<svg width="34" height="33" viewBox="0 0 34 33" fill="none" xmlns="http://www.w3.org/2000/svg">
<path fill-rule="evenodd" clip-rule="evenodd" d="M24 12C24 11.4477 24.4477 11 25 11H26.5C28.3565 11 30.137 11.7375 31.4497 13.0503C32.7625 14.363 33.5 16.1435 33.5 18C33.5 19.8565 32.7625 21.637 31.4497 22.9497C30.137 24.2625 28.3565 25 26.5 25H25C24.4477 25 24 24.5523 24 24C24 23.4477 24.4477 23 25 23H26.5C27.8261 23 29.0979 22.4732 30.0355 21.5355C30.9732 20.5979 31.5 19.3261 31.5 18C31.5 16.6739 30.9732 15.4021 30.0355 14.4645C29.0979 13.5268 27.8261 13 26.5 13H25C24.4477 13 24 12.5523 24 12Z" fill="black"/>
<path fill-rule="evenodd" clip-rule="evenodd" d="M0 12C0 11.4477 0.447715 11 1 11H25C25.5523 11 26 11.4477 26 12V25.5C26 27.3565 25.2625 29.137 23.9497 30.4497C22.637 31.7625 20.8565 32.5 19 32.5H7C5.14348 32.5 3.36301 31.7625 2.05025 30.4497C0.737498 29.137 0 27.3565 0 25.5V12ZM2 13V25.5C2 26.8261 2.52678 28.0978 3.46447 29.0355C4.40215 29.9732 5.67392 30.5 7 30.5H19C20.3261 30.5 21.5978 29.9732 22.5355 29.0355C23.4732 28.0978 24 26.8261 24 25.5V13H2Z" fill="black"/>
<path fill-rule="evenodd" clip-rule="evenodd" d="M7 0.5C7.55228 0.5 8 0.947715 8 1.5V6C8 6.55228 7.55228 7 7 7C6.44772 7 6 6.55228 6 6V1.5C6 0.947715 6.44772 0.5 7 0.5Z" fill="black"/>
<path fill-rule="evenodd" clip-rule="evenodd" d="M13 0.5C13.5523 0.5 14 0.947715 14 1.5V6C14 6.55228 13.5523 7 13 7C12.4477 7 12 6.55228 12 6V1.5C12 0.947715 12.4477 0.5 13 0.5Z" fill="black"/>
<path fill-rule="evenodd" clip-rule="evenodd" d="M19 0.5C19.5523 0.5 20 0.947715 20 1.5V6C20 6.55228 19.5523 7 19 7C18.4477 7 18 6.55228 18 6V1.5C18 0.947715 18.4477 0.5 19 0.5Z" fill="black"/>
</svg>
