<svg width="191" height="76" viewBox="0 0 191 76" fill="none" xmlns="http://www.w3.org/2000/svg">
<path d="M10.9 54.6C11.5667 58.4 13.1 61.3333 15.5 63.4C17.9667 65.4667 21.2667 66.5 25.4 66.5C30.9333 66.5 35 64.3333 37.6 60C40.2667 55.6667 41.5333 48.3667 41.4 38.1C40 41.1 37.6667 43.4667 34.4 45.2C31.1333 46.8667 27.5 47.7 23.5 47.7C19.0333 47.7 15.0333 46.8 11.5 45C8.03333 43.1333 5.3 40.4333 3.3 36.9C1.3 33.3667 0.300001 29.1 0.300001 24.1C0.300001 16.9667 2.36667 11.2333 6.5 6.9C10.6333 2.5 16.5 0.299995 24.1 0.299995C33.4333 0.299995 39.9667 3.33333 43.7 9.4C47.5 15.4667 49.4 24.5 49.4 36.5C49.4 44.9 48.6333 51.8333 47.1 57.3C45.6333 62.7667 43.1 66.9333 39.5 69.8C35.9667 72.6667 31.1 74.1 24.9 74.1C18.1 74.1 12.8 72.2667 9 68.6C5.2 64.9333 3.03333 60.2667 2.5 54.6H10.9ZM25 40C29.4667 40 33.1333 38.6333 36 35.9C38.8667 33.1 40.3 29.3333 40.3 24.6C40.3 19.6 38.9 15.5667 36.1 12.5C33.3 9.43333 29.3667 7.9 24.3 7.9C19.6333 7.9 15.9 9.36666 13.1 12.3C10.3667 15.2333 9 19.1 9 23.9C9 28.7667 10.3667 32.6667 13.1 35.6C15.8333 38.5333 19.8 40 25 40ZM75.3883 36.4C71.6549 34.9333 68.7883 32.8 66.7883 30C64.7883 27.2 63.7883 23.8 63.7883 19.8C63.7883 16.2 64.6883 12.9667 66.4883 10.1C68.2883 7.16666 70.9549 4.86666 74.4883 3.2C78.0883 1.46666 82.4216 0.599997 87.4883 0.599997C92.555 0.599997 96.855 1.46666 100.388 3.2C103.988 4.86666 106.688 7.16666 108.488 10.1C110.355 12.9667 111.288 16.2 111.288 19.8C111.288 23.6667 110.255 27.0667 108.188 30C106.122 32.8667 103.288 35 99.6883 36.4C103.822 37.6667 107.088 39.9 109.488 43.1C111.955 46.2333 113.188 50.0333 113.188 54.5C113.188 58.8333 112.122 62.6333 109.988 65.9C107.855 69.1 104.822 71.6 100.888 73.4C97.0216 75.1333 92.555 76 87.4883 76C82.4216 76 77.9549 75.1333 74.0883 73.4C70.2883 71.6 67.3216 69.1 65.1883 65.9C63.0549 62.6333 61.9883 58.8333 61.9883 54.5C61.9883 50.0333 63.1883 46.2 65.5883 43C67.9883 39.8 71.2549 37.6 75.3883 36.4ZM102.488 20.9C102.488 16.8333 101.155 13.7 98.4883 11.5C95.8216 9.3 92.155 8.19999 87.4883 8.19999C82.8883 8.19999 79.2549 9.3 76.5883 11.5C73.9216 13.7 72.5883 16.8667 72.5883 21C72.5883 24.7333 73.9549 27.7333 76.6883 30C79.4883 32.2667 83.0883 33.4 87.4883 33.4C91.955 33.4 95.555 32.2667 98.2883 30C101.088 27.6667 102.488 24.6333 102.488 20.9ZM87.4883 40.4C82.5549 40.4 78.5216 41.5667 75.3883 43.9C72.2549 46.1667 70.6883 49.6 70.6883 54.2C70.6883 58.4667 72.1883 61.9 75.1883 64.5C78.2549 67.1 82.3549 68.4 87.4883 68.4C92.6216 68.4 96.6883 67.1 99.6883 64.5C102.688 61.9 104.188 58.4667 104.188 54.2C104.188 49.7333 102.655 46.3333 99.5883 44C96.5216 41.6 92.4883 40.4 87.4883 40.4ZM123.274 18C123.274 13.4667 124.641 9.86666 127.374 7.2C130.108 4.46666 133.608 3.09999 137.874 3.09999C142.141 3.09999 145.641 4.46666 148.374 7.2C151.108 9.86666 152.474 13.4667 152.474 18C152.474 22.6 151.108 26.2667 148.374 29C145.641 31.6667 142.141 33 137.874 33C133.608 33 130.108 31.6667 127.374 29C124.641 26.2667 123.274 22.6 123.274 18ZM181.674 4.2L141.174 74H132.174L172.674 4.2H181.674ZM137.874 8.69999C135.608 8.69999 133.808 9.5 132.474 11.1C131.208 12.6333 130.574 14.9333 130.574 18C130.574 21.0667 131.208 23.4 132.474 25C133.808 26.6 135.608 27.4 137.874 27.4C140.141 27.4 141.941 26.6 143.274 25C144.608 23.3333 145.274 21 145.274 18C145.274 14.9333 144.608 12.6333 143.274 11.1C141.941 9.5 140.141 8.69999 137.874 8.69999ZM161.574 60.2C161.574 55.6 162.941 51.9667 165.674 49.3C168.408 46.5667 171.908 45.2 176.174 45.2C180.441 45.2 183.908 46.5667 186.574 49.3C189.308 51.9667 190.674 55.6 190.674 60.2C190.674 64.7333 189.308 68.3667 186.574 71.1C183.908 73.8333 180.441 75.2 176.174 75.2C171.908 75.2 168.408 73.8667 165.674 71.2C162.941 68.4667 161.574 64.8 161.574 60.2ZM176.074 50.9C173.808 50.9 172.008 51.7 170.674 53.3C169.341 54.8333 168.674 57.1333 168.674 60.2C168.674 63.2 169.341 65.5 170.674 67.1C172.008 68.6333 173.808 69.4 176.074 69.4C178.341 69.4 180.141 68.6333 181.474 67.1C182.808 65.5 183.474 63.2 183.474 60.2C183.474 57.1333 182.808 54.8333 181.474 53.3C180.141 51.7 178.341 50.9 176.074 50.9Z" fill="#0B0E16"/>
</svg>
