<svg width="400" height="139" viewBox="0 0 400 139" fill="none" xmlns="http://www.w3.org/2000/svg">
<path d="M1.00018 1H398V92.8483L1.01708 92.7933L1.00018 1Z" fill="#D9241D" stroke="white" stroke-width="2"/>
<path fill-rule="evenodd" clip-rule="evenodd" d="M21.2227 55.4278L25.5392 55.5383C25.0799 57.5378 21.4299 58.9812 21.2365 61.1567L21.347 78.2433L61.6289 78.2813L61.6565 74.0097C63.9391 74.6243 65.1512 78.1535 67.3682 78.3158C68.3351 78.3849 69.8372 78.2848 70.8697 78.2848C73.1765 78.2848 82.956 78.7199 84.2579 78.0707C84.693 76.9553 84.7828 41.3352 84.4099 38.0132L79.9828 37.7853C80.335 36.7873 82.3448 35.1574 83.1978 34.3321C85.0867 32.4949 84.4824 31.9148 84.4651 28.7102C84.4444 24.3764 84.6965 19.4245 84.3926 15.177C82.3034 14.7661 77.0476 15.032 74.6269 15.032C66.1975 15.032 51.0793 14.6348 44.0899 15.101L43.976 19.5626C41.8557 18.6544 40.6056 15.2426 38.4232 15.063C37.3976 14.9732 35.9852 15.0527 34.9182 15.0527C30.4911 15.0561 25.667 14.8731 21.2883 15.0838L21.2227 55.4278Z" fill="#1D1A19"/>
<path fill-rule="evenodd" clip-rule="evenodd" d="M182.779 74.8211C192.04 74.6692 201.385 74.828 210.66 74.8038C219.701 74.7762 226.573 72.4177 232.236 68.2669C241.29 61.6332 244.816 49.7265 242.457 37.9372C241.801 34.6393 240.099 30.0741 238.265 27.909C227.339 13.5332 214.718 15.056 197.507 15.056C191.598 15.056 185.465 14.8972 179.578 15.0768L179.543 74.7866L182.779 74.8211Z" fill="#FFFDFE"/>
<path fill-rule="evenodd" clip-rule="evenodd" d="M109.374 74.7899L123.397 74.783L123.518 51.4081L149.901 51.3597L150.004 54.8337L149.997 74.7761L153.199 74.8071L167.415 74.7899L167.55 15.1561L150.049 15.0559L150.001 36.4452L126.847 36.4418L123.511 36.4279V18.5678L123.452 15.0766L106.166 15.0663L106.117 74.7139L109.374 74.7899Z" fill="#FFFDFE"/>
<path fill-rule="evenodd" clip-rule="evenodd" d="M322.018 68.0457C325.754 70.4699 328.814 72.345 333.897 73.6814C338.824 74.9764 343.863 75.6636 349.371 75.5772C358.694 75.4322 370.435 72.6178 376.617 68.0492C375.698 66.4676 374.645 64.8826 373.64 63.1974C372.677 61.5778 371.337 59.7062 370.491 57.9796L367.821 53.7321C365.494 54.6161 362.538 58.539 352.133 59.6682C348.998 60.0066 345.275 59.796 342.243 59.1709C340.334 58.7773 335.917 57.4651 334.598 55.8075C333.085 55.1099 331.424 52.5269 330.758 50.2823C329.988 47.7028 329.829 44.7157 330.426 41.967C332.795 31.0927 346.304 29.4421 355.628 31.0237C364.05 32.4499 365.767 35.1261 368.698 36.4418L374.047 23.1469L374.562 21.2476C370.321 19.483 367.193 18.1328 362.31 17.0864C348.57 14.1408 332.381 14.9282 321.859 23.2021C319.006 25.4467 316.354 28.527 314.538 32.2427C310.17 41.1865 310.176 50.0717 314.628 58.8947C316.23 62.0786 317.508 63.6671 319.825 66.0325L322.018 68.0457Z" fill="#FFFDFE"/>
<path fill-rule="evenodd" clip-rule="evenodd" d="M255.1 74.7833H269.376L269.466 53.0728L297.15 53.0003L297.223 42.019C297.337 38.0133 297.913 38.4346 294.097 38.4449C291.68 38.4553 289.266 38.4484 286.853 38.4484C282.146 38.4449 277.432 38.4449 272.732 38.4622L269.455 38.4L269.479 30.4887L308.532 30.4645L308.577 18.5336L308.511 15.0976L251.775 15.0527L251.754 74.7798L255.1 74.7833Z" fill="#FFFDFE"/>
<path fill-rule="evenodd" clip-rule="evenodd" d="M201.303 60.0724C209.615 59.9722 216.069 61.7023 221.843 54.9202C227.51 48.2658 225.338 37.7196 222.399 35.4958C222.044 35.5406 219.564 34.0316 218.573 33.6897C216.204 32.8748 203.185 32.9576 201.279 33.3478L201.303 60.0724Z" fill="#D9241D"/>
<path fill-rule="evenodd" clip-rule="evenodd" d="M29.425 53.5319L43.0169 53.5492C44.1046 50.2168 43.5038 42.4367 43.5038 38.6347C43.5038 35.7996 43.9596 25.2603 43.2103 23.3438C41.4767 22.6324 31.6627 23.0952 29.1556 23.2229C29.2488 30.2468 28.6894 48.1484 29.425 53.5319Z" fill="#4D120F"/>
<path fill-rule="evenodd" clip-rule="evenodd" d="M62.3652 69.6656L75.9088 69.7623L75.9019 40.4029L62.4447 40.3684L62.3652 69.6656Z" fill="#FFFDFE"/>
<path fill-rule="evenodd" clip-rule="evenodd" d="M47.105 36.9632L75.715 37.0737L75.7254 23.5613C67.8278 23.4577 53.825 23.2712 47.1016 23.6407L47.105 36.9632Z" fill="#FFFDFE"/>
<path fill-rule="evenodd" clip-rule="evenodd" d="M29.7812 52.8102L41.8848 52.8309C42.7447 52.7135 42.13 52.9242 42.7136 52.5892C43.3386 51.529 43.2109 26.7383 42.907 23.7236L29.8434 23.627L29.7812 52.8102Z" fill="#D9241D"/>
<path fill-rule="evenodd" clip-rule="evenodd" d="M29.7188 69.7516L58.3046 69.7585L58.3253 56.253L29.7567 56.2253L29.7188 69.7516Z" fill="#FFFDFE"/>
<path fill-rule="evenodd" clip-rule="evenodd" d="M182.779 74.8211L182.855 78.2294C185.235 78.6196 208.585 78.333 213.071 78.333C221.435 78.333 230.282 76.4993 236.432 71.1227C241.619 66.592 246.039 60.3727 246.343 50.4447C246.502 45.3408 246.053 41.1244 244.495 36.9771C243.891 35.3645 240.386 28.4615 238.266 27.9089C240.099 30.0741 241.802 34.6393 242.458 37.9371C244.817 49.7264 241.291 61.6332 232.236 68.2668C226.573 72.4176 219.701 74.7762 210.661 74.8038C201.385 74.828 192.041 74.6691 182.779 74.8211Z" fill="#1D1A19"/>
<path fill-rule="evenodd" clip-rule="evenodd" d="M255.1 74.783L255.134 78.3122L272.621 78.3468C273.274 75.1594 272.559 62.8694 272.804 58.2041C272.818 57.9313 272.832 57.7206 272.884 57.4513L273.091 56.8055C273.65 56.2806 293.289 56.5914 297.046 56.6052C297.578 56.6052 298.151 56.6294 298.676 56.6225C301.535 56.5811 300.516 56.108 300.516 49.3673C300.516 46.3284 301.28 42.4677 299.688 42.1673C299.391 42.1086 299.249 42.1017 298.949 42.081C298.424 42.043 297.764 42.0464 297.222 42.0188L297.15 53.0001L269.465 53.0726L269.375 74.783H255.1Z" fill="#1D1A19"/>
<path fill-rule="evenodd" clip-rule="evenodd" d="M153.199 74.8073L153.275 78.2813L170.825 78.3193C171.191 71.8755 170.873 56.0149 170.873 48.5628C170.873 47.8514 171.291 19.5384 170.579 18.8754C169.999 18.4472 168.583 18.5577 167.596 18.537L167.551 15.1562L167.416 74.7901L153.199 74.8073Z" fill="#1D1A19"/>
<path fill-rule="evenodd" clip-rule="evenodd" d="M334.597 55.8076C334.294 53.4767 333.358 54.264 333.434 48.5627C333.534 41.1003 337.954 36.9392 345.199 34.9846C349.926 33.7104 355.293 33.8658 360.234 34.7775C362.893 35.2678 366.971 37.0359 369.316 38.2721C370.2 38.7314 370.839 39.3841 371.903 39.8848C372.448 39.1596 377.542 26.3136 377.604 24.953C376.81 24.145 375.08 23.5993 374.047 23.147L368.698 36.4419C365.766 35.1262 364.05 32.45 355.628 31.0238C346.304 29.4422 332.795 31.0929 330.426 41.9671C329.829 44.7158 329.987 47.7029 330.757 50.2825C331.424 52.5271 333.085 55.1101 334.597 55.8076Z" fill="#1D1A19"/>
<path fill-rule="evenodd" clip-rule="evenodd" d="M109.375 74.79L109.537 78.2709L126.662 78.3469C127.014 75.2493 126.51 56.7055 126.814 55.6177C127.069 54.6957 126.555 55.666 127.076 55.0928C128.192 54.2951 146.746 55.0686 150.006 54.8338L149.902 51.3599L123.519 51.4117L123.399 74.7831L109.375 74.79Z" fill="#1D1A19"/>
<path fill-rule="evenodd" clip-rule="evenodd" d="M370.491 57.9798C371.337 59.7064 372.676 61.5781 373.64 63.1976C374.645 64.8828 375.698 66.4678 376.617 68.0494C370.435 72.618 358.694 75.4324 349.371 75.5775C343.863 75.6638 338.824 74.9766 333.897 73.6816C328.814 72.3452 325.754 70.4701 322.018 68.046C322.349 69.258 323.209 69.7449 324.145 70.5565C326.856 72.8977 329.919 74.6693 333.265 75.9262C337.851 77.6528 343.379 78.9892 349.094 79.0928C359.102 79.269 364.841 78.2779 373.419 75.0284C374.966 74.4448 378.834 72.6388 379.7 71.6373C379.586 71.0779 372.39 58.9432 371.098 57.4722C370.149 57.5965 370.85 57.1856 370.491 57.9798Z" fill="#1D1A19"/>
<path fill-rule="evenodd" clip-rule="evenodd" d="M272.732 38.462L272.743 34.2249C275.954 33.5274 288.12 34.0523 292.215 34.0592C295.42 34.0592 309.961 34.4494 311.892 33.8934L311.909 18.6854L308.577 18.5334L308.532 30.4644L269.479 30.4885L269.455 38.3999L272.732 38.462Z" fill="#1D1A19"/>
<path fill-rule="evenodd" clip-rule="evenodd" d="M201.303 60.0724L201.279 33.3478C203.185 32.9576 216.204 32.8747 218.573 33.6897C219.564 34.0316 222.044 35.5406 222.399 35.4957C221.28 33.1268 217.223 30.2537 213.138 29.677C209.943 29.2281 201.642 29.4215 198.109 29.5907L198.033 60.0896L201.303 60.0724Z" fill="#1D1A19"/>
<path fill-rule="evenodd" clip-rule="evenodd" d="M126.848 36.4419C126.816 33.9176 127.283 19.894 126.602 18.8857C126.129 18.34 124.42 18.5334 123.512 18.568V36.4281L126.848 36.4419Z" fill="#1D1A19"/>
<path fill-rule="evenodd" clip-rule="evenodd" d="M323.797 113.036C312.543 115.395 313.852 136.536 328.69 133.811C334.226 132.796 337.206 127.73 336.173 120.993C335.303 115.298 330.41 111.648 323.797 113.036Z" fill="white"/>
<path fill-rule="evenodd" clip-rule="evenodd" d="M108.601 113.037C96.8389 115.547 99.0179 136.736 113.487 133.794C118.898 132.696 121.858 127.716 120.877 121.159C120.013 115.437 115.359 111.593 108.601 113.037Z" fill="white"/>
<path fill-rule="evenodd" clip-rule="evenodd" d="M4.89643 133.645L9.44088 133.673C9.93124 131.311 12.7422 120.122 13.5433 118.648C14.6345 121.749 16.5856 131.787 17.7493 133.628L22.0452 133.666L26.9626 113.168L22.7634 113.137C22.4147 115.36 21.7931 117.729 21.3131 119.929C21.0714 121.013 20.8262 122.098 20.5672 123.265L19.9974 125.882C19.8455 126.342 20.0906 125.682 19.8316 126.311L16.0918 113.209L11.0604 113.133L7.44146 126.898L4.25413 113.213L0.0722656 113.126L4.89643 133.645Z" fill="white"/>
<path fill-rule="evenodd" clip-rule="evenodd" d="M296.543 132.226L296.629 133.663L300.597 133.666L300.701 125.116C304.651 125.078 305.242 126.369 306.858 128.856C310.573 134.574 308.926 133.701 314.852 133.652C314.313 132.243 312.794 130.154 311.965 128.842C309.862 125.527 309.897 126.369 308.236 124.712C309.054 124.228 314.735 123.047 313.125 117.225C311.713 112.09 304.838 113.04 298.125 113.123L296.543 113.161V132.226Z" fill="white"/>
<path fill-rule="evenodd" clip-rule="evenodd" d="M160.979 133.666H165.112L165.15 125.144C168.914 124.85 169.145 125.979 170.755 128.124C171.521 129.142 173.997 132.706 174.384 133.652L179.294 133.663C178.141 130.493 175.009 126.694 172.599 124.712C174.812 123.344 176.155 124.201 177.343 121.193C178.269 118.828 177.509 116.013 176.128 114.701C173.683 112.398 165.098 113.033 161.023 113.147L160.979 133.666Z" fill="white"/>
<path fill-rule="evenodd" clip-rule="evenodd" d="M378.82 130.886V122.678L370.035 122.65L369.876 126.128L374.562 126.124L374.655 128.845C372.507 129.836 369.831 131.511 366.882 129.726C364.662 128.386 363.746 126.059 363.926 122.564C364.254 116.124 369.727 115.537 372.241 116.859C373.799 117.678 373.554 118.275 374.59 119.515L378.533 118.796C376.869 113.485 372.977 112.132 367.631 112.954C355.22 114.86 357.272 137.337 373.07 133.666C375.981 132.989 376.962 132.109 378.816 130.886H378.82Z" fill="white"/>
<path fill-rule="evenodd" clip-rule="evenodd" d="M208.188 130.859L208.164 122.695L199.306 122.664L199.234 125.958L203.899 126.135L204.01 128.852C201.879 129.833 199.141 131.494 196.237 129.743C194.03 128.417 193.115 126.031 193.26 122.571C193.388 119.446 194.721 117.336 197.186 116.607C202.114 115.15 203.509 119.028 203.948 119.518L207.895 118.79C206.237 113.603 202.449 111.994 196.758 112.995C186.844 114.742 186.481 130.088 195.104 133.29C199.997 135.103 204.455 133.535 208.188 130.859Z" fill="white"/>
<path fill-rule="evenodd" clip-rule="evenodd" d="M275.811 133.666H279.958V124.788L288.087 124.698L288.104 133.676L292.251 133.663V113.133L288.121 113.13L288.094 121.124L279.982 121.203L279.954 113.126L275.842 113.119L275.811 133.666Z" fill="white"/>
<path fill-rule="evenodd" clip-rule="evenodd" d="M212.031 133.666H216.099L216.189 124.719L224.29 124.691L224.318 133.632L228.469 133.666L228.451 113.126L224.349 113.13L224.318 121.196L216.223 121.207L216.172 113.258L212.031 113.119V133.666Z" fill="white"/>
<path fill-rule="evenodd" clip-rule="evenodd" d="M54.627 133.511L58.7536 133.666L58.7743 124.691L66.9032 124.681L66.9205 133.639L70.9642 133.673L71.0505 113.23L66.9101 113.14L66.8963 121.172L58.7985 121.214L58.7639 113.15L54.6339 113.171L54.627 133.511Z" fill="white"/>
<path fill-rule="evenodd" clip-rule="evenodd" d="M399.001 133.666V113.116L394.967 113.147L394.943 121.207L386.835 121.2L386.832 113.147L382.674 113.188L382.805 133.676L386.811 133.628L386.856 124.691L394.974 124.719L394.978 133.666H399.001Z" fill="white"/>
<path fill-rule="evenodd" clip-rule="evenodd" d="M140.628 113.143L136.515 113.126C136.408 116.576 136.498 120.154 136.491 123.641C136.491 127.474 136.826 130.461 132.579 130.461C128.39 130.461 128.407 127.733 128.4 123.911C128.39 120.343 128.49 116.687 128.386 113.14L124.274 113.147C124.16 117.353 124.008 123.448 124.398 127.526C124.85 132.178 127.461 133.946 132.309 134.011C142.928 134.146 140.676 125.237 140.628 113.143Z" fill="white"/>
<path fill-rule="evenodd" clip-rule="evenodd" d="M355.967 113.264L351.792 113.13C351.875 116.624 351.812 120.167 351.809 123.641C351.802 127.385 352.058 130.579 347.751 130.472C343.735 130.375 343.725 127.592 343.715 123.907C343.704 120.33 343.773 116.728 343.697 113.154L339.609 113.133C339.422 117.27 339.343 123.614 339.723 127.657C340.151 132.178 343.065 133.953 347.755 134.008C358.46 134.143 355.742 125.105 355.967 113.264Z" fill="white"/>
<path fill-rule="evenodd" clip-rule="evenodd" d="M88.2029 133.666L92.3226 133.656L92.3882 125.299C92.6368 123.994 98.8043 115.274 99.747 113.226L95.0195 113.123C94.2805 114.846 91.3798 119.791 90.3646 121.141C88.5724 118.914 87.1358 114.918 85.3609 113.147L80.8164 113.133C82.2012 116.725 88.2305 123.034 88.2167 126.577C88.2063 128.935 88.1787 131.308 88.2029 133.666Z" fill="white"/>
<path fill-rule="evenodd" clip-rule="evenodd" d="M324.882 116.541C321.542 117.457 320.289 120.696 320.793 124.819C321.228 128.386 323.635 131.273 327.834 130.296C334.361 128.766 333.494 114.186 324.882 116.541Z" fill="#D9241D"/>
<path fill-rule="evenodd" clip-rule="evenodd" d="M109.679 116.517C102.838 118.189 104.216 132.482 112.624 130.254C119.026 128.562 118.177 114.442 109.679 116.517Z" fill="#D9241D"/>
<path fill-rule="evenodd" clip-rule="evenodd" d="M35.6086 116.493L41.6932 116.607L41.7001 133.545L45.8405 133.642L45.844 116.617L51.8008 116.586L51.9251 113.147C49.0728 113.068 37.6218 112.788 35.5879 113.282L35.6086 116.493Z" fill="white"/>
<path fill-rule="evenodd" clip-rule="evenodd" d="M256.817 116.604L262.888 116.621L262.902 133.673L267.028 133.666L267.042 116.666L273.054 116.573L273.127 113.178L256.807 113.119L256.817 116.604Z" fill="white"/>
<path fill-rule="evenodd" clip-rule="evenodd" d="M231.303 116.6L237.381 116.628L237.374 133.659H241.508L241.525 116.642L247.534 116.572L247.606 113.237L231.293 113.133L231.303 116.6Z" fill="white"/>
<path fill-rule="evenodd" clip-rule="evenodd" d="M28.9746 133.649L33.1012 133.666L33.1116 113.14L28.9953 113.126L28.9746 133.649Z" fill="white"/>
<path fill-rule="evenodd" clip-rule="evenodd" d="M181.584 133.642L185.714 133.683L185.724 113.147L181.615 113.133L181.584 133.642Z" fill="white"/>
<path fill-rule="evenodd" clip-rule="evenodd" d="M300.691 121.821C304.728 121.839 308.827 122.512 309.065 119.307C309.328 115.65 303.73 116.545 300.722 116.614L300.691 121.821Z" fill="#D9241D"/>
<path fill-rule="evenodd" clip-rule="evenodd" d="M165.13 121.704C167.951 122.115 173.266 122.564 173.476 119.339C173.601 117.446 172.444 116.742 170.693 116.638C169.205 116.548 166.549 116.486 165.123 116.714L165.13 121.704Z" fill="#D9241D"/>
<path fill-rule="evenodd" clip-rule="evenodd" d="M144.882 133.659L146.688 133.683C146.833 135.876 145.735 135.693 144.699 136.788L145.231 138.141C148.967 137.351 148.788 133.797 148.833 129.888L144.917 129.726L144.882 133.659Z" fill="white"/>
</svg>
