<svg width="150" height="32" viewBox="0 0 150 32" fill="none" xmlns="http://www.w3.org/2000/svg">
<path d="M12.4235 32C10.0709 32 7.97619 31.6183 6.13925 30.8549C4.30231 30.0915 2.85209 29.0532 1.7886 27.7402C0.725108 26.3965 0.128908 24.9003 0 23.2513H8.16955C8.26623 24.1368 8.7013 24.8545 9.47475 25.4041C10.2482 25.9538 11.1989 26.2286 12.3268 26.2286C13.3581 26.2286 14.1477 26.0454 14.6955 25.6789C15.2756 25.282 15.5657 24.7781 15.5657 24.1674C15.5657 23.4345 15.1628 22.9001 14.3571 22.5642C13.5515 22.1978 12.2463 21.8008 10.4416 21.3733C8.50793 20.9458 6.89658 20.503 5.6075 20.045C4.31842 19.5564 3.20659 18.8082 2.27201 17.8005C1.33742 16.7623 0.87013 15.3729 0.87013 13.6323C0.87013 12.1665 1.28908 10.8382 2.12698 9.64727C2.99711 8.42581 4.25397 7.46391 5.89755 6.76157C7.57335 6.05923 9.55531 5.70806 11.8434 5.70806C15.2273 5.70806 17.886 6.50201 19.8196 8.08991C21.7855 9.67781 22.9134 11.7848 23.2035 14.411H15.5657C15.4367 13.5254 15.0178 12.8231 14.3088 12.304C13.632 11.7848 12.7297 11.5253 11.6017 11.5253C10.6349 11.5253 9.8937 11.7085 9.37807 12.0749C8.86243 12.4108 8.60462 12.8841 8.60462 13.4949C8.60462 14.2278 9.00745 14.7774 9.81313 15.1438C10.651 15.5103 11.9401 15.8767 13.6804 16.2432C15.6784 16.7317 17.3059 17.2203 18.5628 17.7089C19.8196 18.167 20.9153 18.9304 21.8499 19.9992C22.8167 21.0374 23.3163 22.4421 23.3485 24.2132C23.3485 25.7095 22.8973 27.0531 21.9949 28.244C21.1248 29.4044 19.8518 30.3205 18.176 30.9923C16.5325 31.6641 14.615 32 12.4235 32Z" fill="white"/>
<path d="M40.1675 26.7598V31.6336H34.7282C31.7311 31.6336 29.3946 30.9465 27.7188 29.5723C26.043 28.1677 25.2051 25.8927 25.2051 22.7474V12.5788H25.2003V6.0745H25.2051V0.127801L33.4713 0.127801V6.0745H38.8855V12.5788H33.4713V22.839C33.4713 23.6025 33.6647 24.1521 34.0514 24.488C34.4382 24.8239 35.0827 24.9919 35.9851 24.9919H38.0704H38.538L40.1675 25.0184V26.7598Z" fill="white"/>
<path d="M66.5484 18.4418C66.5484 19.1747 66.5 19.9381 66.4033 20.732L47.6955 20.732C47.8245 22.3199 48.3562 23.5414 49.2908 24.3964C50.2576 25.2209 51.4339 25.6331 52.8196 25.6331C54.8822 25.6331 56.3163 24.8087 57.1219 23.1597L65.9199 23.1597C65.4688 24.8392 64.647 26.3507 63.4546 27.6944C62.2944 29.038 60.8281 30.0915 59.0556 30.8549C57.2831 31.6183 55.3011 31.4648 53.1097 31.4648C50.4671 31.4648 48.1145 31.4656 46.052 30.3968C43.9894 29.3281 42.3781 27.8012 41.2179 25.8164C40.0577 23.8315 39.4777 21.5107 39.4777 18.854C39.4777 16.1974 40.0416 13.8766 41.1696 11.8917C42.3297 9.90683 43.9411 8.38001 46.0036 7.31123C48.0662 6.24245 50.4348 5.70806 53.1097 5.70806C55.7201 5.70806 58.0404 6.22718 60.0707 7.26543C62.101 8.30367 63.6801 9.78469 64.8081 11.7085C65.9683 13.6323 66.5484 15.8767 66.5484 18.4418ZM58.0888 16.3806C58.0888 15.037 57.6054 13.9682 56.6385 13.1742C55.6717 12.3803 54.4632 11.9833 53.013 11.9833C51.6272 11.9833 50.451 12.365 49.4841 13.1284C48.5496 13.8918 47.9695 14.9759 47.7439 16.3806H58.0888Z" fill="white"/>
<path d="M66.8486 18.8082C66.8486 16.1821 67.3642 13.8766 68.3955 11.8917C69.459 9.90683 70.8931 8.38001 72.6978 7.31123C74.5025 6.24245 76.5167 5.70806 78.7404 5.70806C80.6418 5.70806 82.3015 6.0745 83.7194 6.80738C85.1697 7.54025 86.2815 8.50216 87.0549 9.69308V6.0745H95.3212V31.6336H87.0549V28.015C86.2493 29.2059 85.1213 30.1678 83.6711 30.9007C82.2531 31.6336 80.5934 32 78.692 32C76.5006 32 74.5025 31.4656 72.6978 30.3968C70.8931 29.2975 69.459 27.7554 68.3955 25.7705C67.3642 23.7551 66.8486 21.4344 66.8486 18.8082ZM86.5157 18.854C86.5157 16.8997 85.9356 15.3576 84.7754 14.2277C83.6475 13.0979 82.2617 12.533 80.6181 12.533C78.9746 12.533 77.5727 13.0979 76.4125 14.2277C75.2846 15.3271 74.7206 16.8539 74.7206 18.8082C74.7206 20.7626 75.2846 22.3199 76.4125 23.4803C77.5727 24.6102 78.9746 25.1751 80.6181 25.1751C82.2617 25.1751 83.6475 24.6102 84.7754 23.4803C85.9356 22.3505 86.5157 20.8084 86.5157 18.854Z" fill="white"/>
<path d="M105.36 0V31.6336H97.094V0L105.36 0Z" fill="white"/>
<path d="M120.984 24.9919V31.6336H116.778C113.781 31.6336 111.444 30.9465 109.769 29.5723C108.093 28.1677 107.255 25.8927 107.255 22.7474V12.5788H107.25V6.0745H107.255V0.127801L115.521 0.127801V6.0745H120.935V12.5788H115.521V22.839C115.521 23.6025 115.714 24.1521 116.101 24.488C116.488 24.8239 117.132 24.9919 118.035 24.9919H120.984Z" fill="white"/>
<path d="M139.752 5.79967C142.846 5.79967 145.327 6.77684 147.196 8.73118C149.065 10.655 150 13.3117 150 16.7012V31.6336H141.782V17.7547C141.782 16.0447 141.315 14.7163 140.38 13.7697C139.446 12.8231 138.189 12.3498 136.61 12.3498C135.031 12.3498 133.774 12.8231 132.839 13.7697C131.905 14.7163 131.437 16.0447 131.437 17.7547V31.6336H123.171V0L131.437 0V9.50986C132.275 8.38001 133.419 7.47918 134.869 6.80738C136.32 6.13558 137.947 5.79967 139.752 5.79967Z" fill="white"/>
</svg>
