<svg width="152" height="82" viewBox="0 0 152 82" fill="none" xmlns="http://www.w3.org/2000/svg">
<path d="M8.096 11.6908V12.8748H5.056V22.8428H3.6V12.8748H0.544V11.6908H8.096ZM14.2403 13.9148C14.9016 13.9148 15.4989 14.0588 16.0323 14.3468C16.5656 14.6241 16.9816 15.0454 17.2803 15.6108C17.5896 16.1761 17.7443 16.8641 17.7443 17.6748V22.8428H16.3043V17.8828C16.3043 17.0081 16.0856 16.3414 15.6483 15.8828C15.2109 15.4134 14.6136 15.1788 13.8563 15.1788C13.0883 15.1788 12.4749 15.4188 12.0163 15.8988C11.5683 16.3788 11.3443 17.0774 11.3443 17.9948V22.8428H9.88825V11.0028H11.3443V15.3228C11.6323 14.8748 12.0269 14.5281 12.5283 14.2828C13.0403 14.0374 13.6109 13.9148 14.2403 13.9148ZM28.1226 18.1228C28.1226 18.4001 28.1066 18.6934 28.0746 19.0028H21.0666C21.12 19.8668 21.4133 20.5441 21.9466 21.0348C22.4906 21.5148 23.1466 21.7548 23.9146 21.7548C24.544 21.7548 25.0666 21.6108 25.4826 21.3228C25.9093 21.0241 26.208 20.6294 26.3786 20.1388H27.9466C27.712 20.9814 27.2426 21.6694 26.5386 22.2028C25.8346 22.7254 24.96 22.9868 23.9146 22.9868C23.0826 22.9868 22.336 22.8001 21.6746 22.4268C21.024 22.0534 20.512 21.5254 20.1386 20.8428C19.7653 20.1494 19.5786 19.3494 19.5786 18.4428C19.5786 17.5361 19.76 16.7414 20.1226 16.0588C20.4853 15.3761 20.992 14.8534 21.6426 14.4908C22.304 14.1174 23.0613 13.9308 23.9146 13.9308C24.7466 13.9308 25.4826 14.1121 26.1226 14.4748C26.7626 14.8374 27.2533 15.3388 27.5946 15.9788C27.9466 16.6081 28.1226 17.3228 28.1226 18.1228ZM26.6186 17.8188C26.6186 17.2641 26.496 16.7894 26.2506 16.3948C26.0053 15.9894 25.6693 15.6854 25.2426 15.4828C24.8266 15.2694 24.3626 15.1628 23.8506 15.1628C23.1146 15.1628 22.4853 15.3974 21.9626 15.8668C21.4506 16.3361 21.1573 16.9868 21.0826 17.8188H26.6186ZM33.7661 18.4268C33.7661 17.5308 33.9475 16.7468 34.3101 16.0748C34.6728 15.3921 35.1688 14.8641 35.7981 14.4908C36.4381 14.1174 37.1528 13.9308 37.9421 13.9308C38.6248 13.9308 39.2595 14.0908 39.8461 14.4108C40.4328 14.7201 40.8808 15.1308 41.1901 15.6428V11.0028H42.6621V22.8428H41.1901V21.1948C40.9021 21.7174 40.4755 22.1494 39.9101 22.4908C39.3448 22.8214 38.6835 22.9868 37.9261 22.9868C37.1475 22.9868 36.4381 22.7948 35.7981 22.4108C35.1688 22.0268 34.6728 21.4881 34.3101 20.7948C33.9475 20.1014 33.7661 19.3121 33.7661 18.4268ZM41.1901 18.4428C41.1901 17.7814 41.0568 17.2054 40.7901 16.7148C40.5235 16.2241 40.1608 15.8508 39.7021 15.5948C39.2541 15.3281 38.7581 15.1948 38.2141 15.1948C37.6701 15.1948 37.1741 15.3228 36.7261 15.5788C36.2781 15.8348 35.9208 16.2081 35.6541 16.6988C35.3875 17.1894 35.2541 17.7654 35.2541 18.4268C35.2541 19.0988 35.3875 19.6854 35.6541 20.1868C35.9208 20.6774 36.2781 21.0561 36.7261 21.3228C37.1741 21.5788 37.6701 21.7068 38.2141 21.7068C38.7581 21.7068 39.2541 21.5788 39.7021 21.3228C40.1608 21.0561 40.5235 20.6774 40.7901 20.1868C41.0568 19.6854 41.1901 19.1041 41.1901 18.4428ZM44.5786 18.4268C44.5786 17.5308 44.76 16.7468 45.1226 16.0748C45.4853 15.3921 45.9813 14.8641 46.6106 14.4908C47.2506 14.1174 47.96 13.9308 48.7386 13.9308C49.5066 13.9308 50.1733 14.0961 50.7386 14.4268C51.304 14.7574 51.7253 15.1734 52.0026 15.6748V14.0748H53.4746V22.8428H52.0026V21.2108C51.7146 21.7228 51.2826 22.1494 50.7066 22.4908C50.1413 22.8214 49.48 22.9868 48.7226 22.9868C47.944 22.9868 47.24 22.7948 46.6106 22.4108C45.9813 22.0268 45.4853 21.4881 45.1226 20.7948C44.76 20.1014 44.5786 19.3121 44.5786 18.4268ZM52.0026 18.4428C52.0026 17.7814 51.8693 17.2054 51.6026 16.7148C51.336 16.2241 50.9733 15.8508 50.5146 15.5948C50.0666 15.3281 49.5706 15.1948 49.0266 15.1948C48.4826 15.1948 47.9866 15.3228 47.5386 15.5788C47.0906 15.8348 46.7333 16.2081 46.4666 16.6988C46.2 17.1894 46.0666 17.7654 46.0666 18.4268C46.0666 19.0988 46.2 19.6854 46.4666 20.1868C46.7333 20.6774 47.0906 21.0561 47.5386 21.3228C47.9866 21.5788 48.4826 21.7068 49.0266 21.7068C49.5706 21.7068 50.0666 21.5788 50.5146 21.3228C50.9733 21.0561 51.336 20.6774 51.6026 20.1868C51.8693 19.6854 52.0026 19.1041 52.0026 18.4428ZM57.7111 15.2748V20.4428C57.7111 20.8694 57.8018 21.1734 57.9831 21.3548C58.1645 21.5254 58.4791 21.6108 58.9271 21.6108H59.9991V22.8428H58.6871C57.8765 22.8428 57.2685 22.6561 56.8631 22.2828C56.4578 21.9094 56.2551 21.2961 56.2551 20.4428V15.2748H55.1191V14.0748H56.2551V11.8668H57.7111V14.0748H59.9991V15.2748H57.7111ZM61.2193 18.4268C61.2193 17.5308 61.4006 16.7468 61.7633 16.0748C62.1259 15.3921 62.6219 14.8641 63.2513 14.4908C63.8913 14.1174 64.6006 13.9308 65.3793 13.9308C66.1473 13.9308 66.8139 14.0961 67.3793 14.4268C67.9446 14.7574 68.3659 15.1734 68.6433 15.6748V14.0748H70.1153V22.8428H68.6433V21.2108C68.3553 21.7228 67.9233 22.1494 67.3473 22.4908C66.7819 22.8214 66.1206 22.9868 65.3633 22.9868C64.5846 22.9868 63.8806 22.7948 63.2513 22.4108C62.6219 22.0268 62.1259 21.4881 61.7633 20.7948C61.4006 20.1014 61.2193 19.3121 61.2193 18.4268ZM68.6433 18.4428C68.6433 17.7814 68.5099 17.2054 68.2433 16.7148C67.9766 16.2241 67.6139 15.8508 67.1553 15.5948C66.7073 15.3281 66.2113 15.1948 65.6673 15.1948C65.1233 15.1948 64.6273 15.3228 64.1793 15.5788C63.7313 15.8348 63.3739 16.2081 63.1073 16.6988C62.8406 17.1894 62.7073 17.7654 62.7073 18.4268C62.7073 19.0988 62.8406 19.6854 63.1073 20.1868C63.3739 20.6774 63.7313 21.0561 64.1793 21.3228C64.6273 21.5788 65.1233 21.7068 65.6673 21.7068C66.2113 21.7068 66.7073 21.5788 67.1553 21.3228C67.6139 21.0561 67.9766 20.6774 68.2433 20.1868C68.5099 19.6854 68.6433 19.1041 68.6433 18.4428ZM78.2974 15.7068C78.596 15.1841 79.0334 14.7574 79.6094 14.4268C80.1854 14.0961 80.8414 13.9308 81.5774 13.9308C82.3667 13.9308 83.076 14.1174 83.7054 14.4908C84.3347 14.8641 84.8307 15.3921 85.1934 16.0748C85.556 16.7468 85.7374 17.5308 85.7374 18.4268C85.7374 19.3121 85.556 20.1014 85.1934 20.7948C84.8307 21.4881 84.3294 22.0268 83.6894 22.4108C83.06 22.7948 82.356 22.9868 81.5774 22.9868C80.82 22.9868 80.1534 22.8214 79.5774 22.4908C79.012 22.1601 78.5854 21.7388 78.2974 21.2268V22.8428H76.8414V11.0028H78.2974V15.7068ZM84.2494 18.4268C84.2494 17.7654 84.116 17.1894 83.8494 16.6988C83.5827 16.2081 83.22 15.8348 82.7614 15.5788C82.3134 15.3228 81.8174 15.1948 81.2734 15.1948C80.74 15.1948 80.244 15.3281 79.7854 15.5948C79.3374 15.8508 78.9747 16.2294 78.6974 16.7308C78.4307 17.2214 78.2974 17.7921 78.2974 18.4428C78.2974 19.1041 78.4307 19.6854 78.6974 20.1868C78.9747 20.6774 79.3374 21.0561 79.7854 21.3228C80.244 21.5788 80.74 21.7068 81.2734 21.7068C81.8174 21.7068 82.3134 21.5788 82.7614 21.3228C83.22 21.0561 83.5827 20.6774 83.8494 20.1868C84.116 19.6854 84.2494 19.0988 84.2494 18.4268ZM87.1099 18.4268C87.1099 17.5308 87.2912 16.7468 87.6539 16.0748C88.0165 15.3921 88.5125 14.8641 89.1419 14.4908C89.7819 14.1174 90.4912 13.9308 91.2699 13.9308C92.0379 13.9308 92.7045 14.0961 93.2699 14.4268C93.8352 14.7574 94.2565 15.1734 94.5339 15.6748V14.0748H96.0059V22.8428H94.5339V21.2108C94.2459 21.7228 93.8139 22.1494 93.2379 22.4908C92.6725 22.8214 92.0112 22.9868 91.2539 22.9868C90.4752 22.9868 89.7712 22.7948 89.1419 22.4108C88.5125 22.0268 88.0165 21.4881 87.6539 20.7948C87.2912 20.1014 87.1099 19.3121 87.1099 18.4268ZM94.5339 18.4428C94.5339 17.7814 94.4005 17.2054 94.1339 16.7148C93.8672 16.2241 93.5045 15.8508 93.0459 15.5948C92.5979 15.3281 92.1019 15.1948 91.5579 15.1948C91.0139 15.1948 90.5179 15.3228 90.0699 15.5788C89.6219 15.8348 89.2645 16.2081 88.9979 16.6988C88.7312 17.1894 88.5979 17.7654 88.5979 18.4268C88.5979 19.0988 88.7312 19.6854 88.9979 20.1868C89.2645 20.6774 89.6219 21.0561 90.0699 21.3228C90.5179 21.5788 91.0139 21.7068 91.5579 21.7068C92.1019 21.7068 92.5979 21.5788 93.0459 21.3228C93.5045 21.0561 93.8672 20.6774 94.1339 20.1868C94.4005 19.6854 94.5339 19.1041 94.5339 18.4428ZM101.57 22.9868C100.898 22.9868 100.296 22.8748 99.7624 22.6508C99.229 22.4161 98.8077 22.0961 98.4984 21.6908C98.189 21.2748 98.0184 20.8001 97.9864 20.2668H99.4904C99.533 20.7041 99.7357 21.0614 100.098 21.3388C100.472 21.6161 100.957 21.7548 101.554 21.7548C102.109 21.7548 102.546 21.6321 102.866 21.3868C103.186 21.1414 103.346 20.8321 103.346 20.4588C103.346 20.0748 103.176 19.7921 102.834 19.6108C102.493 19.4188 101.965 19.2321 101.25 19.0508C100.6 18.8801 100.066 18.7094 99.6504 18.5388C99.245 18.3574 98.893 18.0961 98.5944 17.7548C98.3064 17.4028 98.1624 16.9441 98.1624 16.3788C98.1624 15.9308 98.2957 15.5201 98.5624 15.1468C98.829 14.7734 99.2077 14.4801 99.6984 14.2668C100.189 14.0428 100.749 13.9308 101.378 13.9308C102.349 13.9308 103.133 14.1761 103.73 14.6668C104.328 15.1574 104.648 15.8294 104.69 16.6828H103.234C103.202 16.2241 103.016 15.8561 102.674 15.5788C102.344 15.3014 101.896 15.1628 101.33 15.1628C100.808 15.1628 100.392 15.2748 100.082 15.4988C99.773 15.7228 99.6184 16.0161 99.6184 16.3788C99.6184 16.6668 99.709 16.9068 99.8904 17.0988C100.082 17.2801 100.317 17.4294 100.594 17.5468C100.882 17.6534 101.277 17.7761 101.778 17.9148C102.408 18.0854 102.92 18.2561 103.314 18.4268C103.709 18.5868 104.045 18.8321 104.322 19.1628C104.61 19.4934 104.76 19.9254 104.77 20.4588C104.77 20.9388 104.637 21.3708 104.37 21.7548C104.104 22.1388 103.725 22.4428 103.234 22.6668C102.754 22.8801 102.2 22.9868 101.57 22.9868ZM114.826 18.1228C114.826 18.4001 114.81 18.6934 114.778 19.0028H107.77C107.823 19.8668 108.116 20.5441 108.65 21.0348C109.194 21.5148 109.85 21.7548 110.618 21.7548C111.247 21.7548 111.77 21.6108 112.186 21.3228C112.612 21.0241 112.911 20.6294 113.082 20.1388H114.65C114.415 20.9814 113.946 21.6694 113.242 22.2028C112.538 22.7254 111.663 22.9868 110.618 22.9868C109.786 22.9868 109.039 22.8001 108.378 22.4268C107.727 22.0534 107.215 21.5254 106.842 20.8428C106.468 20.1494 106.282 19.3494 106.282 18.4428C106.282 17.5361 106.463 16.7414 106.826 16.0588C107.188 15.3761 107.695 14.8534 108.346 14.4908C109.007 14.1174 109.764 13.9308 110.618 13.9308C111.45 13.9308 112.186 14.1121 112.826 14.4748C113.466 14.8374 113.956 15.3388 114.298 15.9788C114.65 16.6081 114.826 17.3228 114.826 18.1228ZM113.322 17.8188C113.322 17.2641 113.199 16.7894 112.954 16.3948C112.708 15.9894 112.372 15.6854 111.946 15.4828C111.53 15.2694 111.066 15.1628 110.554 15.1628C109.818 15.1628 109.188 15.3974 108.666 15.8668C108.154 16.3361 107.86 16.9868 107.786 17.8188H113.322ZM116.204 18.4268C116.204 17.5308 116.385 16.7468 116.748 16.0748C117.11 15.3921 117.606 14.8641 118.236 14.4908C118.876 14.1174 119.59 13.9308 120.38 13.9308C121.062 13.9308 121.697 14.0908 122.284 14.4108C122.87 14.7201 123.318 15.1308 123.628 15.6428V11.0028H125.1V22.8428H123.628V21.1948C123.34 21.7174 122.913 22.1494 122.348 22.4908C121.782 22.8214 121.121 22.9868 120.364 22.9868C119.585 22.9868 118.876 22.7948 118.236 22.4108C117.606 22.0268 117.11 21.4881 116.748 20.7948C116.385 20.1014 116.204 19.3121 116.204 18.4268ZM123.628 18.4428C123.628 17.7814 123.494 17.2054 123.228 16.7148C122.961 16.2241 122.598 15.8508 122.14 15.5948C121.692 15.3281 121.196 15.1948 120.652 15.1948C120.108 15.1948 119.612 15.3228 119.164 15.5788C118.716 15.8348 118.358 16.2081 118.092 16.6988C117.825 17.1894 117.692 17.7654 117.692 18.4268C117.692 19.0988 117.825 19.6854 118.092 20.1868C118.358 20.6774 118.716 21.0561 119.164 21.3228C119.612 21.5788 120.108 21.7068 120.652 21.7068C121.196 21.7068 121.692 21.5788 122.14 21.3228C122.598 21.0561 122.961 20.6774 123.228 20.1868C123.494 19.6854 123.628 19.1041 123.628 18.4428ZM135.65 22.9868C134.828 22.9868 134.082 22.8001 133.41 22.4268C132.748 22.0534 132.226 21.5254 131.842 20.8428C131.468 20.1494 131.282 19.3494 131.282 18.4428C131.282 17.5468 131.474 16.7574 131.858 16.0748C132.252 15.3814 132.786 14.8534 133.458 14.4908C134.13 14.1174 134.882 13.9308 135.714 13.9308C136.546 13.9308 137.298 14.1174 137.97 14.4908C138.642 14.8534 139.17 15.3761 139.554 16.0588C139.948 16.7414 140.146 17.5361 140.146 18.4428C140.146 19.3494 139.943 20.1494 139.538 20.8428C139.143 21.5254 138.604 22.0534 137.922 22.4268C137.239 22.8001 136.482 22.9868 135.65 22.9868ZM135.65 21.7068C136.172 21.7068 136.663 21.5841 137.122 21.3388C137.58 21.0934 137.948 20.7254 138.226 20.2348C138.514 19.7441 138.658 19.1468 138.658 18.4428C138.658 17.7388 138.519 17.1414 138.242 16.6508C137.964 16.1601 137.602 15.7974 137.154 15.5628C136.706 15.3174 136.22 15.1948 135.698 15.1948C135.164 15.1948 134.674 15.3174 134.226 15.5628C133.788 15.7974 133.436 16.1601 133.17 16.6508C132.903 17.1414 132.77 17.7388 132.77 18.4428C132.77 19.1574 132.898 19.7601 133.154 20.2508C133.42 20.7414 133.772 21.1094 134.21 21.3548C134.647 21.5894 135.127 21.7068 135.65 21.7068ZM146.332 13.9148C147.399 13.9148 148.263 14.2401 148.924 14.8908C149.585 15.5308 149.916 16.4588 149.916 17.6748V22.8428H148.476V17.8828C148.476 17.0081 148.257 16.3414 147.82 15.8828C147.383 15.4134 146.785 15.1788 146.028 15.1788C145.26 15.1788 144.647 15.4188 144.188 15.8988C143.74 16.3788 143.516 17.0774 143.516 17.9948V22.8428H142.06V14.0748H143.516V15.3228C143.804 14.8748 144.193 14.5281 144.684 14.2828C145.185 14.0374 145.735 13.9148 146.332 13.9148Z" fill="#85868A"/>
<path d="M58.2348 62.1736C64.576 62.1736 68.7663 57.5383 68.7663 51.6421C68.7663 47.081 65.7626 42.7794 59.8665 42.7794C53.5253 42.7794 49.2979 47.4147 49.2979 53.3109C49.2979 57.872 52.3387 62.1736 58.2348 62.1736ZM58.6427 57.427C56.0099 57.427 54.4524 55.61 54.4524 52.8659C54.4524 49.8993 56.529 47.526 59.4215 47.526C62.0543 47.526 63.6489 49.3059 63.6489 52.0871C63.6489 55.0538 61.5352 57.427 58.6427 57.427ZM101.097 62.1736C107.438 62.1736 111.629 57.5383 111.629 51.6421C111.629 47.081 108.625 42.7794 102.729 42.7794C96.3877 42.7794 92.1603 47.4147 92.1603 53.3109C92.1603 57.872 95.201 62.1736 101.097 62.1736ZM101.505 57.427C98.8722 57.427 97.3147 55.61 97.3147 52.8659C97.3147 49.8993 99.3914 47.526 102.284 47.526C104.917 47.526 106.511 49.3059 106.511 52.0871C106.511 55.0538 104.398 57.427 101.505 57.427ZM110.839 61.7286H115.919L117.885 52.4951C118.626 48.9722 120.406 47.3776 122.78 47.3776C124.967 47.3776 126.043 49.0093 125.449 51.7534L123.336 61.7286H128.416L130.604 51.3826C131.531 47.081 129.529 42.8165 124.93 42.8165C122.668 42.8165 120.666 43.7806 119.442 45.1156L119.85 43.1873H114.77L110.839 61.7286ZM140.233 62.1365C144.312 62.1365 146.945 60.5791 148.725 58.2058L144.979 55.2763C143.941 56.5741 142.717 57.5012 140.604 57.5012C138.156 57.5012 136.191 56.1292 136.042 53.6446H150.208C151.395 47.081 147.316 42.7794 141.827 42.7794C135.301 42.7794 131.259 47.2293 131.259 53.3109C131.259 58.0204 134.337 62.1365 140.233 62.1365ZM141.456 46.9697C143.533 46.9697 145.239 48.0451 145.424 50.1959H136.376C137.155 48.008 139.491 46.9697 141.456 46.9697Z" fill="#B6B5F9"/>
<path d="M73.8296 59.1749L82.3093 53.4065L88.7444 48.0548L104.919 36.3549L104.919 36.3549L68.8292 43.0934L74.4031 44.7644L79.9769 46.4354L63.6156 60.042L73.8296 59.1749Z" fill="#B6B5F9"/>
<path d="M90.4926 44.6285L82.1965 49.4654L75.3016 53.5628L56.3222 64.0077L92.5637 57.4013L81.3723 54.0724L100.375 39.5053L90.4926 44.6285Z" fill="#B6B5F9"/>
</svg>
