<svg width="176" height="73" viewBox="0 0 176 73" fill="none" xmlns="http://www.w3.org/2000/svg">
<path d="M31.4612 10.848V12.032H28.4212V22H26.9652V12.032H23.9092V10.848H31.4612ZM37.6055 13.072C38.2668 13.072 38.8642 13.216 39.3975 13.504C39.9308 13.7813 40.3468 14.2027 40.6455 14.768C40.9548 15.3333 41.1095 16.0213 41.1095 16.832V22H39.6695V17.04C39.6695 16.1653 39.4508 15.4987 39.0135 15.04C38.5762 14.5707 37.9788 14.336 37.2215 14.336C36.4535 14.336 35.8402 14.576 35.3815 15.056C34.9335 15.536 34.7095 16.2347 34.7095 17.152V22H33.2535V10.16H34.7095V14.48C34.9975 14.032 35.3922 13.6853 35.8935 13.44C36.4055 13.1947 36.9762 13.072 37.6055 13.072ZM51.4879 17.28C51.4879 17.5573 51.4719 17.8507 51.4399 18.16H44.4319C44.4852 19.024 44.7785 19.7013 45.3119 20.192C45.8559 20.672 46.5119 20.912 47.2799 20.912C47.9092 20.912 48.4319 20.768 48.8479 20.48C49.2745 20.1813 49.5732 19.7867 49.7439 19.296H51.3119C51.0772 20.1387 50.6079 20.8267 49.9039 21.36C49.1999 21.8827 48.3252 22.144 47.2799 22.144C46.4479 22.144 45.7012 21.9573 45.0399 21.584C44.3892 21.2107 43.8772 20.6827 43.5039 20C43.1305 19.3067 42.9439 18.5067 42.9439 17.6C42.9439 16.6933 43.1252 15.8987 43.4879 15.216C43.8505 14.5333 44.3572 14.0107 45.0079 13.648C45.6692 13.2747 46.4265 13.088 47.2799 13.088C48.1119 13.088 48.8479 13.2693 49.4879 13.632C50.1279 13.9947 50.6185 14.496 50.9599 15.136C51.3119 15.7653 51.4879 16.48 51.4879 17.28ZM49.9839 16.976C49.9839 16.4213 49.8612 15.9467 49.6159 15.552C49.3705 15.1467 49.0345 14.8427 48.6079 14.64C48.1919 14.4267 47.7279 14.32 47.2159 14.32C46.4799 14.32 45.8505 14.5547 45.3279 15.024C44.8159 15.4933 44.5225 16.144 44.4479 16.976H49.9839ZM57.1314 17.584C57.1314 16.688 57.3127 15.904 57.6754 15.232C58.038 14.5493 58.534 14.0213 59.1634 13.648C59.8034 13.2747 60.518 13.088 61.3074 13.088C61.99 13.088 62.6247 13.248 63.2114 13.568C63.798 13.8773 64.246 14.288 64.5554 14.8V10.16H66.0274V22H64.5554V20.352C64.2674 20.8747 63.8407 21.3067 63.2754 21.648C62.71 21.9787 62.0487 22.144 61.2914 22.144C60.5127 22.144 59.8034 21.952 59.1634 21.568C58.534 21.184 58.038 20.6453 57.6754 19.952C57.3127 19.2587 57.1314 18.4693 57.1314 17.584ZM64.5554 17.6C64.5554 16.9387 64.422 16.3627 64.1554 15.872C63.8887 15.3813 63.526 15.008 63.0674 14.752C62.6194 14.4853 62.1234 14.352 61.5794 14.352C61.0354 14.352 60.5394 14.48 60.0914 14.736C59.6434 14.992 59.286 15.3653 59.0194 15.856C58.7527 16.3467 58.6194 16.9227 58.6194 17.584C58.6194 18.256 58.7527 18.8427 59.0194 19.344C59.286 19.8347 59.6434 20.2133 60.0914 20.48C60.5394 20.736 61.0354 20.864 61.5794 20.864C62.1234 20.864 62.6194 20.736 63.0674 20.48C63.526 20.2133 63.8887 19.8347 64.1554 19.344C64.422 18.8427 64.5554 18.2613 64.5554 17.6ZM67.9439 17.584C67.9439 16.688 68.1252 15.904 68.4879 15.232C68.8505 14.5493 69.3465 14.0213 69.9759 13.648C70.6159 13.2747 71.3252 13.088 72.1039 13.088C72.8719 13.088 73.5385 13.2533 74.1039 13.584C74.6692 13.9147 75.0905 14.3307 75.3679 14.832V13.232H76.8399V22H75.3679V20.368C75.0799 20.88 74.6479 21.3067 74.0719 21.648C73.5065 21.9787 72.8452 22.144 72.0879 22.144C71.3092 22.144 70.6052 21.952 69.9759 21.568C69.3465 21.184 68.8505 20.6453 68.4879 19.952C68.1252 19.2587 67.9439 18.4693 67.9439 17.584ZM75.3679 17.6C75.3679 16.9387 75.2345 16.3627 74.9679 15.872C74.7012 15.3813 74.3385 15.008 73.8799 14.752C73.4319 14.4853 72.9359 14.352 72.3919 14.352C71.8479 14.352 71.3519 14.48 70.9039 14.736C70.4559 14.992 70.0985 15.3653 69.8319 15.856C69.5652 16.3467 69.4319 16.9227 69.4319 17.584C69.4319 18.256 69.5652 18.8427 69.8319 19.344C70.0985 19.8347 70.4559 20.2133 70.9039 20.48C71.3519 20.736 71.8479 20.864 72.3919 20.864C72.9359 20.864 73.4319 20.736 73.8799 20.48C74.3385 20.2133 74.7012 19.8347 74.9679 19.344C75.2345 18.8427 75.3679 18.2613 75.3679 17.6ZM81.0764 14.432V19.6C81.0764 20.0267 81.167 20.3307 81.3484 20.512C81.5297 20.6827 81.8444 20.768 82.2924 20.768H83.3644V22H82.0524C81.2417 22 80.6337 21.8133 80.2284 21.44C79.823 21.0667 79.6204 20.4533 79.6204 19.6V14.432H78.4844V13.232H79.6204V11.024H81.0764V13.232H83.3644V14.432H81.0764ZM84.5845 17.584C84.5845 16.688 84.7658 15.904 85.1285 15.232C85.4912 14.5493 85.9872 14.0213 86.6165 13.648C87.2565 13.2747 87.9658 13.088 88.7445 13.088C89.5125 13.088 90.1792 13.2533 90.7445 13.584C91.3098 13.9147 91.7312 14.3307 92.0085 14.832V13.232H93.4805V22H92.0085V20.368C91.7205 20.88 91.2885 21.3067 90.7125 21.648C90.1472 21.9787 89.4858 22.144 88.7285 22.144C87.9498 22.144 87.2458 21.952 86.6165 21.568C85.9872 21.184 85.4912 20.6453 85.1285 19.952C84.7658 19.2587 84.5845 18.4693 84.5845 17.584ZM92.0085 17.6C92.0085 16.9387 91.8752 16.3627 91.6085 15.872C91.3418 15.3813 90.9792 15.008 90.5205 14.752C90.0725 14.4853 89.5765 14.352 89.0325 14.352C88.4885 14.352 87.9925 14.48 87.5445 14.736C87.0965 14.992 86.7392 15.3653 86.4725 15.856C86.2058 16.3467 86.0725 16.9227 86.0725 17.584C86.0725 18.256 86.2058 18.8427 86.4725 19.344C86.7392 19.8347 87.0965 20.2133 87.5445 20.48C87.9925 20.736 88.4885 20.864 89.0325 20.864C89.5765 20.864 90.0725 20.736 90.5205 20.48C90.9792 20.2133 91.3418 19.8347 91.6085 19.344C91.8752 18.8427 92.0085 18.2613 92.0085 17.6ZM101.663 14.864C101.961 14.3413 102.399 13.9147 102.975 13.584C103.551 13.2533 104.207 13.088 104.943 13.088C105.732 13.088 106.441 13.2747 107.071 13.648C107.7 14.0213 108.196 14.5493 108.559 15.232C108.921 15.904 109.103 16.688 109.103 17.584C109.103 18.4693 108.921 19.2587 108.559 19.952C108.196 20.6453 107.695 21.184 107.055 21.568C106.425 21.952 105.721 22.144 104.943 22.144C104.185 22.144 103.519 21.9787 102.943 21.648C102.377 21.3173 101.951 20.896 101.663 20.384V22H100.207V10.16H101.663V14.864ZM107.615 17.584C107.615 16.9227 107.481 16.3467 107.215 15.856C106.948 15.3653 106.585 14.992 106.127 14.736C105.679 14.48 105.183 14.352 104.639 14.352C104.105 14.352 103.609 14.4853 103.151 14.752C102.703 15.008 102.34 15.3867 102.063 15.888C101.796 16.3787 101.663 16.9493 101.663 17.6C101.663 18.2613 101.796 18.8427 102.063 19.344C102.34 19.8347 102.703 20.2133 103.151 20.48C103.609 20.736 104.105 20.864 104.639 20.864C105.183 20.864 105.679 20.736 106.127 20.48C106.585 20.2133 106.948 19.8347 107.215 19.344C107.481 18.8427 107.615 18.256 107.615 17.584ZM110.475 17.584C110.475 16.688 110.656 15.904 111.019 15.232C111.382 14.5493 111.878 14.0213 112.507 13.648C113.147 13.2747 113.856 13.088 114.635 13.088C115.403 13.088 116.07 13.2533 116.635 13.584C117.2 13.9147 117.622 14.3307 117.899 14.832V13.232H119.371V22H117.899V20.368C117.611 20.88 117.179 21.3067 116.603 21.648C116.038 21.9787 115.376 22.144 114.619 22.144C113.84 22.144 113.136 21.952 112.507 21.568C111.878 21.184 111.382 20.6453 111.019 19.952C110.656 19.2587 110.475 18.4693 110.475 17.584ZM117.899 17.6C117.899 16.9387 117.766 16.3627 117.499 15.872C117.232 15.3813 116.87 15.008 116.411 14.752C115.963 14.4853 115.467 14.352 114.923 14.352C114.379 14.352 113.883 14.48 113.435 14.736C112.987 14.992 112.63 15.3653 112.363 15.856C112.096 16.3467 111.963 16.9227 111.963 17.584C111.963 18.256 112.096 18.8427 112.363 19.344C112.63 19.8347 112.987 20.2133 113.435 20.48C113.883 20.736 114.379 20.864 114.923 20.864C115.467 20.864 115.963 20.736 116.411 20.48C116.87 20.2133 117.232 19.8347 117.499 19.344C117.766 18.8427 117.899 18.2613 117.899 17.6ZM124.936 22.144C124.264 22.144 123.661 22.032 123.128 21.808C122.594 21.5733 122.173 21.2533 121.864 20.848C121.554 20.432 121.384 19.9573 121.352 19.424H122.856C122.898 19.8613 123.101 20.2187 123.464 20.496C123.837 20.7733 124.322 20.912 124.92 20.912C125.474 20.912 125.912 20.7893 126.232 20.544C126.552 20.2987 126.712 19.9893 126.712 19.616C126.712 19.232 126.541 18.9493 126.2 18.768C125.858 18.576 125.33 18.3893 124.616 18.208C123.965 18.0373 123.432 17.8667 123.016 17.696C122.61 17.5147 122.258 17.2533 121.96 16.912C121.672 16.56 121.528 16.1013 121.528 15.536C121.528 15.088 121.661 14.6773 121.928 14.304C122.194 13.9307 122.573 13.6373 123.064 13.424C123.554 13.2 124.114 13.088 124.744 13.088C125.714 13.088 126.498 13.3333 127.096 13.824C127.693 14.3147 128.013 14.9867 128.056 15.84H126.6C126.568 15.3813 126.381 15.0133 126.04 14.736C125.709 14.4587 125.261 14.32 124.696 14.32C124.173 14.32 123.757 14.432 123.448 14.656C123.138 14.88 122.984 15.1733 122.984 15.536C122.984 15.824 123.074 16.064 123.256 16.256C123.448 16.4373 123.682 16.5867 123.96 16.704C124.248 16.8107 124.642 16.9333 125.144 17.072C125.773 17.2427 126.285 17.4133 126.68 17.584C127.074 17.744 127.41 17.9893 127.688 18.32C127.976 18.6507 128.125 19.0827 128.136 19.616C128.136 20.096 128.002 20.528 127.736 20.912C127.469 21.296 127.09 21.6 126.6 21.824C126.12 22.0373 125.565 22.144 124.936 22.144ZM138.191 17.28C138.191 17.5573 138.175 17.8507 138.143 18.16H131.135C131.188 19.024 131.482 19.7013 132.015 20.192C132.559 20.672 133.215 20.912 133.983 20.912C134.612 20.912 135.135 20.768 135.551 20.48C135.978 20.1813 136.276 19.7867 136.447 19.296H138.015C137.78 20.1387 137.311 20.8267 136.607 21.36C135.903 21.8827 135.028 22.144 133.983 22.144C133.151 22.144 132.404 21.9573 131.743 21.584C131.092 21.2107 130.58 20.6827 130.207 20C129.834 19.3067 129.647 18.5067 129.647 17.6C129.647 16.6933 129.828 15.8987 130.191 15.216C130.554 14.5333 131.06 14.0107 131.711 13.648C132.372 13.2747 133.13 13.088 133.983 13.088C134.815 13.088 135.551 13.2693 136.191 13.632C136.831 13.9947 137.322 14.496 137.663 15.136C138.015 15.7653 138.191 16.48 138.191 17.28ZM136.687 16.976C136.687 16.4213 136.564 15.9467 136.319 15.552C136.074 15.1467 135.738 14.8427 135.311 14.64C134.895 14.4267 134.431 14.32 133.919 14.32C133.183 14.32 132.554 14.5547 132.031 15.024C131.519 15.4933 131.226 16.144 131.151 16.976H136.687ZM139.569 17.584C139.569 16.688 139.75 15.904 140.113 15.232C140.476 14.5493 140.972 14.0213 141.601 13.648C142.241 13.2747 142.956 13.088 143.745 13.088C144.428 13.088 145.062 13.248 145.649 13.568C146.236 13.8773 146.684 14.288 146.993 14.8V10.16H148.465V22H146.993V20.352C146.705 20.8747 146.278 21.3067 145.713 21.648C145.148 21.9787 144.486 22.144 143.729 22.144C142.95 22.144 142.241 21.952 141.601 21.568C140.972 21.184 140.476 20.6453 140.113 19.952C139.75 19.2587 139.569 18.4693 139.569 17.584ZM146.993 17.6C146.993 16.9387 146.86 16.3627 146.593 15.872C146.326 15.3813 145.964 15.008 145.505 14.752C145.057 14.4853 144.561 14.352 144.017 14.352C143.473 14.352 142.977 14.48 142.529 14.736C142.081 14.992 141.724 15.3653 141.457 15.856C141.19 16.3467 141.057 16.9227 141.057 17.584C141.057 18.256 141.19 18.8427 141.457 19.344C141.724 19.8347 142.081 20.2133 142.529 20.48C142.977 20.736 143.473 20.864 144.017 20.864C144.561 20.864 145.057 20.736 145.505 20.48C145.964 20.2133 146.326 19.8347 146.593 19.344C146.86 18.8427 146.993 18.2613 146.993 17.6ZM159.015 22.144C158.194 22.144 157.447 21.9573 156.775 21.584C156.114 21.2107 155.591 20.6827 155.207 20C154.834 19.3067 154.647 18.5067 154.647 17.6C154.647 16.704 154.839 15.9147 155.223 15.232C155.618 14.5387 156.151 14.0107 156.823 13.648C157.495 13.2747 158.247 13.088 159.079 13.088C159.911 13.088 160.663 13.2747 161.335 13.648C162.007 14.0107 162.535 14.5333 162.919 15.216C163.314 15.8987 163.511 16.6933 163.511 17.6C163.511 18.5067 163.308 19.3067 162.903 20C162.508 20.6827 161.97 21.2107 161.287 21.584C160.604 21.9573 159.847 22.144 159.015 22.144ZM159.015 20.864C159.538 20.864 160.028 20.7413 160.487 20.496C160.946 20.2507 161.314 19.8827 161.591 19.392C161.879 18.9013 162.023 18.304 162.023 17.6C162.023 16.896 161.884 16.2987 161.607 15.808C161.33 15.3173 160.967 14.9547 160.519 14.72C160.071 14.4747 159.586 14.352 159.063 14.352C158.53 14.352 158.039 14.4747 157.591 14.72C157.154 14.9547 156.802 15.3173 156.535 15.808C156.268 16.2987 156.135 16.896 156.135 17.6C156.135 18.3147 156.263 18.9173 156.519 19.408C156.786 19.8987 157.138 20.2667 157.575 20.512C158.012 20.7467 158.492 20.864 159.015 20.864ZM169.697 13.072C170.764 13.072 171.628 13.3973 172.289 14.048C172.951 14.688 173.281 15.616 173.281 16.832V22H171.841V17.04C171.841 16.1653 171.623 15.4987 171.185 15.04C170.748 14.5707 170.151 14.336 169.393 14.336C168.625 14.336 168.012 14.576 167.553 15.056C167.105 15.536 166.881 16.2347 166.881 17.152V22H165.425V13.232H166.881V14.48C167.169 14.032 167.559 13.6853 168.049 13.44C168.551 13.1947 169.1 13.072 169.697 13.072Z" fill="#85868A"/>
<path d="M48.6129 65.7966C53.8024 65.7966 56.9625 63.3323 56.9625 59.0705C56.9625 51.8806 46.2066 53.4461 46.2066 51.6197C46.2066 51.1268 46.5255 50.7499 47.6852 50.7499C49.5116 50.7499 51.686 51.3877 53.3675 52.6634L56.4986 48.5175C54.2953 46.7201 51.4541 45.8213 48.294 45.8213C42.9885 45.8213 40.2633 48.9524 40.2633 52.2285C40.2633 59.8533 51.0482 57.9688 51.0482 59.8243C51.0482 60.5781 50.0045 60.868 48.9028 60.868C46.2935 60.868 44.1192 59.7663 42.6696 58.3747L39.6255 62.7235C41.6839 64.579 44.4961 65.7966 48.6129 65.7966Z" fill="#B6B5F9"/>
<path d="M77.2939 65.4487L69.669 55.0987L76.9749 46.1112H69.814L64.7404 53.3592V46.1112H58.8841V65.4487H64.7404V60.0852L65.8131 58.6356L70.1619 65.4487H77.2939Z" fill="#B6B5F9"/>
<path d="M86.7121 65.7966C92.6844 65.7966 97.2941 61.7378 97.2941 55.7945C97.2941 49.8512 92.6844 45.7923 86.7121 45.7923C80.7398 45.7923 76.1301 49.8512 76.1301 55.7945C76.1301 61.7378 80.7398 65.7966 86.7121 65.7966ZM86.7121 60.6361C83.8999 60.6361 82.0734 58.4907 82.0734 55.7945C82.0734 53.0982 83.8999 50.9528 86.7121 50.9528C89.5243 50.9528 91.3508 53.0982 91.3508 55.7945C91.3508 58.4907 89.5243 60.6361 86.7121 60.6361Z" fill="#B6B5F9"/>
<path d="M116.679 65.4487L113.171 58.6067C114.707 57.8529 116.65 56.0844 116.65 52.7503C116.65 49.1264 114.214 46.1112 109.692 46.1112H99.3706V65.4487H105.227V59.3604H107.343L110.011 65.4487H116.679ZM108.793 54.2579H105.227V51.2138H108.793C109.779 51.2138 110.706 51.6776 110.706 52.7213C110.706 53.794 109.779 54.2579 108.793 54.2579Z" fill="#B6B5F9"/>
<path d="M132.211 65.4487V60.3462H124.876V46.1112H119.019V65.4487H132.211Z" fill="#B6B5F9"/>
<path d="M140.419 65.4487V46.1112H134.563V65.4487H140.419Z" fill="#B6B5F9"/>
<path d="M149.394 65.4487V58.2298H158.005V53.1272H149.394V51.2138H158.207V46.1112H143.538V65.4487H149.394Z" fill="#B6B5F9"/>
<path d="M175.365 65.4487V60.3462H166.551V58.2298H175.162V53.1272H166.551V51.2138H175.365V46.1112H160.695V65.4487H175.365Z" fill="#B6B5F9"/>
<path d="M11.2278 62.7554L0 56.2452V63.1023C0.000539143 63.9467 0.22264 64.7759 0.643967 65.5067C1.06529 66.2376 1.67099 66.8442 2.40013 67.2656L12.1838 72.9391V64.4085C12.1813 64.0734 12.0918 63.7446 11.9242 63.4548C11.7565 63.1649 11.5165 62.9239 11.2278 62.7554Z" fill="#B6B5F9"/>
<path d="M13.8517 49.3878C13.3444 49.0944 12.9231 48.6721 12.6303 48.1633C12.3375 47.6546 12.1835 47.0773 12.1838 46.4898V38.0205L2.40017 43.6939C1.67102 44.1153 1.06533 44.722 0.644005 45.4528C0.222679 46.1836 0.000577341 47.0129 3.81978e-05 47.8572V52.7755C-0.00277799 53.3635 0.150173 53.9418 0.443237 54.4509C0.736301 54.9601 1.15895 55.3821 1.66793 55.6735L11.9804 61.6531C12.4589 61.9296 12.8558 62.3282 13.1309 62.8086C13.4061 63.2889 13.5494 63.8338 13.5465 64.3878V73L23.3301 67.3266C24.0593 66.9051 24.665 66.2985 25.0863 65.5676C25.5076 64.8369 25.7298 64.0076 25.7303 63.1633V58.2449C25.7331 57.6569 25.5801 57.0787 25.2871 56.5695C24.9941 56.0603 24.5714 55.6384 24.0624 55.347L13.8517 49.3878Z" fill="#B6B5F9"/>
<path d="M14.5022 48.1837L25.73 54.6938V47.8367C25.7294 46.9924 25.5073 46.1632 25.086 45.4324C24.6646 44.7015 24.0589 44.0949 23.3298 43.6734L13.5462 38V46.5102C13.5459 46.8486 13.6341 47.1812 13.8018 47.4748C13.9695 47.7684 14.211 48.0128 14.5022 48.1837Z" fill="#B6B5F9"/>
</svg>
