<svg width="1113" height="241" viewBox="0 0 1113 241" fill="none" xmlns="http://www.w3.org/2000/svg">
<path d="M210.227 193.572V227.518H205.888V202.25L194.658 227.518H191.595L180.364 202.25V227.518H176.025V193.827H180.875L193.381 221.648L205.888 193.827H210.227V193.572ZM216.097 213.991C216.097 211.183 216.608 208.886 217.884 206.844C218.905 204.802 220.437 203.271 222.478 201.995C224.52 200.974 226.562 200.208 228.859 200.208C231.156 200.208 233.198 200.719 234.985 201.74C236.772 202.76 238.048 204.037 238.814 205.568V200.719H243.408V227.518H238.814V222.414C238.048 223.945 236.516 225.221 234.985 226.242C233.198 227.263 231.156 227.774 228.859 227.774C226.562 227.774 224.265 227.263 222.478 225.987C220.437 224.711 219.16 223.179 217.884 221.138C216.608 219.096 216.097 216.543 216.097 213.991ZM238.558 213.991C238.558 211.949 238.048 210.162 237.282 208.631C236.516 207.1 235.24 206.079 233.964 205.313C232.688 204.547 231.156 204.037 229.37 204.037C227.583 204.037 226.307 204.547 224.776 205.313C223.499 206.079 222.223 207.355 221.457 208.631C220.692 210.162 220.181 211.949 220.181 213.991C220.181 216.033 220.692 217.819 221.457 219.351C222.223 220.882 223.244 221.903 224.776 222.924C226.052 223.69 227.583 224.2 229.37 224.2C231.156 224.2 232.433 223.69 233.964 222.924C235.24 222.158 236.516 220.882 237.282 219.351C238.303 217.819 238.558 216.033 238.558 213.991ZM265.613 227.518L255.149 215.778V227.518H250.81V191.275H255.149V212.459L265.358 200.719H271.484L258.977 213.991L271.739 227.518H265.613V227.518ZM278.12 196.38C277.354 196.38 276.588 196.124 276.078 195.614C275.568 195.103 275.312 194.338 275.312 193.572C275.312 192.806 275.568 192.041 276.078 191.53C276.588 191.02 277.354 190.764 278.12 190.764C278.886 190.764 279.651 191.02 280.162 191.53C280.672 192.041 280.927 192.806 280.927 193.572C280.927 194.338 280.672 195.103 280.162 195.614C279.651 196.124 278.886 196.38 278.12 196.38ZM280.162 200.719V227.518H275.823V200.719H280.162ZM300.836 200.208C304.154 200.208 306.706 201.229 308.748 203.271C310.79 205.313 311.811 208.12 311.811 211.694V227.518H307.472V212.204C307.472 209.652 306.706 207.61 305.43 206.079C304.154 204.547 302.367 204.037 300.07 204.037C297.773 204.037 295.731 204.802 294.455 206.334C293.179 207.865 292.413 209.907 292.413 212.715V227.518H288.074V200.719H292.413V204.547C293.179 203.271 294.455 202.25 295.986 201.484C297.263 200.463 299.049 200.208 300.836 200.208ZM329.933 200.208C332.23 200.208 334.272 200.719 336.058 201.74C337.845 202.76 339.121 204.037 339.887 205.568V200.719H344.481V228.029C344.481 230.581 343.971 232.623 342.95 234.41C341.929 236.452 340.398 237.728 338.356 239.004C336.314 240.025 334.272 240.535 331.719 240.535C328.146 240.535 325.339 239.77 323.041 237.983C320.744 236.196 319.213 234.155 318.958 231.092H323.297C323.807 232.623 324.828 233.899 326.36 234.92C327.891 235.941 329.678 236.452 331.975 236.452C334.527 236.452 336.314 235.686 337.845 234.155C339.377 232.623 340.142 230.581 340.142 227.774V222.414C339.377 223.945 337.845 225.221 336.314 226.242C334.527 227.263 332.485 227.774 330.188 227.774C327.891 227.774 325.594 227.263 323.807 225.987C321.765 224.711 320.489 223.179 319.213 221.138C318.192 219.096 317.426 216.543 317.426 213.991C317.426 211.183 317.937 208.886 319.213 206.844C320.234 204.802 321.765 203.271 323.807 201.995C325.594 200.719 327.636 200.208 329.933 200.208ZM339.887 213.991C339.887 211.949 339.377 210.162 338.611 208.631C337.845 207.1 336.569 206.079 335.293 205.313C334.017 204.547 332.485 204.037 330.699 204.037C328.912 204.037 327.636 204.547 326.104 205.313C324.828 206.079 323.552 207.355 322.786 208.631C322.021 210.162 321.51 211.949 321.51 213.991C321.51 216.033 322.021 217.819 322.786 219.351C323.552 220.882 324.573 221.903 326.104 222.924C327.38 223.69 328.912 224.2 330.699 224.2C332.485 224.2 333.761 223.69 335.293 222.924C336.569 222.158 337.845 220.882 338.611 219.351C339.632 217.819 339.887 216.033 339.887 213.991ZM383.022 227.518L374.854 213.48H369.494V227.518H365.155V193.572H376.131C378.683 193.572 380.98 194.082 382.512 194.848C384.298 195.614 385.574 196.89 386.595 198.421C387.361 199.953 387.871 201.74 387.871 203.526C387.871 205.823 387.106 207.865 385.83 209.652C384.553 211.439 382.512 212.715 379.704 213.225L388.127 227.518H383.022ZM369.494 209.907H376.131C378.428 209.907 380.47 209.397 381.491 208.12C382.767 206.844 383.277 205.313 383.277 203.271C383.277 201.229 382.767 199.698 381.491 198.677C380.214 197.656 378.428 196.89 376.131 196.89H369.494V209.907ZM419.01 212.97C419.01 213.736 419.01 214.757 418.755 215.778H397.315C397.57 218.33 398.336 220.372 400.123 221.903C401.909 223.435 403.696 224.2 406.248 224.2C408.29 224.2 409.822 223.69 411.098 222.924C412.374 221.903 413.395 220.882 413.906 219.351H418.755C417.989 221.903 416.713 223.945 414.416 225.732C412.374 227.263 409.567 228.029 406.504 228.029C403.951 228.029 401.654 227.518 399.612 226.242C397.57 225.221 396.039 223.435 395.018 221.393C393.997 219.351 393.231 216.798 393.231 213.991C393.231 211.183 393.742 208.886 395.018 206.844C396.039 204.802 397.57 203.271 399.612 201.995C401.654 200.974 403.951 200.208 406.504 200.208C409.056 200.208 411.353 200.719 413.14 201.995C415.182 203.016 416.713 204.547 417.734 206.589C418.5 208.376 419.01 210.673 419.01 212.97ZM414.416 212.204C414.416 210.418 414.161 209.141 413.395 207.865C412.629 206.589 411.608 205.823 410.332 205.058C409.056 204.292 407.525 204.037 405.993 204.037C403.696 204.037 401.909 204.802 400.123 206.079C398.591 207.61 397.57 209.397 397.315 211.949H414.416V212.204ZM434.58 227.774C432.538 227.774 430.751 227.518 428.965 226.753C427.433 225.987 426.157 224.966 425.136 223.945C424.115 222.669 423.605 221.137 423.605 219.606H428.199C428.454 220.882 428.964 221.903 429.985 222.924C431.006 223.69 432.538 224.2 434.324 224.2C436.111 224.2 437.387 223.945 438.408 223.179C439.429 222.414 439.94 221.393 439.94 220.372C439.94 219.096 439.429 218.33 438.408 217.819C437.387 217.309 435.856 216.543 433.559 216.033C431.517 215.522 429.985 215.012 428.709 214.501C427.433 213.991 426.412 213.225 425.391 212.204C424.625 211.183 424.115 209.652 424.115 208.12C424.115 206.844 424.625 205.568 425.391 204.292C426.157 203.271 427.433 202.25 428.965 201.484C430.496 200.719 432.283 200.463 434.069 200.463C437.132 200.463 439.429 201.229 441.216 202.76C443.003 204.292 444.023 206.334 444.023 208.886H439.684C439.684 207.61 438.919 206.334 437.898 205.568C436.877 204.802 435.601 204.292 433.814 204.292C432.283 204.292 431.006 204.547 429.985 205.313C428.964 206.079 428.454 206.844 428.454 208.12C428.454 208.886 428.709 209.652 429.22 210.418C429.73 210.928 430.496 211.439 431.262 211.694C432.027 211.949 433.304 212.459 434.835 212.715C436.877 213.225 438.408 213.736 439.429 214.246C440.705 214.757 441.726 215.522 442.492 216.543C443.258 217.564 443.768 218.84 443.768 220.372C443.768 221.903 443.258 223.179 442.492 224.2C441.726 225.477 440.45 226.242 438.919 227.008C438.153 227.518 436.366 227.774 434.58 227.774ZM456.02 204.292V220.117C456.02 221.393 456.275 222.414 456.785 222.924C457.296 223.435 458.317 223.69 459.593 223.69H462.911V227.518H458.827C456.275 227.518 454.488 227.008 453.212 225.732C451.936 224.711 451.425 222.669 451.425 220.117V204.292H447.852V200.719H451.425V194.082H455.764V200.719H462.656V204.292H456.02V204.292ZM466.739 213.991C466.739 211.183 467.25 208.886 468.526 206.844C469.547 204.802 471.078 203.271 473.12 201.995C475.162 200.974 477.204 200.208 479.501 200.208C481.798 200.208 483.84 200.719 485.627 201.74C487.414 202.76 488.69 204.037 489.455 205.568V200.719H494.05V227.518H489.455V222.414C488.69 223.945 487.158 225.221 485.627 226.242C483.84 227.263 481.798 227.774 479.501 227.774C477.204 227.774 474.907 227.263 473.12 225.987C471.078 224.711 469.802 223.179 468.526 221.138C467.25 219.096 466.739 216.543 466.739 213.991ZM489.2 213.991C489.2 211.949 488.69 210.162 487.924 208.631C487.158 207.1 485.882 206.079 484.606 205.313C483.33 204.547 481.798 204.037 480.012 204.037C478.225 204.037 476.949 204.547 475.417 205.313C474.141 206.079 472.865 207.355 472.099 208.631C471.334 210.162 470.823 211.949 470.823 213.991C470.823 216.033 471.334 217.819 472.099 219.351C472.865 220.882 473.886 221.903 475.417 222.924C476.694 223.69 478.225 224.2 480.012 224.2C481.798 224.2 483.075 223.69 484.606 222.924C485.882 222.158 487.158 220.882 487.924 219.351C488.945 217.819 489.2 216.033 489.2 213.991ZM524.933 200.719V227.518H520.594V223.69C519.829 224.966 518.552 226.242 517.021 227.008C515.49 227.774 513.958 228.029 511.916 228.029C509.874 228.029 508.088 227.518 506.301 226.753C504.514 225.987 503.238 224.456 502.473 222.924C501.452 221.137 500.941 219.096 500.941 216.543V200.974H505.28V216.033C505.28 218.585 506.046 220.627 507.322 222.158C508.598 223.435 510.385 224.2 512.682 224.2C514.979 224.2 517.021 223.435 518.297 221.903C519.573 220.372 520.339 218.33 520.339 215.522V200.719H524.933V200.719ZM536.929 205.058C537.695 203.526 538.716 202.25 540.247 201.484C541.779 200.719 543.566 200.208 545.607 200.208V204.802H544.331C539.227 204.802 536.929 207.61 536.929 212.97V227.518H532.59V200.719H536.929V205.058ZM548.926 213.991C548.926 211.183 549.436 208.886 550.712 206.844C551.733 204.802 553.265 203.271 555.306 201.995C557.348 200.974 559.39 200.208 561.687 200.208C563.984 200.208 566.026 200.719 567.813 201.74C569.6 202.76 570.876 204.037 571.642 205.568V200.719H576.236V227.518H571.642V222.414C570.876 223.945 569.344 225.221 567.813 226.242C566.026 227.263 563.984 227.774 561.687 227.774C559.39 227.774 557.093 227.263 555.306 225.987C553.265 224.711 551.988 223.179 550.712 221.138C549.691 219.096 548.926 216.543 548.926 213.991ZM571.642 213.991C571.642 211.949 571.131 210.162 570.365 208.631C569.6 207.1 568.323 206.079 567.047 205.313C565.771 204.547 564.24 204.037 562.453 204.037C560.666 204.037 559.39 204.547 557.859 205.313C556.583 206.079 555.306 207.355 554.541 208.631C553.775 210.162 553.265 211.949 553.265 213.991C553.265 216.033 553.775 217.819 554.541 219.351C555.306 220.882 556.327 221.903 557.859 222.924C559.135 223.69 560.666 224.2 562.453 224.2C564.24 224.2 565.516 223.69 567.047 222.924C568.323 222.158 569.6 220.882 570.365 219.351C571.386 217.819 571.642 216.033 571.642 213.991ZM596.655 200.208C599.973 200.208 602.525 201.229 604.567 203.271C606.609 205.313 607.63 208.12 607.63 211.694V227.518H603.291V212.204C603.291 209.652 602.525 207.61 601.249 206.079C599.973 204.547 598.186 204.037 595.889 204.037C593.592 204.037 591.55 204.802 590.274 206.334C588.998 207.865 588.232 209.907 588.232 212.715V227.518H583.893V200.719H588.232V204.547C588.998 203.271 590.274 202.25 591.805 201.484C593.337 200.463 594.868 200.208 596.655 200.208ZM620.392 204.292V220.117C620.392 221.393 620.647 222.414 621.157 222.924C621.668 223.435 622.689 223.69 623.965 223.69H627.283V227.518H623.199C620.647 227.518 618.86 227.008 617.584 225.732C616.308 224.711 615.797 222.669 615.797 220.117V204.292H612.224V200.719H615.797V194.082H620.136V200.719H627.028V204.292H620.392V204.292ZM642.087 227.774C640.045 227.774 638.258 227.518 636.472 226.753C634.94 225.987 633.664 224.966 632.643 223.945C631.622 222.669 631.112 221.137 631.112 219.606H635.706C635.961 220.882 636.472 221.903 637.492 222.924C638.513 223.69 640.045 224.2 641.832 224.2C643.618 224.2 644.894 223.945 645.915 223.179C646.936 222.414 647.447 221.393 647.447 220.372C647.447 219.096 646.936 218.33 645.915 217.819C644.894 217.309 643.363 216.543 641.066 216.033C639.024 215.522 637.492 215.012 636.216 214.501C634.94 213.991 633.919 213.225 632.898 212.204C632.133 211.183 631.622 209.652 631.622 208.12C631.622 206.844 632.133 205.568 632.898 204.292C633.664 203.271 634.94 202.25 636.472 201.484C638.003 200.719 639.79 200.463 641.576 200.463C644.639 200.463 646.936 201.229 648.723 202.76C650.51 204.292 651.53 206.334 651.53 208.886H647.191C647.191 207.61 646.426 206.334 645.405 205.568C644.384 204.802 643.108 204.292 641.321 204.292C639.79 204.292 638.513 204.547 637.492 205.313C636.472 206.079 635.961 206.844 635.961 208.12C635.961 208.886 636.216 209.652 636.727 210.418C637.237 210.928 638.003 211.439 638.769 211.694C639.534 211.949 640.811 212.459 642.342 212.715C644.384 213.225 645.915 213.736 646.936 214.246C648.212 214.757 649.233 215.522 649.999 216.543C650.765 217.564 651.275 218.84 651.275 220.372C651.275 221.903 650.765 223.179 649.999 224.2C649.233 225.477 647.957 226.242 646.426 227.008C645.66 227.518 644.129 227.774 642.087 227.774ZM693.9 203.271C693.9 206.079 692.879 208.376 691.092 210.418C689.05 212.204 686.243 213.225 682.159 213.225H675.523V227.518H671.184V193.572H682.159C685.987 193.572 688.795 194.593 690.837 196.38C692.879 197.911 693.9 200.463 693.9 203.271ZM682.159 209.652C684.711 209.652 686.498 209.141 687.519 208.12C688.795 207.099 689.305 205.568 689.305 203.526C689.305 199.442 687.008 197.145 682.159 197.145H675.523V209.652H682.159ZM703.854 205.058C704.62 203.526 705.641 202.25 707.172 201.484C708.703 200.719 710.49 200.208 712.532 200.208V204.802H711.256C706.151 204.802 703.854 207.61 703.854 212.97V227.518H699.515V200.719H703.854V205.058V205.058ZM729.378 227.774C726.825 227.774 724.528 227.263 722.486 225.987C720.444 224.966 718.913 223.179 717.637 221.138C716.616 219.096 715.85 216.543 715.85 213.736C715.85 210.928 716.36 208.631 717.637 206.589C718.913 204.547 720.444 202.76 722.486 201.74C724.528 200.719 726.825 199.953 729.378 199.953C731.93 199.953 734.227 200.463 736.269 201.74C738.311 202.76 739.842 204.547 741.118 206.589C742.395 208.631 742.905 211.183 742.905 213.736C742.905 216.543 742.395 218.84 741.118 221.138C739.842 223.179 738.311 224.711 736.269 225.987C734.227 227.263 731.93 227.774 729.378 227.774ZM729.378 223.945C730.909 223.945 732.44 223.69 733.972 222.924C735.248 222.158 736.524 221.137 737.29 219.606C738.056 218.075 738.566 216.288 738.566 214.246C738.566 212.204 738.056 210.162 737.29 208.886C736.524 207.355 735.248 206.334 733.972 205.568C732.696 204.802 731.164 204.547 729.633 204.547C728.101 204.547 726.57 204.802 725.038 205.568C723.762 206.334 722.741 207.355 721.72 208.886C720.955 210.418 720.444 212.204 720.444 214.246C720.444 216.543 720.955 218.33 721.72 219.861C722.486 221.393 723.507 222.414 725.038 223.179C726.315 223.69 727.846 223.945 729.378 223.945ZM758.474 227.774C756.433 227.774 754.646 227.518 752.859 226.753C751.328 225.987 750.052 224.966 749.031 223.945C748.01 222.669 747.499 221.137 747.499 219.606H752.094C752.349 220.882 752.859 221.903 753.88 222.924C754.901 223.69 756.433 224.2 758.219 224.2C760.006 224.2 761.282 223.945 762.303 223.179C763.324 222.414 763.834 221.393 763.834 220.372C763.834 219.096 763.324 218.33 762.303 217.819C761.282 217.309 759.751 216.543 757.454 216.033C755.412 215.522 753.88 215.012 752.604 214.501C751.328 213.991 750.307 213.225 749.286 212.204C748.52 211.183 748.01 209.652 748.01 208.12C748.01 206.844 748.52 205.568 749.286 204.292C750.052 203.271 751.328 202.25 752.859 201.484C754.391 200.719 756.177 200.463 757.964 200.463C761.027 200.463 763.324 201.229 765.111 202.76C766.897 204.292 767.918 206.334 767.918 208.886H763.579C763.579 207.61 762.814 206.334 761.793 205.568C760.772 204.802 759.495 204.292 757.709 204.292C756.177 204.292 754.901 204.547 753.88 205.313C752.859 206.079 752.349 206.844 752.349 208.12C752.349 208.886 752.604 209.652 753.114 210.418C753.625 210.928 754.391 211.439 755.156 211.694C755.922 211.949 757.198 212.459 758.73 212.715C760.772 213.225 762.303 213.736 763.324 214.246C764.6 214.757 765.621 215.522 766.387 216.543C767.152 217.564 767.663 218.84 767.663 220.372C767.663 221.903 767.152 223.179 766.387 224.2C765.621 225.477 764.345 226.242 762.813 227.008C762.048 227.518 760.261 227.774 758.474 227.774ZM778.893 205.568C779.659 204.037 781.19 202.76 782.722 201.74C784.509 200.719 786.55 200.208 788.848 200.208C791.145 200.208 793.442 200.719 795.228 201.995C797.27 203.016 798.802 204.802 799.823 206.844C800.844 208.886 801.609 211.183 801.609 213.991C801.609 216.798 801.099 219.096 799.823 221.138C798.802 223.179 797.27 224.966 795.228 225.987C793.187 227.263 791.145 227.774 788.848 227.774C786.55 227.774 784.509 227.263 782.722 226.242C780.935 225.221 779.659 223.945 778.893 222.414V240.025H774.554V200.463H778.893V205.568ZM797.015 213.991C797.015 211.949 796.505 210.162 795.739 208.631C794.973 207.1 793.697 206.079 792.421 205.313C791.145 204.547 789.613 204.037 787.827 204.037C786.295 204.037 784.764 204.547 783.232 205.313C781.956 206.079 780.68 207.355 779.914 208.886C779.149 210.418 778.638 212.204 778.638 213.991C778.638 216.033 779.149 217.819 779.914 219.351C780.68 220.882 781.956 221.903 783.232 222.924C784.509 223.69 786.04 224.2 787.827 224.2C789.613 224.2 790.889 223.69 792.421 222.924C793.697 222.158 794.973 220.882 795.739 219.351C796.505 217.819 797.015 216.033 797.015 213.991ZM831.727 212.97C831.727 213.736 831.727 214.757 831.472 215.778H810.032C810.287 218.33 811.053 220.372 812.84 221.903C814.626 223.435 816.413 224.2 818.965 224.2C821.007 224.2 822.539 223.69 823.815 222.924C825.091 221.903 826.112 220.882 826.623 219.351H831.472C830.706 221.903 829.43 223.945 827.133 225.732C825.091 227.263 822.284 228.029 819.221 228.029C816.668 228.029 814.371 227.518 812.329 226.242C810.287 225.221 808.756 223.435 807.735 221.393C806.714 219.351 805.948 216.798 805.948 213.991C805.948 211.183 806.459 208.886 807.735 206.844C808.756 204.802 810.287 203.271 812.329 201.995C814.371 200.974 816.668 200.208 819.221 200.208C821.773 200.208 824.07 200.719 825.857 201.995C827.899 203.016 829.43 204.547 830.451 206.589C831.217 208.376 831.727 210.673 831.727 212.97ZM827.133 212.204C827.133 210.418 826.878 209.141 826.112 207.865C825.346 206.589 824.325 205.823 823.049 205.058C821.773 204.292 820.242 204.037 818.71 204.037C816.413 204.037 814.626 204.802 812.84 206.079C811.308 207.61 810.287 209.397 810.032 211.949H827.133V212.204ZM842.192 205.058C842.958 203.526 843.979 202.25 845.51 201.484C847.041 200.719 848.828 200.208 850.87 200.208V204.802H849.594C844.489 204.802 842.192 207.61 842.192 212.97V227.518H837.853V200.719H842.192V205.058V205.058ZM867.46 227.774C864.908 227.774 862.611 227.263 860.569 225.987C858.527 224.966 856.996 223.179 855.719 221.138C854.698 219.096 853.933 216.543 853.933 213.736C853.933 210.928 854.443 208.631 855.719 206.589C856.996 204.547 858.527 202.76 860.569 201.74C862.611 200.719 864.908 199.953 867.46 199.953C870.013 199.953 872.31 200.463 874.352 201.74C876.394 202.76 877.925 204.547 879.201 206.589C880.477 208.631 880.988 211.183 880.988 213.736C880.988 216.543 880.477 218.84 879.201 221.138C877.925 223.179 876.394 224.711 874.352 225.987C872.31 227.263 870.013 227.774 867.46 227.774ZM867.46 223.945C868.992 223.945 870.523 223.69 872.055 222.924C873.331 222.158 874.607 221.137 875.373 219.606C876.138 218.075 876.649 216.288 876.649 214.246C876.649 212.204 876.138 210.162 875.373 208.886C874.607 207.355 873.331 206.334 872.055 205.568C870.778 204.802 869.247 204.547 867.716 204.547C866.184 204.547 864.653 204.802 863.121 205.568C861.845 206.334 860.824 207.355 859.803 208.886C859.038 210.418 858.527 212.204 858.527 214.246C858.527 216.543 859.038 218.33 859.803 219.861C860.569 221.393 861.59 222.414 863.121 223.179C864.398 223.69 865.929 223.945 867.46 223.945ZM910.851 200.719V227.518H906.511V223.69C905.746 224.966 904.47 226.242 902.938 227.008C901.407 227.774 899.875 228.029 897.833 228.029C895.792 228.029 894.005 227.518 892.218 226.753C890.432 225.987 889.155 224.456 888.39 222.924C887.369 221.137 886.858 219.096 886.858 216.543V200.974H891.197V216.033C891.197 218.585 891.963 220.627 893.239 222.158C894.515 223.435 896.302 224.2 898.599 224.2C900.896 224.2 902.938 223.435 904.214 221.903C905.49 220.372 906.256 218.33 906.256 215.522V200.719H910.851V200.719ZM927.696 227.774C925.654 227.774 923.867 227.518 922.081 226.753C920.549 225.987 919.273 224.966 918.252 223.945C917.231 222.669 916.721 221.137 916.721 219.606H921.315C921.57 220.882 922.081 221.903 923.102 222.924C924.123 223.69 925.654 224.2 927.441 224.2C929.228 224.2 930.504 223.945 931.525 223.179C932.546 222.414 933.056 221.393 933.056 220.372C933.056 219.096 932.546 218.33 931.525 217.819C930.504 217.309 928.972 216.543 926.675 216.033C924.633 215.522 923.102 215.012 921.826 214.501C920.549 213.991 919.529 213.225 918.508 212.204C917.742 211.183 917.231 209.652 917.231 208.12C917.231 206.844 917.742 205.568 918.508 204.292C919.273 203.016 920.549 202.25 922.081 201.484C923.612 200.719 925.399 200.463 927.186 200.463C930.248 200.463 932.545 201.229 934.332 202.76C936.119 204.292 937.14 206.334 937.14 208.886H932.801C932.801 207.61 932.035 206.334 931.014 205.568C929.993 204.802 928.717 204.292 926.93 204.292C925.399 204.292 924.123 204.547 923.102 205.313C922.081 206.079 921.57 206.844 921.57 208.12C921.57 208.886 921.826 209.652 922.336 210.418C922.847 210.928 923.612 211.439 924.378 211.694C925.144 211.949 926.42 212.459 927.951 212.715C929.993 213.225 931.525 213.736 932.546 214.246C933.822 214.757 934.843 215.522 935.608 216.543C936.374 217.564 936.885 218.84 936.885 220.372C936.885 221.903 936.374 223.179 935.608 224.2C934.843 225.477 933.567 226.242 932.035 227.008C931.525 227.518 929.738 227.774 927.696 227.774Z" fill="#303030"/>
<mask id="mask0_1132_61996" style="mask-type:alpha" maskUnits="userSpaceOnUse" x="462" y="34" width="124" height="124">
<path fill-rule="evenodd" clip-rule="evenodd" d="M486.393 47.2582L502.002 62.0747C508.337 57.9391 515.902 55.5322 524.031 55.5322C546.315 55.5322 564.379 73.5959 564.379 95.8803C564.379 103.257 562.398 110.172 558.94 116.124L574.549 130.94C581.463 120.995 585.522 108.914 585.522 95.8832C585.522 61.9243 557.993 34.3916 524.031 34.3916C509.85 34.3916 496.793 39.1942 486.393 47.2582ZM560.712 145.238C550.474 152.862 537.78 157.372 524.034 157.372C490.075 157.372 462.545 129.842 462.545 95.8803C462.545 83.2834 466.337 71.5692 472.837 61.8193L488.522 76.7096C485.437 82.412 483.685 88.9404 483.685 95.8803C483.685 118.165 501.749 136.228 524.034 136.228C531.723 136.228 538.91 134.077 545.024 130.344L560.712 145.235V145.238Z" fill="black"/>
</mask>
<g mask="url(#mask0_1132_61996)">
<path d="M471.419 101.312C484.007 101.312 494.212 91.184 494.212 78.6901C494.212 66.1962 484.007 56.0679 471.419 56.0679C458.831 56.0679 448.627 66.1962 448.627 78.6901C448.627 91.184 458.831 101.312 471.419 101.312Z" fill="#4C79BC"/>
<path d="M572.91 133.375C585.498 133.375 595.702 123.246 595.702 110.753C595.702 98.2587 585.498 88.1304 572.91 88.1304C560.322 88.1304 550.117 98.2587 550.117 110.753C550.117 123.246 560.322 133.375 572.91 133.375Z" fill="#FFC75A"/>
<path d="M570.337 103.64C582.925 103.64 593.13 93.5121 593.13 81.0182C593.13 68.5243 582.925 58.396 570.337 58.396C557.749 58.396 547.545 68.5243 547.545 81.0182C547.545 93.5121 557.749 103.64 570.337 103.64Z" fill="#F6926D"/>
<path d="M557.388 81.8487C569.976 81.8487 580.181 71.7204 580.181 59.2265C580.181 46.7326 569.976 36.6042 557.388 36.6042C544.8 36.6042 534.596 46.7326 534.596 59.2265C534.596 71.7204 544.8 81.8487 557.388 81.8487Z" fill="#F1668D"/>
<path d="M530.759 70.3553C543.347 70.3553 553.552 60.2269 553.552 47.733C553.552 35.2391 543.347 25.1108 530.759 25.1108C518.171 25.1108 507.967 35.2391 507.967 47.733C507.967 60.2269 518.171 70.3553 530.759 70.3553Z" fill="#CC59A1"/>
<path d="M502.41 67.7318C513.854 67.7318 523.13 58.5236 523.13 47.1646C523.13 35.8057 513.854 26.5974 502.41 26.5974C490.966 26.5974 481.689 35.8057 481.689 47.1646C481.689 58.5236 490.966 67.7318 502.41 67.7318Z" fill="#7A5BA7"/>
<path d="M477.373 135.185C489.961 135.185 500.165 125.056 500.165 112.562C500.165 100.068 489.961 89.9402 477.373 89.9402C464.785 89.9402 454.58 100.068 454.58 112.562C454.58 125.056 464.785 135.185 477.373 135.185Z" fill="#40B4E2"/>
<path d="M493.499 157.495C506.087 157.495 516.292 147.367 516.292 134.873C516.292 122.379 506.087 112.25 493.499 112.25C480.912 112.25 470.707 122.379 470.707 134.873C470.707 147.367 480.912 157.495 493.499 157.495Z" fill="#95CC77"/>
<path d="M517.867 172.294C530.455 172.294 540.659 162.166 540.659 149.672C540.659 137.178 530.455 127.05 517.867 127.05C505.279 127.05 495.074 137.178 495.074 149.672C495.074 162.166 505.279 172.294 517.867 172.294Z" fill="#00B18B"/>
<path d="M548.494 168.657C561.082 168.657 571.286 158.529 571.286 146.035C571.286 133.541 561.082 123.413 548.494 123.413C535.906 123.413 525.701 133.541 525.701 146.035C525.701 158.529 535.906 168.657 548.494 168.657Z" fill="#008C76"/>
</g>
<path d="M524.168 113.168C533.867 113.168 541.779 105.256 541.779 95.5571C541.779 85.8581 533.867 77.9458 524.168 77.9458C514.469 77.9458 506.557 85.8581 506.557 95.5571C506.302 105.256 514.214 113.168 524.168 113.168Z" fill="#303030"/>
<path d="M109.919 120.828C111.706 123.635 113.747 125.933 116.3 127.974C118.852 130.016 120.894 131.548 122.17 132.824C123.446 133.845 124.212 135.121 124.212 136.653V137.418C124.212 139.715 122.681 140.992 119.873 140.992H74.441C71.3782 140.992 70.102 139.715 70.102 137.418V136.653C70.102 135.376 70.8677 134.1 72.3991 132.314C73.9305 130.527 74.9515 128.995 75.462 127.719C76.2277 126.443 75.9724 123.891 74.6962 120.573L58.8716 91.2205L41.7708 91.4757V120.317C41.7708 123.38 43.047 126.443 45.8546 129.506C48.6622 132.569 50.1936 134.611 50.1936 136.142V136.908C50.1936 139.205 48.6622 140.481 45.8546 140.481H5.01675C1.95392 140.481 0.677734 139.205 0.677734 136.908V136.142C0.677734 134.611 1.95392 132.314 4.50628 129.506C7.05864 126.443 8.33482 123.38 8.33482 120.317V28.9428C8.33482 25.88 7.05864 22.8172 4.50628 19.7543C1.95392 16.6915 0.677734 14.3944 0.677734 12.8629V12.0973C0.677734 9.80013 2.20915 8.52393 5.01675 8.52393H55.0431C72.3991 8.52393 85.9266 12.0972 96.1361 19.2438C106.09 26.3905 111.195 36.8552 111.45 50.3827C111.45 57.5293 109.408 64.1654 105.58 70.5463C101.496 76.9272 95.8809 81.7767 88.2238 85.3501L109.919 120.828ZM41.7708 64.4207C41.7708 69.5254 42.7917 73.3539 44.5784 75.6511C46.6203 77.693 49.4279 78.7139 53.5116 78.7139H59.1268C63.9763 78.7139 68.0601 76.672 71.1229 72.8435C74.441 68.7597 75.9724 62.8893 75.9724 54.7217C75.9724 45.278 73.4201 37.3656 68.5706 31.24C63.7211 25.1143 58.3611 22.0515 52.2355 22.0515H48.9174C46.8755 22.0515 45.0888 23.0724 43.8127 24.8591C42.5365 26.6457 42.026 28.9428 42.026 31.7504V64.4207H41.7708ZM198.231 111.639C199.507 110.363 201.038 109.853 202.57 110.618C204.356 111.129 205.122 112.405 204.867 114.447C204.611 120.573 201.038 126.954 194.147 133.334C187.255 139.715 178.322 143.033 167.347 143.033C153.819 143.033 142.844 138.694 134.422 130.016C125.999 121.338 121.66 110.108 121.66 96.07C121.66 82.7977 125.999 71.8225 134.932 63.1445C143.865 54.4665 154.84 50.1274 167.347 50.1274C178.577 50.1274 187.255 52.6798 193.636 58.0398C199.762 63.1445 202.825 69.0149 202.825 75.6511C202.825 80.7558 200.528 84.5843 195.678 87.1367L158.669 107.811C163.774 115.978 170.92 119.807 179.854 119.807C183.682 119.807 187.255 119.041 190.574 117.51C193.892 115.978 196.699 114.192 198.231 111.639ZM164.029 59.316C160.2 59.316 157.393 61.1026 154.84 64.9312C152.543 68.7597 151.522 73.3539 151.522 78.9691C151.522 86.371 152.543 93.0071 154.33 98.3671L171.686 87.9024C175.004 85.6053 176.536 82.5425 176.536 78.4587C176.536 74.3749 175.515 70.2911 173.473 65.9521C171.176 61.3578 168.113 59.316 164.029 59.316ZM253.617 142.778C241.621 142.778 231.922 140.736 224.265 136.908C216.608 132.824 212.779 127.464 212.779 121.083C212.779 116.999 214.055 114.192 216.352 112.15C218.905 110.108 221.968 109.087 226.051 109.087C230.135 109.087 233.708 110.363 236.006 113.171C238.558 115.723 240.089 118.786 241.11 121.849C241.876 124.912 243.407 127.974 245.449 130.527C247.491 133.079 250.299 134.355 253.617 134.355C260.253 134.355 263.571 131.037 263.571 124.146C263.571 119.807 261.784 116.234 258.466 113.681C255.148 111.129 251.064 109.087 246.215 107.811C241.366 106.535 236.516 105.003 231.667 103.217C227.072 101.43 222.988 98.6223 219.415 94.5385C216.097 90.4548 214.31 85.0948 214.31 78.4587C214.31 70.2911 217.884 63.3997 225.286 58.295C232.687 52.935 241.876 50.3827 253.617 50.3827C265.102 50.3827 274.546 52.4246 281.693 56.7636C289.095 61.1026 292.668 66.4626 292.668 72.5882C292.668 75.9063 291.392 78.4587 288.839 80.7558C286.542 82.7977 283.479 83.8186 280.161 83.8186C276.078 83.8186 272.76 82.5424 270.462 79.9901C268.165 77.4377 266.379 74.6301 265.613 71.5673C264.847 68.2492 263.571 65.4416 261.784 62.8893C260.253 60.3369 257.956 59.0607 255.148 59.0607C252.341 59.0607 250.299 60.0816 248.767 62.1235C247.236 64.1654 246.47 66.7178 246.47 69.5254C246.47 74.1197 248.002 77.693 251.32 80.7558C254.638 83.5634 258.722 85.8605 263.316 87.1367C267.91 88.6681 272.76 90.1995 277.354 91.9862C281.948 93.7728 286.032 96.5804 289.35 100.409C292.668 104.238 294.455 109.342 294.455 115.723C294.455 123.635 290.881 130.272 283.48 135.376C275.822 140.226 266.123 142.778 253.617 142.778ZM341.418 143.033C331.974 143.033 324.573 139.971 319.213 134.1C313.853 128.23 311.3 119.807 311.3 108.577V64.6759H304.154C302.877 64.6759 301.856 64.4207 301.091 63.655C300.325 62.8893 300.07 61.6131 300.07 60.5921V56.5083C300.07 53.7007 301.601 52.1693 304.409 52.1693H307.982C313.597 52.1693 318.447 50.3827 322.531 47.0646C326.614 43.4913 329.167 38.897 330.443 33.2818C330.953 29.9638 332.74 28.4324 335.548 28.4324H339.887C343.205 28.4324 344.991 29.9638 344.991 33.2818V51.9141H364.134C365.41 51.9141 366.431 52.4246 367.197 53.1903C367.963 53.956 368.473 54.9769 368.473 56.2531V60.3369C368.473 61.6131 367.963 62.634 367.197 63.3997C366.431 64.1654 365.41 64.4207 364.134 64.4207H344.991V109.087C344.991 112.15 345.757 114.702 347.289 116.489C348.82 118.276 350.862 119.041 353.159 119.041C358.519 119.041 362.603 116.744 365.41 112.15C366.176 111.129 367.197 110.363 368.473 110.363C369.494 110.108 370.515 110.363 371.281 110.874C372.046 111.384 372.557 112.405 372.557 113.426C372.557 121.338 369.749 127.974 364.134 134.1C358.264 139.971 350.862 143.033 341.418 143.033ZM439.684 50.1274C445.044 50.1274 449.128 51.9141 452.191 55.2322C455.509 58.8055 457.04 63.1445 457.04 68.5044C457.04 80.2453 452.191 85.8605 442.747 85.8605C438.918 85.8605 436.111 85.0948 434.069 83.3082C432.027 81.5215 431.006 79.4796 430.496 77.1825C430.24 74.8854 429.73 73.0987 428.709 71.3121C427.688 69.5254 426.157 68.5044 424.37 68.5044C419.776 68.5044 417.479 74.3749 417.479 86.371V120.828C417.479 123.891 419.01 126.954 422.328 130.016C425.646 133.079 427.433 135.121 427.433 136.653V137.418C427.433 139.715 425.901 140.992 423.094 140.992H383.277C380.214 140.992 378.938 139.715 378.938 137.418V136.653C378.938 135.121 380.214 132.824 382.766 130.016C385.319 126.954 386.595 123.891 386.595 120.828V83.8186C386.595 81.2663 385.829 79.2244 384.298 77.4377C382.766 75.6511 381.235 74.1196 379.959 73.0987C378.427 71.8225 377.662 70.5463 377.662 69.0149V68.5044C377.662 66.4626 379.193 64.6759 382.001 63.1445L408.29 50.8932C410.842 50.1274 412.374 49.8722 413.395 50.6379C414.416 51.4036 414.926 52.6798 414.926 54.9769V68.5044C418.499 56.2531 426.922 50.1274 439.684 50.1274Z" fill="#303030"/>
<path d="M726.314 51.9141C729.122 51.9141 730.398 53.1903 730.398 55.4875V56.2531C730.398 58.0398 728.867 60.3369 725.549 63.3998C722.231 66.4626 720.189 69.2702 719.168 72.333L696.196 136.142C695.175 139.46 692.878 140.992 689.816 140.992H682.414C678.84 140.992 676.543 139.46 675.778 136.142L660.463 86.6263L645.149 136.142C644.383 139.46 642.086 140.992 638.768 140.992H633.664C630.601 140.992 628.559 139.46 627.027 136.142L600.738 72.333C599.717 69.5254 597.675 66.7178 594.868 63.655C592.315 60.5922 591.039 58.0398 591.039 56.2531V55.4875C591.039 53.1903 592.571 51.9141 595.378 51.9141H632.643C635.45 51.9141 636.726 53.1903 636.726 55.7427V56.5084C636.726 57.7846 635.961 59.0608 634.429 60.5922C632.898 61.8684 631.622 63.655 630.601 65.6969C629.835 67.4836 629.835 70.0359 630.856 72.8435L642.852 109.598L658.166 56.7636C658.932 53.956 660.463 52.6798 662.76 52.6798L673.991 52.4246C676.543 52.4246 678.075 53.7008 678.84 56.2531L693.899 109.087L705.385 75.9063C706.406 72.8435 706.661 70.2912 705.895 68.2493C705.13 65.9521 704.109 64.4207 702.833 63.1445C701.556 62.1236 700.28 60.8474 699.004 59.5712C697.728 58.295 697.217 57.2741 697.217 56.2531V55.4875C697.217 52.9351 698.749 51.6589 701.556 51.6589H726.314V51.9141ZM781.19 143.033C766.897 143.033 754.646 138.694 744.691 129.761C734.737 120.828 729.888 109.598 729.888 96.3252C729.888 83.053 734.737 72.0778 744.691 63.3998C754.646 54.7217 766.386 50.1275 779.914 50.1275C793.952 50.1275 805.948 54.4665 815.902 63.3998C825.856 72.0778 830.706 83.3082 830.706 96.8357C830.706 110.108 825.856 121.338 816.157 130.016C806.458 138.694 794.718 143.033 781.19 143.033ZM785.019 133.845C792.931 133.845 797.015 126.188 797.015 111.129C797.015 105.514 796.249 98.8776 794.718 91.2205C793.186 83.5634 790.634 76.4168 786.805 69.5254C783.232 62.6341 779.148 59.316 774.809 59.316C770.47 59.316 767.407 61.3579 765.621 65.1864C763.834 69.0149 762.813 74.8854 762.813 82.5425C762.813 86.6262 763.324 91.4757 764.345 97.0909C765.365 102.706 766.642 108.321 768.428 113.937C770.215 119.552 772.512 124.146 775.575 128.23C778.127 131.803 781.445 133.845 785.019 133.845ZM901.406 50.1275C906.766 50.1275 910.85 51.9141 913.913 55.2322C917.231 58.8055 918.762 63.1445 918.762 68.5045C918.762 80.2453 913.913 85.8605 904.469 85.8605C900.641 85.8605 897.833 85.0948 895.791 83.3082C893.749 81.5215 892.728 79.4797 892.218 77.1825C891.963 74.8854 891.452 73.0987 890.431 71.3121C889.41 69.5254 887.879 68.5045 886.092 68.5045C881.498 68.5045 879.201 74.3749 879.201 86.371V120.828C879.201 123.891 880.732 126.954 884.05 130.016C887.368 133.079 889.155 135.121 889.155 136.653V137.418C889.155 139.715 887.624 140.992 884.816 140.992H844.999C841.936 140.992 840.66 139.715 840.66 137.418V136.653C840.66 135.121 841.936 132.824 844.489 130.016C847.041 126.954 848.317 123.891 848.317 120.828V83.8186C848.317 81.2663 847.552 79.2244 846.02 77.4377C844.489 75.6511 842.957 74.1197 841.681 73.0987C840.15 71.8226 839.384 70.5464 839.384 69.0149V68.5045C839.384 66.4626 840.915 64.676 843.723 63.1445L870.012 50.8932C872.565 50.1275 874.096 49.8722 875.117 50.6379C876.138 51.4036 876.648 52.6798 876.648 54.9769V68.5045C880.222 56.2531 888.645 50.1275 901.406 50.1275ZM1022.13 125.422C1022.64 126.188 1024.69 127.975 1027.75 130.272C1031.07 132.569 1032.6 134.866 1032.6 136.653V137.418C1032.6 139.715 1031.07 140.992 1028.26 140.992H989.208C986.4 140.992 984.869 139.715 984.869 137.163V136.653C984.869 135.121 985.89 133.334 987.676 131.293C989.463 128.995 989.973 127.209 988.697 125.422L972.362 101.175L963.174 109.598V120.828C963.174 123.891 964.45 126.954 967.257 130.016C970.065 133.079 971.596 135.121 971.596 136.653V137.418C971.596 139.715 970.065 140.992 967.257 140.992H927.185C924.122 140.992 922.846 139.715 922.846 137.418V136.653C922.846 135.121 924.122 132.824 926.675 130.016C929.227 126.954 930.503 123.891 930.503 120.828V36.0895C930.503 32.7714 928.972 29.7086 926.164 26.901C923.101 23.8381 921.825 21.541 921.825 20.5201V19.7544C921.825 18.4782 923.101 16.9468 925.909 15.4153L955.516 1.63259C958.069 0.61165 960.111 0.611634 961.642 1.37734C963.174 2.14305 963.939 3.67448 963.939 5.46114V93.5176L988.952 72.0778C990.484 71.0569 990.994 69.7807 990.739 68.2493C990.484 66.7178 989.973 65.4417 988.952 64.4207C988.187 63.1445 987.166 61.8683 985.89 60.3369C984.869 58.8055 984.358 57.5293 984.358 56.5084V55.7427C984.358 53.1903 985.89 51.9141 988.697 51.9141H1018.05C1020.86 51.9141 1022.39 53.1903 1022.39 55.4875V56.2531C1022.39 57.7845 1021.62 59.316 1019.84 60.8474C1018.05 62.3788 1015.75 64.1655 1012.43 66.2074C1009.37 68.2493 1006.82 70.0359 1005.03 71.8226L993.036 82.7977L1022.13 125.422ZM1072.16 142.778C1060.16 142.778 1050.46 140.736 1042.81 136.908C1035.15 132.824 1031.32 127.464 1031.32 121.083C1031.32 116.999 1032.6 114.192 1034.89 112.15C1037.45 110.108 1040.51 109.087 1044.59 109.087C1048.68 109.087 1052.25 110.363 1054.55 113.171C1057.1 115.723 1058.63 118.786 1059.65 121.849C1060.42 124.912 1061.95 127.975 1063.99 130.527C1066.03 133.079 1068.84 134.355 1072.16 134.355C1078.8 134.355 1082.11 131.037 1082.11 124.146C1082.11 119.807 1080.33 116.234 1077.01 113.681C1073.69 111.129 1069.61 109.087 1064.76 107.811C1059.91 106.535 1055.06 105.003 1050.21 103.217C1045.61 101.43 1041.53 98.6223 1037.96 94.5386C1034.64 90.4548 1032.85 85.0949 1032.85 78.4587C1032.85 70.2912 1036.43 63.3998 1043.83 58.295C1051.23 52.9351 1060.42 50.3827 1072.16 50.3827C1083.64 50.3827 1093.09 52.4246 1100.24 56.7636C1107.64 61.1026 1111.21 66.4626 1111.21 72.5883C1111.21 75.9063 1109.93 78.4587 1107.38 80.7558C1105.08 82.7977 1102.02 83.8186 1098.7 83.8186C1094.62 83.8186 1091.3 82.5425 1089 79.9901C1086.71 77.4377 1084.92 74.6301 1084.16 71.5673C1083.39 68.2492 1082.11 65.4416 1080.33 62.8893C1078.8 60.3369 1076.5 59.0607 1073.69 59.0607C1070.88 59.0607 1068.84 60.0817 1067.31 62.1236C1065.78 64.1655 1065.01 66.7178 1065.01 69.5254C1065.01 74.1197 1066.54 77.693 1069.86 80.7558C1073.18 83.5634 1077.26 85.8605 1081.86 87.1367C1086.45 88.6681 1091.3 90.1995 1095.9 91.9862C1100.49 93.7729 1104.57 96.5805 1107.89 100.409C1111.21 104.238 1113 109.342 1113 115.723C1113 123.635 1109.42 130.272 1102.02 135.376C1094.62 140.226 1084.67 142.778 1072.16 142.778Z" fill="#303030"/>
</svg>
