<svg width="437" height="199" viewBox="0 0 437 199" fill="none" xmlns="http://www.w3.org/2000/svg">
<g clip-path="url(#clip0_1776_61762)">
<path d="M194.688 61.2292C194.688 56.18 191.955 54.4643 187.607 54.4643C183.456 54.4643 181.332 56.5838 179.814 58.2996V88.3868H161.602V21.0459H179.814V45.1807C182.647 41.95 188.011 38.4158 196.611 38.4158C207.943 38.4158 212.895 45.0804 212.895 53.561V88.3868H194.695L194.688 61.2292Z" fill="#003777"/>
<path d="M246.795 83.7422C244.062 87.1761 238.094 89.6111 232.024 89.6111C224.739 89.6111 215.227 84.6646 215.227 73.5578C215.227 61.4426 224.739 58.5154 232.024 58.5154C238.396 58.5154 244.165 60.5346 246.795 63.8657V58.3075C246.795 54.876 243.657 52.2499 237.694 52.2499C233.144 52.2499 227.981 54.0683 224.135 56.9956L217.964 45.7884C224.54 40.5313 233.647 38.4189 241.033 38.4189C253.174 38.4189 265.012 42.6605 265.012 58.9144V88.3876H246.811L246.795 83.7422ZM246.795 72.4347C245.58 70.719 242.443 69.8062 239.61 69.8062C236.576 69.8062 233.238 70.8146 233.238 73.8446C233.238 76.8746 236.576 77.7826 239.61 77.7826C242.443 77.7826 245.58 76.8722 246.795 75.1541V72.4347Z" fill="#003777"/>
<path d="M268.277 106.964V39.6227H286.478V44.7722C290.422 40.1269 295.178 38.4111 300.238 38.4111C312.38 38.4111 321.688 47.2956 321.688 63.9534C321.688 80.714 312.38 89.5985 300.238 89.5985C295.178 89.5985 290.525 87.8827 286.478 83.2374V106.964H268.277ZM293.976 54.4644C291.648 54.4644 288.209 55.6759 286.49 57.7955V70.2213C288.109 72.2405 291.648 73.5524 293.976 73.5524C298.832 73.5524 303.076 70.121 303.076 63.9606C303.083 57.8958 298.832 54.4644 293.976 54.4644Z" fill="#003777"/>
<path d="M330.165 74.2533V55.3755H322.07V39.6234H330.165V26.2871H348.365V39.6138H358.279V55.3636H348.365V68.9842C348.365 71.5076 349.984 73.5245 352.412 73.5245C354.031 73.5245 355.65 73.0203 356.055 72.6164L359.292 86.347C357.377 88.0627 353.121 89.5777 346.947 89.5777C336.135 89.6111 330.165 84.4496 330.165 74.2533Z" fill="#003777"/>
<path d="M360.941 24.3746C360.942 22.3581 361.542 20.387 362.665 18.7105C363.788 17.034 365.384 15.7275 367.251 14.9561C369.118 14.1848 371.173 13.9832 373.155 14.3769C375.137 14.7706 376.958 15.7419 378.386 17.168C379.815 18.594 380.788 20.4109 381.182 22.3887C381.576 24.3665 381.374 26.4166 380.6 28.2796C379.827 30.1426 378.517 31.7349 376.837 32.8552C375.156 33.9755 373.181 34.5734 371.16 34.5734C369.817 34.5772 368.486 34.316 367.244 33.8047C366.003 33.2935 364.875 32.5424 363.925 31.5945C362.975 30.6467 362.223 29.5209 361.711 28.2818C361.199 27.0428 360.937 25.7149 360.941 24.3746ZM362.053 39.6202H380.253V88.3869H362.053V39.6202Z" fill="#003777"/>
<path d="M406.246 72.6442L402.704 77.39V88.394H384.504V21.0459H402.704V56.9877L413.936 39.6225H435.891L419.092 61.8338L437 88.3868H414.64L406.246 72.6442Z" fill="#003777"/>
<path d="M136.591 154.679C137.108 154.068 137.664 153.484 138.219 152.916C139.268 151.845 140.257 150.722 141.234 149.594C142.03 148.737 142.766 147.827 143.438 146.87C143.94 146.179 144.48 145.515 145.054 144.882C146.97 142.543 148.725 140.081 150.409 137.572C151.882 135.379 153.369 133.194 154.671 130.881C155.49 129.431 156.367 128.014 157.164 126.549C157.797 125.392 158.398 124.214 159.001 123.041C160.151 120.809 161.288 118.57 162.301 116.276C163.554 113.435 164.763 110.575 165.848 107.674C167.388 106.747 169.107 106.276 170.796 105.733C172.236 105.268 173.707 104.901 175.197 104.634C176.011 104.493 176.835 104.395 177.649 104.278C177.649 104.278 179.824 104.142 181.876 104.226C182.948 104.298 184.005 104.516 185.018 104.873C186.373 105.316 187.614 106.05 188.653 107.024C189.52 107.865 190.217 108.814 190.521 110.013C190.521 110.013 190.835 111.535 190.351 112.682C190.035 113.578 189.595 114.425 189.044 115.199C187.717 117.213 185.88 118.69 183.969 120.097C182.532 121.158 180.94 122.009 179.448 122.991C176.646 124.845 173.712 126.492 170.932 128.384C169.656 129.249 168.319 130.033 167.084 130.953C164.116 133.151 161.018 135.161 158.089 137.405C157.358 137.964 156.585 138.473 155.876 139.056C154.238 140.401 152.499 141.615 150.847 142.944C149.889 143.723 148.931 144.514 148.031 145.372C146.378 146.961 144.747 148.571 143.167 150.227C141.744 151.719 140.336 153.231 139.043 154.83C137.537 156.689 135.959 158.488 134.445 160.34C133.248 161.817 132.05 163.313 130.836 164.78C130.118 165.638 129.337 166.436 128.626 167.294C127.464 168.699 126.142 169.961 124.976 171.356C124.191 172.312 123.249 173.127 122.368 173.985C121.283 175.048 120.213 176.135 119.087 177.146C117.466 178.601 115.917 180.133 114.197 181.476C112.657 182.671 111.13 183.894 109.511 184.989C107.774 186.162 106.091 187.421 104.254 188.447C103.315 188.972 102.379 189.505 101.433 190.016C99.1979 191.229 96.9332 192.385 94.639 193.486C93.7841 193.897 92.8789 194.203 92.0479 194.664C89.962 195.797 87.7109 196.49 85.4694 197.207C83.4419 197.867 81.3575 198.338 79.243 198.614C76.484 199.079 73.6696 199.115 70.8995 198.722C68.9444 198.449 67.0241 197.968 65.1712 197.288C64.8695 197.176 64.5797 197.049 64.2852 196.91C64.3528 196.872 64.4232 196.838 64.4959 196.81C66.838 196.127 69.1873 195.486 71.4863 194.645C74.0295 193.713 76.6207 192.92 79.1496 191.95C83.2518 190.382 87.3541 188.822 91.2791 186.826C93.2165 185.839 95.221 184.979 97.1464 183.959C98.2959 183.352 99.4693 182.793 100.6 182.155C102.568 181.046 104.57 180.004 106.46 178.75C107.99 177.734 109.602 176.838 111.137 175.829C113.658 174.174 116.194 172.539 118.549 170.642C119.825 169.614 121.183 168.687 122.462 167.659C124.595 165.939 126.712 164.199 128.722 162.326C131.15 160.061 133.605 157.824 135.937 155.456" fill="#51D2D2"/>
<path d="M83.6016 102.074L83.6445 102.041C83.6445 102.041 83.6206 102.053 83.6016 102.074Z" fill="#006DEE"/>
<path d="M83.6016 102.074C83.6206 102.053 83.6349 102.041 83.6445 102.041L83.6016 102.074Z" fill="#006DEE"/>
<path d="M36.2433 27.1779C36.3822 28.2198 36.3799 28.5758 36.4469 29.2712C36.5211 30.0311 36.6265 30.7981 36.7415 31.558C36.9953 33.2307 37.1893 34.9321 37.4599 36.612C37.8071 38.8367 38.2214 41.0518 38.5591 43.2789C39.0141 46.2683 39.5865 49.2386 40.1349 52.2136C40.7934 55.798 41.5717 59.3824 42.2327 62.9667C42.4722 64.238 42.7835 65.4973 43.0541 66.7614C43.3798 68.286 43.7342 69.8034 44.0671 71.3255C44.3066 72.3698 44.5461 73.4116 44.7855 74.4511C45.2094 76.2218 45.6117 77.9996 46.129 79.7512C46.5912 81.314 46.96 82.9055 47.3647 84.4874C47.5278 85.1902 47.6549 85.9008 47.7455 86.6165C47.8638 87.2968 47.9374 87.984 47.9658 88.6739C47.9993 90.3466 48.0784 92.0432 47.7479 93.7207C47.6281 94.3181 47.5802 94.9346 47.4749 95.544C47.327 96.5011 47.0381 97.4312 46.6175 98.304C46.2943 98.9492 45.9614 99.6397 45.31 99.9528C43.8157 100.67 41.2389 100.617 39.9936 99.2694C39.2751 98.4927 38.5399 97.752 37.9939 96.8583C36.842 94.9777 35.7907 93.0349 34.591 91.183C32.644 88.1841 30.891 85.0776 29.253 81.9042C28.1059 79.6795 26.8582 77.505 25.6608 75.3161C23.745 71.8449 21.7661 68.4062 19.7241 65.0003C18.1244 62.3502 16.4888 59.7026 14.4652 57.3512C12.9086 55.5351 11.1125 53.9771 8.75603 53.2602C7.64485 52.9209 6.53607 52.682 5.33868 52.8492C2.97024 53.1814 1.4711 54.6223 0.6473 56.5889C-0.104662 58.3668 -0.102267 60.2641 0.189896 62.1304C0.74788 65.6694 2.28773 68.8212 4.23947 71.7867C5.15667 73.1822 6.17685 74.5061 7.05095 75.935C7.9011 77.321 8.83506 78.6568 9.67084 80.0523C10.4587 81.3666 11.237 82.6808 11.9219 84.0644C12.7002 85.6248 13.56 87.1374 14.3766 88.6691C15.1932 90.2009 15.8853 91.7876 16.6397 93.3456C17.1186 94.3277 17.5976 95.3098 18.031 96.3087C18.5387 97.5034 19.0656 98.6791 19.5445 99.893C20.0881 101.26 20.7036 102.605 21.2472 103.97C21.7549 105.25 22.2722 106.531 22.7128 107.841C23.0433 108.83 23.4313 109.803 23.8288 110.766C24.2814 111.843 24.5999 112.974 25.0262 114.061C25.3758 114.952 25.5315 115.913 25.9961 116.764C26.9037 116.243 27.7586 115.64 28.6303 115.053C32.4309 112.469 36.32 110.018 39.8714 107.086C41.2006 105.991 42.6183 105.004 43.9426 103.917C45.6189 102.548 47.3216 101.207 48.9094 99.7305C48.9094 99.7305 51.3353 97.5369 52.1663 96.7053C52.6569 96.3336 53.1122 95.9177 53.5265 95.4627C54.9634 93.9406 56.5798 92.5952 57.9856 91.0133C59.705 89.0849 61.537 87.2473 63.2541 85.3118C63.7331 84.7813 64.212 84.2675 64.6383 83.6988C65.1556 82.9819 65.7088 82.3152 66.2931 81.6629C66.2876 81.6157 66.2771 81.5693 66.2619 81.5243C65.7279 80.3392 65.3527 79.089 65.146 77.8061C64.9065 76.3914 64.7461 74.9601 64.4443 73.5598C64.0061 71.5191 63.4864 69.4975 62.9787 67.4687C62.2962 64.7637 61.4556 62.0993 60.8785 59.368C60.6127 58.1183 60.3229 56.8709 60.1026 55.6116C59.8104 53.9389 59.5158 52.2662 59.3099 50.5696C59.1039 48.873 58.8094 47.205 58.5723 45.5204C58.3592 44.0054 58.1939 42.4808 57.9688 40.9682C57.4755 37.6658 56.9582 34.3706 56.1871 31.1183C55.1837 26.8816 53.8211 22.7787 51.637 18.9912C50.4085 16.8621 49.0363 14.8261 46.7948 13.5812C45.5543 12.893 44.2395 12.5441 42.829 12.8882C40.9132 13.3661 39.5146 14.6158 38.3963 16.1524C37.5217 17.362 36.866 18.715 36.4589 20.1501C36.2843 20.7289 36.1499 21.3189 36.0566 21.916C35.9777 23.6722 36.0401 25.4318 36.2433 27.1779Z" fill="#51D2D2"/>
<path d="M116.765 118.921C116.262 119.516 115.803 120.148 115.393 120.811C114.914 121.528 114.375 122.192 113.932 122.919C113.489 123.645 113.001 124.324 112.51 125.012C111.737 126.097 110.939 127.167 110.115 128.223C109.449 129.079 108.834 129.973 108.18 130.835C107.526 131.698 106.827 132.572 106.144 133.435C105.495 134.257 104.818 135.058 104.157 135.868C103.747 136.372 103.34 136.895 102.875 137.366C102.396 137.841 101.952 138.35 101.549 138.89C101.108 139.505 100.591 140.033 100.1 140.599C99.3815 141.426 98.5888 142.169 97.9015 143.005C97.298 143.741 96.5748 144.339 95.9234 145.017C95.3582 145.608 94.9128 146.298 94.2926 146.843C93.6379 147.398 93.021 147.996 92.4462 148.633C91.8068 149.371 91.0357 149.966 90.3364 150.628C89.6874 151.242 89.0121 151.859 88.2936 152.416C87.9163 152.711 87.5588 153.03 87.2232 153.371C86.7846 153.789 86.3129 154.17 85.8126 154.511C85.4079 154.805 85.1062 155.202 84.7039 155.503C83.9208 156.088 83.1975 156.755 82.4096 157.333C81.2434 158.194 80.0604 159.042 78.8486 159.835C77.5291 160.698 76.1569 161.477 74.8254 162.323C73.381 163.252 71.8752 164.082 70.3184 164.808C69.2336 165.307 68.1631 165.833 67.0471 166.263C65.7491 166.77 64.4272 167.219 63.0909 167.63C61.1172 168.242 59.0964 168.69 57.0489 168.971C55.3777 169.209 53.6912 169.325 52.0031 169.317C48.8813 169.295 45.78 168.811 42.7999 167.883C42.6802 167.845 42.5605 167.824 42.4311 167.795C42.2462 167.661 42.0334 167.57 41.8085 167.53C41.296 166.053 40.7716 164.581 40.3477 163.073C39.9382 161.613 39.3898 160.189 38.9419 158.738C38.0064 155.735 37.0812 152.729 36.1664 149.718C34.961 145.756 33.7636 141.792 32.5742 137.827C32.5742 137.801 32.5742 137.767 32.5742 137.736C35.5988 136.644 38.5827 135.442 41.5044 134.102C43.3795 133.244 45.2594 132.376 47.0531 131.363C50.0418 129.676 53.0688 128.047 55.9401 126.154C57.3027 125.256 58.6941 124.4 60.0112 123.423C62.2168 121.776 64.4176 120.12 66.5921 118.433C67.787 117.541 68.9319 116.584 70.0214 115.566C70.9626 114.655 71.966 113.824 72.9072 112.92C74.3752 111.506 75.915 110.158 77.3136 108.677C79.1839 106.696 81.0686 104.722 82.8407 102.648C83.0868 102.424 83.3529 102.223 83.6358 102.048C83.6118 102.048 83.5232 102.155 83.4705 102.27C82.7329 103.816 81.8996 105.314 81.1189 106.839C79.6509 109.706 77.9075 112.397 76.2215 115.128C74.5356 117.86 72.6054 120.386 70.7375 122.976C69.6239 124.52 68.3882 125.953 67.1908 127.425C66.4963 128.278 65.7348 129.081 65.0044 129.906C63.6417 131.445 62.2336 132.94 60.7369 134.35C59.0605 135.927 57.3004 137.402 55.5593 138.89C53.4361 140.671 51.188 142.297 48.8324 143.758C47.0818 144.876 45.2402 145.808 43.4058 146.798C41.5714 147.787 39.5957 148.523 37.6416 149.295C37.7589 149.445 37.917 149.438 38.0774 149.45C38.2379 149.462 38.4127 149.524 38.5827 149.538C39.658 149.62 40.738 149.754 41.8013 149.856C44.4356 150.095 47.0698 150.067 49.7185 150C51.4236 149.957 53.1286 149.782 54.8313 149.579C56.4007 149.391 57.9629 149.161 59.5179 148.889C61.9485 148.497 64.3491 147.938 66.7023 147.216C68.7881 146.542 70.9171 145.976 72.9287 145.118C73.6208 144.824 74.3512 144.657 75.0265 144.339C75.7689 143.992 76.5664 143.782 77.304 143.447C78.1781 143.053 79.0617 142.673 79.9382 142.279C80.6375 141.964 81.3464 141.648 82.0361 141.323C83.0706 140.845 84.0956 140.31 85.1062 139.77C86.2102 139.177 87.2854 138.532 88.3774 137.913C89.3809 137.347 90.3986 136.807 91.3853 136.219C92.4558 135.581 93.4975 134.902 94.5512 134.24C95.3678 133.727 96.182 133.213 96.9939 132.69C97.7472 132.224 98.471 131.712 99.1612 131.158C99.8796 130.553 100.691 130.063 101.46 129.519C102.229 128.974 103.043 128.391 103.826 127.817C104.877 127.05 105.955 126.316 106.954 125.483C107.598 124.942 108.288 124.455 108.917 123.896C109.978 122.954 111.073 122.051 112.158 121.136C112.749 120.632 113.326 120.106 113.944 119.638C114.72 119.05 115.35 118.287 116.2 117.79C116.408 118.163 116.586 118.543 116.765 118.921Z" fill="#FDF201"/>
<path d="M71.6465 67.7794C71.6632 69.93 71.5052 72.0974 71.7374 74.2528C72.2811 73.6984 72.6475 73.015 73.0737 72.3793C74.2137 70.6827 75.3081 68.9574 76.3282 67.182C78.0046 64.2595 79.6666 61.3347 81.0795 58.2688C82.3559 55.4945 83.5629 52.6987 84.6405 49.8407C85.8092 46.7343 86.7719 43.5705 87.6316 40.3708C87.9693 39.1211 88.2638 37.8593 88.5895 36.6024C88.6007 35.1496 88.6119 33.6967 88.6231 32.2438C88.6816 31.6084 88.7 30.9699 88.6781 30.3322C88.7093 28.571 88.6781 26.8171 88.6662 25.0536L88.6877 20.1238C88.5704 18.5921 88.7811 17.0508 88.6039 15.5191C88.465 14.3052 88.3908 13.0793 88.1968 11.8726C87.979 10.2552 87.6347 8.65724 87.167 7.09342C86.4821 4.96908 85.8164 2.83279 84.1065 1.22937C83.6916 0.813956 83.1939 0.490002 82.6457 0.278438C82.0975 0.0668728 81.5109 -0.0275981 80.9238 0.00112665C79.7172 0.0899886 78.5553 0.493781 77.5544 1.17202C75.617 2.40744 74.5992 4.34062 73.8137 6.38849C73.4094 7.39799 73.1061 8.44496 72.9085 9.51407C72.8031 10.133 72.5852 10.7806 72.5493 11.3851C72.5038 12.1761 72.4032 12.9742 72.3481 13.7747C72.2883 14.6087 72.293 15.4474 72.2859 16.267C72.2859 17.6363 72.3146 19.0079 72.3314 20.3795L71.6465 67.7794Z" fill="#51D2D2"/>
<path d="M95.1286 84.9323C93.9327 86.8891 92.4397 88.6488 90.703 90.1487C89.2867 91.4232 87.7086 92.5062 86.0092 93.3699C83.1023 94.7589 79.9811 95.6476 76.7773 95.9985C82.3189 92.1154 86.7588 87.2311 90.3342 81.5391C90.743 82.2642 91.2296 82.9429 91.7855 83.563C92.1239 83.9613 92.5406 84.2861 93.0097 84.5175C93.4788 84.7488 93.9905 84.8819 94.5131 84.9084C94.7167 84.9299 94.9226 84.9299 95.1286 84.9323Z" fill="#FEC900"/>
<path d="M130.453 25.0919V21.2686C130.523 22.5518 130.484 23.8254 130.453 25.0919Z" fill="#006DEE"/>
<path d="M165.845 107.674C164.761 110.584 163.551 113.445 162.299 116.276C161.286 118.57 160.144 120.817 158.999 123.044C158.395 124.217 157.801 125.393 157.162 126.552C156.365 128.014 155.486 129.433 154.669 130.884C153.366 133.187 151.879 135.372 150.406 137.575C148.73 140.084 146.972 142.545 145.052 144.882C144.508 145.544 143.893 146.172 143.435 146.873C142.764 147.83 142.028 148.74 141.232 149.597C140.255 150.725 139.266 151.848 138.217 152.916C137.661 153.485 137.106 154.07 136.588 154.682L135.939 155.478C133.607 157.846 131.15 160.082 128.724 162.348C126.715 164.221 124.598 165.961 122.464 167.681C121.185 168.709 119.83 169.633 118.551 170.663C116.197 172.561 113.661 174.193 111.139 175.849C109.604 176.86 107.992 177.76 106.462 178.769C104.573 180.023 102.571 181.068 100.602 182.176C99.4717 182.814 98.2982 183.371 97.1488 183.978C95.2329 184.994 93.2189 185.854 91.2815 186.846C87.3565 188.841 83.2542 190.404 79.152 191.971C76.6207 192.927 74.0295 193.735 71.4886 194.667C69.1897 195.508 66.8404 196.148 64.4983 196.832C64.4256 196.86 64.3551 196.893 64.2875 196.932C63.8924 196.92 63.5691 196.693 63.2314 196.545C62.2839 196.147 61.3762 195.661 60.5205 195.092C59.1627 194.136 57.757 193.221 56.5165 192.093C55.8387 191.479 55.1466 190.882 54.4833 190.251C52.7447 188.592 51.3006 186.69 49.8925 184.755C48.6691 183.1 47.5769 181.353 46.626 179.529C45.2984 177.017 44.1617 174.41 43.2254 171.729C42.8087 170.482 42.3849 169.237 41.9658 167.994C41.9238 167.837 41.8726 167.682 41.8125 167.531C41.9467 167.557 42.077 167.601 42.2005 167.66C42.3603 167.742 42.528 167.809 42.701 167.858L42.8039 167.887C45.784 168.815 48.8853 169.298 52.0071 169.32C53.6952 169.329 55.3816 169.214 57.0529 168.976C59.1002 168.694 61.1209 168.246 63.0949 167.636C64.4312 167.232 65.7531 166.773 67.0511 166.269C68.1623 165.836 69.2376 165.313 70.3224 164.814C71.8792 164.088 73.385 163.257 74.8294 162.328C76.1609 161.483 77.5331 160.704 78.8526 159.841C80.0644 159.045 81.2474 158.199 82.4136 157.339C83.2015 156.758 83.9248 156.094 84.7079 155.506C85.1102 155.207 85.4119 154.811 85.8166 154.517C86.3169 154.176 86.7886 153.794 87.2272 153.377C87.5628 153.036 87.9203 152.716 88.2976 152.421C89.0161 151.862 89.6914 151.248 90.338 150.634C91.0397 149.97 91.8108 149.375 92.4502 148.639C93.0267 148.001 93.646 147.403 94.3037 146.849C94.924 146.301 95.3694 145.613 95.9346 145.023C96.586 144.344 97.3092 143.747 97.9127 143.011C98.6 142.175 99.4022 141.432 100.111 140.605C100.59 140.038 101.119 139.51 101.56 138.896C101.964 138.356 102.407 137.846 102.887 137.372C103.433 136.82 103.9 136.177 104.386 135.61C104.953 134.934 105.516 134.253 106.062 133.56C106.781 132.655 107.499 131.758 108.191 130.841C108.845 129.976 109.46 129.085 110.126 128.229C110.945 127.174 111.743 126.103 112.521 125.015C113.012 124.329 113.503 123.648 113.943 122.924C114.384 122.2 114.928 121.526 115.404 120.814C115.815 120.153 116.273 119.522 116.774 118.926C117.44 120.102 118.053 121.304 118.8 122.434C120.103 124.408 121.734 125.995 123.877 127.027C125.873 127.964 128.089 128.339 130.283 128.11C133.985 127.794 137.319 126.37 140.542 124.638C141.17 124.301 141.795 123.959 142.386 123.565C145.279 121.639 148.134 119.67 150.809 117.435C151.527 116.826 152.301 116.24 152.986 115.598C156.032 112.699 159.619 110.62 163.341 108.742C164.073 108.372 164.437 108.309 165.185 107.968L165.845 107.674Z" fill="#EA317E"/>
<path d="M71.7361 74.253C72.2797 73.6986 72.6461 73.0152 73.0724 72.3795C74.2123 70.6829 75.3067 68.9577 76.3269 67.1822C78.0033 64.2597 79.6652 61.3349 81.0782 58.2666C82.3546 55.4947 83.5616 52.6989 84.6392 49.8386C85.8079 46.7321 86.7706 43.5707 87.6303 40.371C87.968 39.1213 88.2625 37.8596 88.5882 36.6027L88.6169 38.4546C88.6169 38.4546 89.2899 58.6848 88.9738 65.4569C88.8684 67.7127 88.7343 69.9661 88.6576 72.2194C88.5403 75.4406 88.8684 78.6116 90.346 81.5603C86.7706 87.2523 82.3306 92.1367 76.7891 96.0197C79.9939 95.6653 83.1154 94.7717 86.021 93.3768C87.7208 92.5148 89.299 91.4325 90.7148 90.1581C92.4509 88.6576 93.9438 86.8979 95.1403 84.9416C96.2985 84.8656 97.3982 84.4065 98.2655 83.6369C99.1514 82.8271 99.9002 81.8798 100.483 80.8315C101.752 78.571 102.418 76.0977 103.06 73.6126C103.56 71.6794 104.047 69.7414 104.427 67.7796C104.99 64.9121 105.526 62.0302 105.929 59.1293C106.25 56.8066 106.611 54.4887 106.939 52.166C107.179 50.4336 107.392 48.6964 107.636 46.9639C107.981 44.5337 108.314 42.0987 108.736 39.6781C109.2 36.9993 109.665 34.3182 110.304 31.6729C110.625 30.3419 110.977 29.0205 111.315 27.6943C111.981 25.146 112.824 22.6468 113.836 20.2149C114.627 18.2166 115.703 16.3429 117.031 14.6519C117.128 14.5247 117.235 14.4056 117.352 14.2959L117.433 14.1859C117.965 13.5816 118.576 13.0511 119.249 12.6088C119.249 12.6088 119.967 12.2169 120.154 12.1309C121.538 11.5574 122.834 11.2563 124.194 11.7008C126.589 12.4822 128.55 13.8514 129.482 16.3294C129.999 17.6799 130.287 19.1069 130.334 20.5518C130.356 20.7989 130.396 21.0441 130.454 21.2854V25.1087C130.317 26.6524 130.214 28.1985 130.035 29.735C129.81 31.6156 129.515 33.4866 129.228 35.3577C128.936 37.2694 128.571 39.181 128.229 41.0927C127.836 43.272 127.398 45.4441 126.967 47.6163C126.536 49.7884 126.112 51.9032 125.664 54.0442C125.283 55.8771 124.86 57.7003 124.481 59.5403C123.799 62.857 122.958 66.1379 122.132 69.4236C121.624 71.4333 121.033 73.4238 120.47 75.4191C119.737 78.0166 118.858 80.5663 118.013 83.1303C117.168 85.6943 116.097 88.1102 115.007 90.5547C114.006 92.8081 113.06 95.095 112.641 97.5419C112.526 98.2038 112.474 98.8801 112.402 99.5491C112.313 100.628 112.323 101.713 112.433 102.789C112.541 104.111 112.752 105.418 112.958 106.739C113.436 109.796 114.354 112.713 115.376 115.626C115.635 116.36 115.944 117.077 116.229 117.801C115.379 118.295 114.749 119.06 113.973 119.648C113.355 120.126 112.776 120.642 112.186 121.144C111.104 122.061 110.007 122.962 108.946 123.906C108.316 124.465 107.627 124.953 106.983 125.493C105.984 126.324 104.906 127.06 103.855 127.828C103.072 128.401 102.279 128.965 101.489 129.526C100.699 130.088 99.9083 130.564 99.1899 131.166C98.5004 131.722 97.7766 132.234 97.0226 132.7C96.2108 133.223 95.3966 133.737 94.5799 134.251C93.5262 134.913 92.4845 135.591 91.414 136.227C90.4274 136.817 89.4096 137.357 88.4062 137.924C87.3142 138.542 86.2389 139.188 85.1349 139.78C84.1243 140.32 83.0994 140.844 82.0648 141.333C81.3751 141.661 80.6663 141.976 79.967 142.289C79.0929 142.681 78.2092 143.061 77.3327 143.458C76.5951 143.792 75.7977 144.003 75.0553 144.349C74.38 144.665 73.6472 144.827 72.9575 145.128C70.9363 145.986 68.8073 146.562 66.731 147.226C64.3778 147.949 61.9773 148.508 59.5467 148.899C57.9773 149.168 56.4111 149.398 54.8481 149.589C53.1478 149.795 51.4427 149.969 49.7376 150.012C47.1034 150.079 44.4571 150.118 41.8205 149.867C40.7476 149.766 39.6772 149.628 38.6019 149.549C38.4319 149.549 38.2666 149.475 38.0966 149.463C37.9266 149.451 37.7781 149.463 37.6608 149.308C39.6149 148.536 41.5738 147.814 43.425 146.81C45.2762 145.807 47.101 144.899 48.8516 143.768C51.2038 142.307 53.4479 140.678 55.5665 138.896C57.3075 137.395 59.0701 135.921 60.7441 134.356C62.2408 132.946 63.6489 131.45 65.0116 129.911C65.742 129.084 66.5035 128.284 67.198 127.431C68.3954 125.959 69.6311 124.523 70.7447 122.981C72.6126 120.394 74.5476 117.856 76.2287 115.134C77.9099 112.412 79.6581 109.707 81.1261 106.845C81.9068 105.32 82.7401 103.822 83.4777 102.273C83.5068 102.209 83.5447 102.148 83.5903 102.094C83.3231 102.253 83.0741 102.44 82.8479 102.653C81.0758 104.727 79.1911 106.699 77.3207 108.682C75.9222 110.164 74.3824 111.511 72.9143 112.926C71.9732 113.829 70.9698 114.661 70.0286 115.569C68.9384 116.586 67.7936 117.543 66.5993 118.436C64.4248 120.123 62.224 121.782 60.0184 123.426C58.7109 124.403 57.3195 125.259 55.9473 126.157C53.0736 128.05 50.049 129.677 47.0603 131.366C45.2666 132.38 43.3867 133.247 41.5116 134.105C38.5899 135.446 35.606 136.645 32.5814 137.74C32.2668 136.953 32.0028 136.148 31.7911 135.328C30.8668 132.365 29.9831 129.388 29.0731 126.42C28.1151 123.314 27.1189 120.207 26.0532 117.115C26.0149 117.003 25.9119 116.893 25.9886 116.757C26.8962 116.236 27.7511 115.633 28.6228 115.046C32.4234 112.462 36.3125 110.011 39.8639 107.079C41.1931 105.984 42.6108 104.997 43.9351 103.91C45.6114 102.541 47.3141 101.2 48.9019 99.7236L52.1588 96.6984C52.6494 96.3267 53.1047 95.9107 53.519 95.4558C54.9559 93.9336 56.5724 92.5883 57.9781 91.0064C59.6975 89.078 61.5296 87.2404 63.2466 85.3048C63.7256 84.7743 64.2045 84.2606 64.6308 83.6918C65.1481 82.975 65.7013 82.3083 66.2856 81.6559C66.7382 82.3178 67.1501 82.9869 67.8781 83.4362C69.3844 84.3657 70.6992 83.9141 71.3937 82.4349C71.6861 81.8129 71.8428 81.1361 71.8535 80.4492C71.8535 79.5889 71.9109 78.7191 71.8535 77.8493L71.7146 74.2649" fill="#006DEE"/>
</g>
<defs>
<clipPath id="clip0_1776_61762">
<rect width="437" height="199" fill="white"/>
</clipPath>
</defs>
</svg>
