<svg width="152" height="84" viewBox="0 0 152 84" fill="none" xmlns="http://www.w3.org/2000/svg">
<path d="M8.096 10.848V12.032H5.056V22H3.6V12.032H0.544V10.848H8.096ZM14.2403 13.072C14.9016 13.072 15.4989 13.216 16.0323 13.504C16.5656 13.7813 16.9816 14.2027 17.2803 14.768C17.5896 15.3333 17.7443 16.0213 17.7443 16.832V22H16.3043V17.04C16.3043 16.1653 16.0856 15.4987 15.6483 15.04C15.2109 14.5707 14.6136 14.336 13.8563 14.336C13.0883 14.336 12.4749 14.576 12.0163 15.056C11.5683 15.536 11.3443 16.2347 11.3443 17.152V22H9.88825V10.16H11.3443V14.48C11.6323 14.032 12.0269 13.6853 12.5283 13.44C13.0403 13.1947 13.6109 13.072 14.2403 13.072ZM28.1226 17.28C28.1226 17.5573 28.1066 17.8507 28.0746 18.16H21.0666C21.12 19.024 21.4133 19.7013 21.9466 20.192C22.4906 20.672 23.1466 20.912 23.9146 20.912C24.544 20.912 25.0666 20.768 25.4826 20.48C25.9093 20.1813 26.208 19.7867 26.3786 19.296H27.9466C27.712 20.1387 27.2426 20.8267 26.5386 21.36C25.8346 21.8827 24.96 22.144 23.9146 22.144C23.0826 22.144 22.336 21.9573 21.6746 21.584C21.024 21.2107 20.512 20.6827 20.1386 20C19.7653 19.3067 19.5786 18.5067 19.5786 17.6C19.5786 16.6933 19.76 15.8987 20.1226 15.216C20.4853 14.5333 20.992 14.0107 21.6426 13.648C22.304 13.2747 23.0613 13.088 23.9146 13.088C24.7466 13.088 25.4826 13.2693 26.1226 13.632C26.7626 13.9947 27.2533 14.496 27.5946 15.136C27.9466 15.7653 28.1226 16.48 28.1226 17.28ZM26.6186 16.976C26.6186 16.4213 26.496 15.9467 26.2506 15.552C26.0053 15.1467 25.6693 14.8427 25.2426 14.64C24.8266 14.4267 24.3626 14.32 23.8506 14.32C23.1146 14.32 22.4853 14.5547 21.9626 15.024C21.4506 15.4933 21.1573 16.144 21.0826 16.976H26.6186ZM33.7661 17.584C33.7661 16.688 33.9475 15.904 34.3101 15.232C34.6728 14.5493 35.1688 14.0213 35.7981 13.648C36.4381 13.2747 37.1528 13.088 37.9421 13.088C38.6248 13.088 39.2595 13.248 39.8461 13.568C40.4328 13.8773 40.8808 14.288 41.1901 14.8V10.16H42.6621V22H41.1901V20.352C40.9021 20.8747 40.4755 21.3067 39.9101 21.648C39.3448 21.9787 38.6835 22.144 37.9261 22.144C37.1475 22.144 36.4381 21.952 35.7981 21.568C35.1688 21.184 34.6728 20.6453 34.3101 19.952C33.9475 19.2587 33.7661 18.4693 33.7661 17.584ZM41.1901 17.6C41.1901 16.9387 41.0568 16.3627 40.7901 15.872C40.5235 15.3813 40.1608 15.008 39.7021 14.752C39.2541 14.4853 38.7581 14.352 38.2141 14.352C37.6701 14.352 37.1741 14.48 36.7261 14.736C36.2781 14.992 35.9208 15.3653 35.6541 15.856C35.3875 16.3467 35.2541 16.9227 35.2541 17.584C35.2541 18.256 35.3875 18.8427 35.6541 19.344C35.9208 19.8347 36.2781 20.2133 36.7261 20.48C37.1741 20.736 37.6701 20.864 38.2141 20.864C38.7581 20.864 39.2541 20.736 39.7021 20.48C40.1608 20.2133 40.5235 19.8347 40.7901 19.344C41.0568 18.8427 41.1901 18.2613 41.1901 17.6ZM44.5786 17.584C44.5786 16.688 44.76 15.904 45.1226 15.232C45.4853 14.5493 45.9813 14.0213 46.6106 13.648C47.2506 13.2747 47.96 13.088 48.7386 13.088C49.5066 13.088 50.1733 13.2533 50.7386 13.584C51.304 13.9147 51.7253 14.3307 52.0026 14.832V13.232H53.4746V22H52.0026V20.368C51.7146 20.88 51.2826 21.3067 50.7066 21.648C50.1413 21.9787 49.48 22.144 48.7226 22.144C47.944 22.144 47.24 21.952 46.6106 21.568C45.9813 21.184 45.4853 20.6453 45.1226 19.952C44.76 19.2587 44.5786 18.4693 44.5786 17.584ZM52.0026 17.6C52.0026 16.9387 51.8693 16.3627 51.6026 15.872C51.336 15.3813 50.9733 15.008 50.5146 14.752C50.0666 14.4853 49.5706 14.352 49.0266 14.352C48.4826 14.352 47.9866 14.48 47.5386 14.736C47.0906 14.992 46.7333 15.3653 46.4666 15.856C46.2 16.3467 46.0666 16.9227 46.0666 17.584C46.0666 18.256 46.2 18.8427 46.4666 19.344C46.7333 19.8347 47.0906 20.2133 47.5386 20.48C47.9866 20.736 48.4826 20.864 49.0266 20.864C49.5706 20.864 50.0666 20.736 50.5146 20.48C50.9733 20.2133 51.336 19.8347 51.6026 19.344C51.8693 18.8427 52.0026 18.2613 52.0026 17.6ZM57.7111 14.432V19.6C57.7111 20.0267 57.8018 20.3307 57.9831 20.512C58.1645 20.6827 58.4791 20.768 58.9271 20.768H59.9991V22H58.6871C57.8765 22 57.2685 21.8133 56.8631 21.44C56.4578 21.0667 56.2551 20.4533 56.2551 19.6V14.432H55.1191V13.232H56.2551V11.024H57.7111V13.232H59.9991V14.432H57.7111ZM61.2193 17.584C61.2193 16.688 61.4006 15.904 61.7633 15.232C62.1259 14.5493 62.6219 14.0213 63.2513 13.648C63.8913 13.2747 64.6006 13.088 65.3793 13.088C66.1473 13.088 66.8139 13.2533 67.3793 13.584C67.9446 13.9147 68.3659 14.3307 68.6433 14.832V13.232H70.1153V22H68.6433V20.368C68.3553 20.88 67.9233 21.3067 67.3473 21.648C66.7819 21.9787 66.1206 22.144 65.3633 22.144C64.5846 22.144 63.8806 21.952 63.2513 21.568C62.6219 21.184 62.1259 20.6453 61.7633 19.952C61.4006 19.2587 61.2193 18.4693 61.2193 17.584ZM68.6433 17.6C68.6433 16.9387 68.5099 16.3627 68.2433 15.872C67.9766 15.3813 67.6139 15.008 67.1553 14.752C66.7073 14.4853 66.2113 14.352 65.6673 14.352C65.1233 14.352 64.6273 14.48 64.1793 14.736C63.7313 14.992 63.3739 15.3653 63.1073 15.856C62.8406 16.3467 62.7073 16.9227 62.7073 17.584C62.7073 18.256 62.8406 18.8427 63.1073 19.344C63.3739 19.8347 63.7313 20.2133 64.1793 20.48C64.6273 20.736 65.1233 20.864 65.6673 20.864C66.2113 20.864 66.7073 20.736 67.1553 20.48C67.6139 20.2133 67.9766 19.8347 68.2433 19.344C68.5099 18.8427 68.6433 18.2613 68.6433 17.6ZM78.2974 14.864C78.596 14.3413 79.0334 13.9147 79.6094 13.584C80.1854 13.2533 80.8414 13.088 81.5774 13.088C82.3667 13.088 83.076 13.2747 83.7054 13.648C84.3347 14.0213 84.8307 14.5493 85.1934 15.232C85.556 15.904 85.7374 16.688 85.7374 17.584C85.7374 18.4693 85.556 19.2587 85.1934 19.952C84.8307 20.6453 84.3294 21.184 83.6894 21.568C83.06 21.952 82.356 22.144 81.5774 22.144C80.82 22.144 80.1534 21.9787 79.5774 21.648C79.012 21.3173 78.5854 20.896 78.2974 20.384V22H76.8414V10.16H78.2974V14.864ZM84.2494 17.584C84.2494 16.9227 84.116 16.3467 83.8494 15.856C83.5827 15.3653 83.22 14.992 82.7614 14.736C82.3134 14.48 81.8174 14.352 81.2734 14.352C80.74 14.352 80.244 14.4853 79.7854 14.752C79.3374 15.008 78.9747 15.3867 78.6974 15.888C78.4307 16.3787 78.2974 16.9493 78.2974 17.6C78.2974 18.2613 78.4307 18.8427 78.6974 19.344C78.9747 19.8347 79.3374 20.2133 79.7854 20.48C80.244 20.736 80.74 20.864 81.2734 20.864C81.8174 20.864 82.3134 20.736 82.7614 20.48C83.22 20.2133 83.5827 19.8347 83.8494 19.344C84.116 18.8427 84.2494 18.256 84.2494 17.584ZM87.1099 17.584C87.1099 16.688 87.2912 15.904 87.6539 15.232C88.0165 14.5493 88.5125 14.0213 89.1419 13.648C89.7819 13.2747 90.4912 13.088 91.2699 13.088C92.0379 13.088 92.7045 13.2533 93.2699 13.584C93.8352 13.9147 94.2565 14.3307 94.5339 14.832V13.232H96.0059V22H94.5339V20.368C94.2459 20.88 93.8139 21.3067 93.2379 21.648C92.6725 21.9787 92.0112 22.144 91.2539 22.144C90.4752 22.144 89.7712 21.952 89.1419 21.568C88.5125 21.184 88.0165 20.6453 87.6539 19.952C87.2912 19.2587 87.1099 18.4693 87.1099 17.584ZM94.5339 17.6C94.5339 16.9387 94.4005 16.3627 94.1339 15.872C93.8672 15.3813 93.5045 15.008 93.0459 14.752C92.5979 14.4853 92.1019 14.352 91.5579 14.352C91.0139 14.352 90.5179 14.48 90.0699 14.736C89.6219 14.992 89.2645 15.3653 88.9979 15.856C88.7312 16.3467 88.5979 16.9227 88.5979 17.584C88.5979 18.256 88.7312 18.8427 88.9979 19.344C89.2645 19.8347 89.6219 20.2133 90.0699 20.48C90.5179 20.736 91.0139 20.864 91.5579 20.864C92.1019 20.864 92.5979 20.736 93.0459 20.48C93.5045 20.2133 93.8672 19.8347 94.1339 19.344C94.4005 18.8427 94.5339 18.2613 94.5339 17.6ZM101.57 22.144C100.898 22.144 100.296 22.032 99.7624 21.808C99.229 21.5733 98.8077 21.2533 98.4984 20.848C98.189 20.432 98.0184 19.9573 97.9864 19.424H99.4904C99.533 19.8613 99.7357 20.2187 100.098 20.496C100.472 20.7733 100.957 20.912 101.554 20.912C102.109 20.912 102.546 20.7893 102.866 20.544C103.186 20.2987 103.346 19.9893 103.346 19.616C103.346 19.232 103.176 18.9493 102.834 18.768C102.493 18.576 101.965 18.3893 101.25 18.208C100.6 18.0373 100.066 17.8667 99.6504 17.696C99.245 17.5147 98.893 17.2533 98.5944 16.912C98.3064 16.56 98.1624 16.1013 98.1624 15.536C98.1624 15.088 98.2957 14.6773 98.5624 14.304C98.829 13.9307 99.2077 13.6373 99.6984 13.424C100.189 13.2 100.749 13.088 101.378 13.088C102.349 13.088 103.133 13.3333 103.73 13.824C104.328 14.3147 104.648 14.9867 104.69 15.84H103.234C103.202 15.3813 103.016 15.0133 102.674 14.736C102.344 14.4587 101.896 14.32 101.33 14.32C100.808 14.32 100.392 14.432 100.082 14.656C99.773 14.88 99.6184 15.1733 99.6184 15.536C99.6184 15.824 99.709 16.064 99.8904 16.256C100.082 16.4373 100.317 16.5867 100.594 16.704C100.882 16.8107 101.277 16.9333 101.778 17.072C102.408 17.2427 102.92 17.4133 103.314 17.584C103.709 17.744 104.045 17.9893 104.322 18.32C104.61 18.6507 104.76 19.0827 104.77 19.616C104.77 20.096 104.637 20.528 104.37 20.912C104.104 21.296 103.725 21.6 103.234 21.824C102.754 22.0373 102.2 22.144 101.57 22.144ZM114.826 17.28C114.826 17.5573 114.81 17.8507 114.778 18.16H107.77C107.823 19.024 108.116 19.7013 108.65 20.192C109.194 20.672 109.85 20.912 110.618 20.912C111.247 20.912 111.77 20.768 112.186 20.48C112.612 20.1813 112.911 19.7867 113.082 19.296H114.65C114.415 20.1387 113.946 20.8267 113.242 21.36C112.538 21.8827 111.663 22.144 110.618 22.144C109.786 22.144 109.039 21.9573 108.378 21.584C107.727 21.2107 107.215 20.6827 106.842 20C106.468 19.3067 106.282 18.5067 106.282 17.6C106.282 16.6933 106.463 15.8987 106.826 15.216C107.188 14.5333 107.695 14.0107 108.346 13.648C109.007 13.2747 109.764 13.088 110.618 13.088C111.45 13.088 112.186 13.2693 112.826 13.632C113.466 13.9947 113.956 14.496 114.298 15.136C114.65 15.7653 114.826 16.48 114.826 17.28ZM113.322 16.976C113.322 16.4213 113.199 15.9467 112.954 15.552C112.708 15.1467 112.372 14.8427 111.946 14.64C111.53 14.4267 111.066 14.32 110.554 14.32C109.818 14.32 109.188 14.5547 108.666 15.024C108.154 15.4933 107.86 16.144 107.786 16.976H113.322ZM116.204 17.584C116.204 16.688 116.385 15.904 116.748 15.232C117.11 14.5493 117.606 14.0213 118.236 13.648C118.876 13.2747 119.59 13.088 120.38 13.088C121.062 13.088 121.697 13.248 122.284 13.568C122.87 13.8773 123.318 14.288 123.628 14.8V10.16H125.1V22H123.628V20.352C123.34 20.8747 122.913 21.3067 122.348 21.648C121.782 21.9787 121.121 22.144 120.364 22.144C119.585 22.144 118.876 21.952 118.236 21.568C117.606 21.184 117.11 20.6453 116.748 19.952C116.385 19.2587 116.204 18.4693 116.204 17.584ZM123.628 17.6C123.628 16.9387 123.494 16.3627 123.228 15.872C122.961 15.3813 122.598 15.008 122.14 14.752C121.692 14.4853 121.196 14.352 120.652 14.352C120.108 14.352 119.612 14.48 119.164 14.736C118.716 14.992 118.358 15.3653 118.092 15.856C117.825 16.3467 117.692 16.9227 117.692 17.584C117.692 18.256 117.825 18.8427 118.092 19.344C118.358 19.8347 118.716 20.2133 119.164 20.48C119.612 20.736 120.108 20.864 120.652 20.864C121.196 20.864 121.692 20.736 122.14 20.48C122.598 20.2133 122.961 19.8347 123.228 19.344C123.494 18.8427 123.628 18.2613 123.628 17.6ZM135.65 22.144C134.828 22.144 134.082 21.9573 133.41 21.584C132.748 21.2107 132.226 20.6827 131.842 20C131.468 19.3067 131.282 18.5067 131.282 17.6C131.282 16.704 131.474 15.9147 131.858 15.232C132.252 14.5387 132.786 14.0107 133.458 13.648C134.13 13.2747 134.882 13.088 135.714 13.088C136.546 13.088 137.298 13.2747 137.97 13.648C138.642 14.0107 139.17 14.5333 139.554 15.216C139.948 15.8987 140.146 16.6933 140.146 17.6C140.146 18.5067 139.943 19.3067 139.538 20C139.143 20.6827 138.604 21.2107 137.922 21.584C137.239 21.9573 136.482 22.144 135.65 22.144ZM135.65 20.864C136.172 20.864 136.663 20.7413 137.122 20.496C137.58 20.2507 137.948 19.8827 138.226 19.392C138.514 18.9013 138.658 18.304 138.658 17.6C138.658 16.896 138.519 16.2987 138.242 15.808C137.964 15.3173 137.602 14.9547 137.154 14.72C136.706 14.4747 136.22 14.352 135.698 14.352C135.164 14.352 134.674 14.4747 134.226 14.72C133.788 14.9547 133.436 15.3173 133.17 15.808C132.903 16.2987 132.77 16.896 132.77 17.6C132.77 18.3147 132.898 18.9173 133.154 19.408C133.42 19.8987 133.772 20.2667 134.21 20.512C134.647 20.7467 135.127 20.864 135.65 20.864ZM146.332 13.072C147.399 13.072 148.263 13.3973 148.924 14.048C149.585 14.688 149.916 15.616 149.916 16.832V22H148.476V17.04C148.476 16.1653 148.257 15.4987 147.82 15.04C147.383 14.5707 146.785 14.336 146.028 14.336C145.26 14.336 144.647 14.576 144.188 15.056C143.74 15.536 143.516 16.2347 143.516 17.152V22H142.06V13.232H143.516V14.48C143.804 14.032 144.193 13.6853 144.684 13.44C145.185 13.1947 145.735 13.072 146.332 13.072Z" fill="#85868A"/>
<g clip-path="url(#clip0_1659_93)">
<path d="M96.11 52.1531C96.11 50.986 95.4798 50.5894 94.4767 50.5894C93.5194 50.5894 93.0295 51.0793 92.6793 51.4759V58.4307H88.4785V42.8645H92.6793V48.4434C93.3327 47.6966 94.57 46.8797 96.5536 46.8797C99.1674 46.8797 100.31 48.4202 100.31 50.3806V58.4307H96.1117L96.11 52.1531Z" fill="#B6B5F9"/>
<path d="M108.127 57.3574C107.497 58.1511 106.12 58.714 104.72 58.714C103.04 58.714 100.846 57.5706 100.846 55.0032C100.846 52.2027 103.04 51.526 104.72 51.526C106.19 51.526 107.521 51.9928 108.127 52.7628V51.478C108.127 50.6848 107.403 50.0777 106.028 50.0777C104.979 50.0777 103.788 50.4981 102.901 51.1747L101.477 48.5841C102.994 47.3689 105.095 46.8806 106.798 46.8806C109.599 46.8806 112.329 47.8611 112.329 51.6183V58.4312H108.131L108.127 57.3574ZM108.127 54.7436C107.847 54.347 107.123 54.136 106.47 54.136C105.77 54.136 105 54.3691 105 55.0695C105 55.7699 105.77 55.9798 106.47 55.9798C107.123 55.9798 107.847 55.7693 108.127 55.3721V54.7436Z" fill="#B6B5F9"/>
<path d="M113.084 62.7251V47.1588H117.282V48.3492C118.191 47.2754 119.288 46.8788 120.456 46.8788C123.256 46.8788 125.403 48.9325 125.403 52.783C125.403 56.6573 123.256 58.711 120.456 58.711C119.288 58.711 118.215 58.3144 117.282 57.2406V62.7251H113.084ZM119.011 50.5896C118.474 50.5896 117.681 50.8696 117.284 51.3596V54.2319C117.658 54.6986 118.474 55.0019 119.011 55.0019C120.131 55.0019 121.11 54.2087 121.11 52.7847C121.112 51.3828 120.131 50.5896 119.011 50.5896Z" fill="#B6B5F9"/>
<path d="M127.357 55.1636V50.7999H125.49V47.1587H127.357V44.0759H131.555V47.1565H133.842V50.7971H131.555V53.9456C131.555 54.5289 131.929 54.9951 132.489 54.9951C132.862 54.9951 133.236 54.8786 133.329 54.7852L134.076 57.9591C133.634 58.3557 132.652 58.7059 131.228 58.7059C128.734 58.7136 127.357 57.5205 127.357 55.1636Z" fill="#B6B5F9"/>
<path d="M134.457 43.634C134.457 43.1678 134.595 42.7122 134.855 42.3247C135.114 41.9372 135.482 41.6351 135.912 41.4568C136.343 41.2785 136.817 41.2319 137.274 41.3229C137.731 41.414 138.151 41.6385 138.481 41.9681C138.81 42.2978 139.035 42.7177 139.126 43.1749C139.217 43.6321 139.17 44.106 138.991 44.5366C138.813 44.9673 138.511 45.3353 138.123 45.5943C137.736 45.8533 137.28 45.9915 136.814 45.9915C136.504 45.9924 136.197 45.932 135.911 45.8138C135.624 45.6956 135.364 45.522 135.145 45.3029C134.926 45.0838 134.753 44.8236 134.635 44.5372C134.516 44.2507 134.456 43.9438 134.457 43.634ZM134.713 47.1581H138.911V58.4308H134.713V47.1581Z" fill="#B6B5F9"/>
<path d="M144.908 54.7918L144.091 55.8888V58.4324H139.893V42.8645H144.091V51.1726L146.681 47.1586H151.745L147.87 52.2928L152.001 58.4307H146.844L144.908 54.7918Z" fill="#B6B5F9"/>
<path d="M82.7069 73.7546C82.8262 73.6132 82.9544 73.4785 83.0825 73.347C83.3245 73.0995 83.5526 72.8399 83.7779 72.5792C83.9615 72.3812 84.1313 72.1708 84.2861 71.9495C84.402 71.7897 84.5265 71.6363 84.659 71.4899C85.1009 70.9492 85.5058 70.3802 85.8941 69.8003C86.2338 69.2932 86.5768 68.7883 86.8773 68.2536C87.0662 67.9183 87.2684 67.5908 87.4523 67.2522C87.5981 66.9848 87.7368 66.7125 87.876 66.4413C88.1411 65.9254 88.4035 65.4078 88.6371 64.8776C88.926 64.2208 89.2049 63.5596 89.4552 62.889C89.8103 62.6747 90.2069 62.5659 90.5964 62.4405C90.9286 62.3329 91.2678 62.248 91.6116 62.1864C91.7994 62.1538 91.9894 62.1312 92.1772 62.1041C92.1772 62.1041 92.6788 62.0726 93.1522 62.092C93.3994 62.1087 93.6432 62.1591 93.8769 62.2417C94.1894 62.344 94.4756 62.5137 94.7154 62.7388C94.9153 62.9332 95.0761 63.1525 95.1462 63.4298C95.1462 63.4298 95.2186 63.7817 95.107 64.0468C95.0341 64.2538 94.9326 64.4496 94.8054 64.6284C94.4994 65.0941 94.0757 65.4354 93.6349 65.7608C93.3035 66.006 92.9362 66.2027 92.5921 66.4297C91.9458 66.8583 91.2691 67.2389 90.6278 67.6764C90.3334 67.8764 90.0252 68.0575 89.7402 68.2702C89.0558 68.7784 88.341 69.2429 87.6655 69.7616C87.497 69.8908 87.3186 70.0085 87.1551 70.1433C86.7773 70.4543 86.3763 70.7349 85.9951 71.042C85.7742 71.222 85.5533 71.4049 85.3456 71.6032C84.9644 71.9705 84.5883 72.3428 84.2237 72.7256C83.8956 73.0703 83.5708 73.4199 83.2725 73.7894C82.9251 74.2192 82.5611 74.6351 82.212 75.0632C81.9358 75.4046 81.6596 75.7503 81.3796 76.0895C81.2139 76.2878 81.0338 76.4723 80.8697 76.6706C80.6018 76.9954 80.2969 77.287 80.0279 77.6096C79.8468 77.8306 79.6297 78.0189 79.4264 78.2172C79.1762 78.463 78.9293 78.7143 78.6697 78.948C78.2957 79.2844 77.9383 79.6385 77.5417 79.9489C77.1866 80.2251 76.8341 80.5079 76.4607 80.7609C76.0603 81.0321 75.672 81.3232 75.2483 81.5601C75.0318 81.6817 74.8158 81.8048 74.5976 81.923C74.0821 82.2033 73.5597 82.4706 73.0305 82.7251C72.8334 82.8201 72.6246 82.8908 72.4329 82.9974C71.9518 83.2592 71.4325 83.4194 70.9155 83.5851C70.4479 83.7376 69.9671 83.8465 69.4794 83.9105C68.843 84.0179 68.1939 84.0263 67.5549 83.9353C67.104 83.8722 66.661 83.7611 66.2337 83.6039C66.1641 83.5779 66.0972 83.5487 66.0293 83.5166C66.0449 83.5077 66.0611 83.4999 66.0779 83.4934C66.6181 83.3354 67.16 83.1874 67.6903 82.993C68.2769 82.7776 68.8745 82.5942 69.4578 82.3699C70.404 82.0076 71.3502 81.6469 72.2556 81.1856C72.7024 80.9575 73.1648 80.7587 73.6089 80.5228C73.874 80.3825 74.1447 80.2532 74.4054 80.1058C74.8594 79.8495 75.3212 79.6086 75.757 79.3186C76.11 79.0839 76.4817 78.8767 76.8358 78.6436C77.4174 78.2609 78.0024 77.883 78.5454 77.4445C78.8398 77.2069 79.153 76.9926 79.4479 76.7551C79.9401 76.3574 80.4284 75.9553 80.8918 75.5222C81.4519 74.9986 82.0181 74.4816 82.5561 73.9342" fill="#B6B5F9"/>
<path d="M70.4844 61.5947L70.494 61.5872C70.494 61.5872 70.4887 61.5898 70.4844 61.5947Z" fill="#B6B5F9"/>
<path d="M70.4844 61.5947C70.4887 61.5898 70.4919 61.5872 70.494 61.5872L70.4844 61.5947Z" fill="#B6B5F9"/>
<path d="M59.563 44.2822C59.595 44.523 59.5944 44.6053 59.6099 44.766C59.627 44.9417 59.6513 45.119 59.6778 45.2946C59.7364 45.6813 59.7811 46.0746 59.8436 46.4629C59.9237 46.9772 60.0192 47.4892 60.0971 48.004C60.202 48.695 60.3341 49.3816 60.4606 50.0693C60.6125 50.8979 60.792 51.7264 60.9444 52.555C60.9997 52.8488 61.0715 53.1399 61.1339 53.4321C61.209 53.7845 61.2908 54.1353 61.3675 54.4871C61.4228 54.7285 61.478 54.9694 61.5332 55.2096C61.631 55.6189 61.7238 56.0299 61.8431 56.4348C61.9497 56.796 62.0348 57.1639 62.1281 57.5296C62.1658 57.692 62.1951 57.8563 62.216 58.0217C62.2433 58.179 62.2602 58.3379 62.2668 58.4973C62.2745 58.884 62.2928 59.2762 62.2165 59.6639C62.1889 59.802 62.1779 59.9445 62.1536 60.0854C62.1194 60.3066 62.0528 60.5216 61.9558 60.7234C61.8812 60.8725 61.8045 61.0321 61.6542 61.1045C61.3095 61.2702 60.7152 61.2581 60.428 60.9465C60.2623 60.767 60.0927 60.5958 59.9667 60.3892C59.701 59.9545 59.4586 59.5054 59.1818 59.0773C58.7328 58.3841 58.3284 57.666 57.9506 56.9325C57.686 56.4182 57.3982 55.9156 57.122 55.4096C56.6802 54.6072 56.2237 53.8123 55.7527 53.025C55.3838 52.4124 55.0065 51.8004 54.5397 51.2569C54.1807 50.8371 53.7664 50.477 53.2229 50.3112C52.9666 50.2328 52.7108 50.1776 52.4347 50.2162C51.8884 50.293 51.5426 50.6261 51.3526 51.0807C51.1791 51.4917 51.1797 51.9302 51.2471 52.3616C51.3758 53.1797 51.7309 53.9083 52.1811 54.5937C52.3927 54.9163 52.628 55.2223 52.8296 55.5527C53.0257 55.873 53.2411 56.1818 53.4339 56.5044C53.6156 56.8082 53.7951 57.112 53.9531 57.4318C54.1326 57.7925 54.3309 58.1421 54.5193 58.4962C54.7077 58.8503 54.8673 59.2171 55.0413 59.5772C55.1518 59.8042 55.2622 60.0312 55.3622 60.2621C55.4793 60.5383 55.6008 60.8101 55.7113 61.0907C55.8367 61.4066 55.9787 61.7176 56.104 62.033C56.2211 62.3291 56.3405 62.6252 56.4421 62.9279C56.5183 63.1565 56.6078 63.3813 56.6995 63.604C56.8039 63.8531 56.8774 64.1143 56.9757 64.3657C57.0563 64.5717 57.0922 64.7938 57.1994 64.9904C57.4087 64.87 57.6059 64.7308 57.807 64.5949C58.6836 63.9978 59.5806 63.4311 60.3998 62.7533C60.7064 62.5003 61.0334 62.2722 61.3388 62.0209C61.7255 61.7044 62.1182 61.3945 62.4844 61.0531C62.4844 61.0531 63.044 60.546 63.2356 60.3538C63.3488 60.2679 63.4538 60.1718 63.5494 60.0666C63.8808 59.7147 64.2537 59.4038 64.5779 59.0381C64.9745 58.5923 65.3971 58.1676 65.7931 57.7201C65.9036 57.5975 66.014 57.4788 66.1124 57.3473C66.2317 57.1816 66.3593 57.0275 66.4941 56.8767C66.4928 56.8658 66.4904 56.855 66.4869 56.8446C66.3637 56.5707 66.2772 56.2817 66.2295 55.9852C66.1742 55.6582 66.1372 55.3273 66.0676 55.0036C65.9665 54.5319 65.8467 54.0646 65.7296 53.5956C65.5722 52.9703 65.3783 52.3544 65.2452 51.7231C65.1838 51.4342 65.117 51.1459 65.0662 50.8548C64.9988 50.4681 64.9309 50.0815 64.8834 49.6893C64.8359 49.2971 64.7679 48.9115 64.7132 48.5221C64.6641 48.1719 64.626 47.8195 64.574 47.4699C64.4602 46.7065 64.3409 45.9448 64.1631 45.193C63.9316 44.2137 63.6173 43.2653 63.1136 42.3898C62.8302 41.8976 62.5137 41.427 61.9967 41.1392C61.7106 40.9801 61.4073 40.8995 61.082 40.979C60.6401 41.0895 60.3175 41.3784 60.0595 41.7335C59.8578 42.0132 59.7066 42.3259 59.6127 42.6577C59.5724 42.7914 59.5414 42.9278 59.5199 43.0658C59.5017 43.4718 59.5161 43.8785 59.563 44.2822Z" fill="#B6B5F9"/>
<path d="M78.1339 65.4889C78.0178 65.6266 77.912 65.7726 77.8173 65.9258C77.7069 66.0915 77.5826 66.2451 77.4804 66.413C77.3782 66.5809 77.2655 66.7378 77.1523 66.8969C76.9741 67.1476 76.7899 67.3951 76.5999 67.6393C76.4464 67.837 76.3044 68.0436 76.1536 68.243C76.0028 68.4424 75.8415 68.6446 75.6841 68.844C75.5344 69.034 75.3781 69.219 75.2256 69.4063C75.1312 69.5228 75.0373 69.6438 74.9301 69.7526C74.8195 69.8623 74.7172 69.9801 74.6241 70.105C74.5225 70.247 74.4032 70.369 74.2899 70.5C74.1242 70.6911 73.9414 70.8629 73.7829 71.0562C73.6437 71.2263 73.4768 71.3644 73.3266 71.5213C73.1962 71.6577 73.0935 71.8174 72.9504 71.9433C72.7994 72.0716 72.6572 72.2098 72.5246 72.357C72.3771 72.5277 72.1992 72.6652 72.0379 72.8182C71.8882 72.9602 71.7325 73.1027 71.5668 73.2314C71.4797 73.2996 71.3973 73.3734 71.3199 73.4524C71.2187 73.5488 71.1099 73.6369 70.9945 73.7158C70.9012 73.7838 70.8316 73.8755 70.7388 73.9451C70.5581 74.0804 70.3913 74.2345 70.2096 74.3682C69.9406 74.567 69.6677 74.7631 69.3882 74.9465C69.0839 75.1459 68.7674 75.326 68.4603 75.5215C68.1271 75.7363 67.7798 75.9282 67.4207 76.096C67.1705 76.2114 66.9236 76.333 66.6662 76.4324C66.3668 76.5495 66.0619 76.6533 65.7537 76.7483C65.2984 76.8897 64.8323 76.9933 64.36 77.0582C63.9746 77.1133 63.5856 77.14 63.1962 77.1383C62.4761 77.1331 61.7608 77.0214 61.0734 76.8069C61.0458 76.798 61.0182 76.7931 60.9884 76.7864C60.9457 76.7555 60.8966 76.7345 60.8448 76.7251C60.7266 76.3838 60.6056 76.0435 60.5078 75.695C60.4134 75.3575 60.2869 75.0283 60.1836 74.693C59.9678 73.9988 59.7544 73.3038 59.5434 72.6078C59.2654 71.692 58.9892 70.7758 58.7148 69.8592C58.7148 69.8531 58.7148 69.8454 58.7148 69.8382C59.4125 69.5858 60.1007 69.3079 60.7746 68.9981C61.2071 68.7998 61.6407 68.5993 62.0545 68.3651C62.7438 67.9751 63.442 67.5984 64.1043 67.1609C64.4186 66.9532 64.7395 66.7555 65.0433 66.5295C65.552 66.149 66.0597 65.7662 66.5612 65.3762C66.8368 65.1699 67.1009 64.9486 67.3522 64.7134C67.5693 64.5029 67.8007 64.3107 68.0178 64.1019C68.3564 63.7749 68.7116 63.4634 69.0342 63.1209C69.4656 62.663 69.9003 62.2067 70.309 61.7273C70.3658 61.6755 70.4272 61.6291 70.4924 61.5886C70.4869 61.5886 70.4664 61.6135 70.4543 61.64C70.2842 61.9974 70.0919 62.3437 69.9119 62.6961C69.5733 63.359 69.1711 63.9809 68.7823 64.6123C68.3934 65.2436 67.9482 65.8275 67.5174 66.4263C67.2605 66.7831 66.9755 67.1145 66.6993 67.4548C66.5391 67.652 66.3635 67.8375 66.195 68.0281C65.8807 68.3838 65.5559 68.7296 65.2107 69.0555C64.824 69.4201 64.418 69.7609 64.0165 70.105C63.5267 70.5165 63.0082 70.8926 62.4649 71.2302C62.0611 71.4887 61.6363 71.7041 61.2132 71.9328C60.7901 72.1615 60.3344 72.3316 59.8837 72.51C59.9107 72.5448 59.9472 72.5432 59.9842 72.5459C60.0212 72.5487 60.0615 72.563 60.1007 72.5664C60.3487 72.5851 60.5979 72.6161 60.8431 72.6398C61.4507 72.6951 62.0583 72.6884 62.6692 72.673C63.0625 72.663 63.4558 72.6227 63.8485 72.5758C64.2105 72.5323 64.5709 72.4791 64.9295 72.4161C65.4902 72.3257 66.0438 72.1965 66.5866 72.0295C67.0677 71.8737 67.5588 71.7428 68.0228 71.5445C68.1824 71.4765 68.3509 71.4379 68.5067 71.3644C68.6779 71.2843 68.8618 71.2357 69.0319 71.1584C69.2336 71.0672 69.4374 70.9794 69.6396 70.8883C69.8008 70.8154 69.9643 70.7424 70.1234 70.6673C70.3621 70.5568 70.5985 70.4331 70.8316 70.3083C71.0862 70.1713 71.3342 70.0222 71.5861 69.8791C71.8175 69.7482 72.0523 69.6234 72.2799 69.4875C72.5268 69.34 72.7671 69.1831 73.0101 69.0301C73.1985 68.9114 73.3863 68.7926 73.5735 68.6716C73.7473 68.564 73.9142 68.4458 74.0734 68.3176C74.2391 68.1778 74.4264 68.0646 74.6037 67.9386C74.781 67.8127 74.9688 67.6779 75.1494 67.5453C75.3919 67.368 75.6405 67.1985 75.8708 67.0057C76.0194 66.8808 76.1785 66.7682 76.3237 66.6389C76.5684 66.4213 76.8209 66.2125 77.0711 66.0009C77.2075 65.8844 77.3407 65.7629 77.4832 65.6546C77.6621 65.5187 77.8074 65.3425 78.0035 65.2276C78.0515 65.3138 78.0924 65.4016 78.1339 65.4889Z" fill="#B6B5F9"/>
<path d="M67.7273 53.6673C67.7312 54.1644 67.6947 54.6654 67.7483 55.1636C67.8737 55.0355 67.9582 54.8775 68.0565 54.7306C68.3194 54.3384 68.5719 53.9396 68.8072 53.5292C69.1938 52.8536 69.5772 52.1775 69.9031 51.4689C70.1975 50.8276 70.4759 50.1813 70.7244 49.5207C70.994 48.8026 71.2161 48.0712 71.4143 47.3316C71.4922 47.0427 71.5602 46.7511 71.6353 46.4605C71.6379 46.1247 71.6405 45.7889 71.643 45.453C71.6565 45.3061 71.6608 45.1586 71.6557 45.0111C71.6629 44.604 71.6557 44.1986 71.653 43.791L71.6579 42.6514C71.6309 42.2974 71.6795 41.9411 71.6386 41.587C71.6066 41.3064 71.5894 41.023 71.5447 40.7441C71.4945 40.3702 71.4151 40.0009 71.3072 39.6394C71.1492 39.1483 70.9957 38.6545 70.6013 38.2839C70.5056 38.1878 70.3908 38.1129 70.2643 38.064C70.1379 38.0151 70.0026 37.9933 69.8672 37.9999C69.5889 38.0205 69.3208 38.1138 69.09 38.2706C68.6431 38.5562 68.4084 39.003 68.2272 39.4764C68.1339 39.7098 68.064 39.9518 68.0184 40.1989C67.9941 40.342 67.9438 40.4917 67.9355 40.6314C67.925 40.8143 67.9018 40.9987 67.8891 41.1838C67.8753 41.3766 67.8764 41.5704 67.8748 41.7599C67.8748 42.0764 67.8814 42.3935 67.8853 42.7105L67.7273 53.6673Z" fill="#B6B5F9"/>
<path d="M73.1468 57.6323C72.871 58.0846 72.5267 58.4914 72.1261 58.8381C71.7994 59.1327 71.4354 59.383 71.0434 59.5827C70.373 59.9037 69.653 60.1092 68.9141 60.1903C70.1922 59.2927 71.2163 58.1636 72.041 56.8479C72.1353 57.0155 72.2475 57.1724 72.3757 57.3158C72.4538 57.4078 72.5499 57.4829 72.6581 57.5364C72.7663 57.5899 72.8843 57.6206 73.0049 57.6267C73.0518 57.6317 73.0993 57.6317 73.1468 57.6323Z" fill="#B6B5F9"/>
<path d="M81.293 43.8V42.9163C81.309 43.2129 81.3001 43.5073 81.293 43.8Z" fill="#B6B5F9"/>
<path d="M89.4564 62.8889C89.2062 63.5617 88.9272 64.2229 88.6383 64.8774C88.4047 65.4077 88.1412 65.9269 87.8772 66.4417C87.738 66.7129 87.601 66.9847 87.4535 67.2526C87.2696 67.5907 87.0669 67.9188 86.8785 68.2541C86.578 68.7865 86.235 69.2914 85.8953 69.8007C85.5086 70.3807 85.1032 70.9496 84.6602 71.4898C84.5348 71.6428 84.3928 71.7881 84.2873 71.9499C84.1325 72.1712 83.9627 72.3816 83.7792 72.5796C83.5538 72.8404 83.3257 73.1 83.0837 73.3469C82.9556 73.4783 82.8274 73.6137 82.7081 73.7551L82.5584 73.939C82.0204 74.4864 81.4537 75.0034 80.8942 75.5271C80.4307 75.9601 79.9424 76.3622 79.4503 76.76C79.1553 76.9975 78.8427 77.2112 78.5477 77.4493C78.0047 77.8879 77.4198 78.2652 76.8381 78.6479C76.4841 78.8816 76.1123 79.0898 75.7594 79.3229C75.3235 79.6129 74.8618 79.8543 74.4077 80.1106C74.147 80.2581 73.8763 80.3868 73.6112 80.5271C73.1693 80.7618 72.7048 80.9607 72.2579 81.1899C71.3526 81.6512 70.4064 82.0124 69.4602 82.3748C68.8763 82.5957 68.2786 82.7824 67.6926 82.9978C67.1623 83.1923 66.6204 83.3403 66.0802 83.4983C66.0635 83.5048 66.0472 83.5125 66.0316 83.5215C65.9405 83.5187 65.8659 83.4662 65.788 83.432C65.5695 83.34 65.3601 83.2276 65.1627 83.0961C64.8496 82.8752 64.5253 82.6636 64.2392 82.4029C64.0829 82.261 63.9232 82.1229 63.7702 81.9771C63.3692 81.5937 63.0361 81.154 62.7113 80.7066C62.4292 80.3241 62.1773 79.9202 61.9579 79.4986C61.6517 78.9181 61.3895 78.3154 61.1736 77.6957C61.0774 77.4073 60.9797 77.1195 60.883 76.8323C60.8733 76.7959 60.8615 76.7602 60.8477 76.7252C60.8786 76.7313 60.9087 76.7413 60.9371 76.755C60.974 76.774 61.0127 76.7894 61.0526 76.8008L61.0763 76.8075C61.7637 77.022 62.479 77.1337 63.1991 77.1389C63.5884 77.1408 63.9774 77.1142 64.3629 77.0593C64.8351 76.9942 65.3012 76.8906 65.7565 76.7495C66.0648 76.6561 66.3697 76.5501 66.669 76.4335C66.9253 76.3335 67.1734 76.2126 67.4236 76.0971C67.7827 75.9293 68.13 75.7374 68.4631 75.5226C68.7703 75.3271 69.0868 75.147 69.3911 74.9476C69.6706 74.7637 69.9435 74.5682 70.2125 74.3693C70.3942 74.2351 70.561 74.0815 70.7417 73.9456C70.8344 73.8766 70.904 73.7849 70.9974 73.717C71.1128 73.6381 71.2216 73.55 71.3227 73.4535C71.4001 73.3745 71.4826 73.3007 71.5696 73.2325C71.7354 73.1033 71.8911 72.9613 72.0403 72.8194C72.2021 72.6658 72.38 72.5283 72.5275 72.3581C72.6604 72.2107 72.8033 72.0725 72.955 71.9444C73.098 71.8179 73.2008 71.6588 73.3311 71.5224C73.4814 71.3655 73.6482 71.2274 73.7874 71.0573C73.9459 70.864 74.131 70.6922 74.2945 70.5011C74.4049 70.3702 74.527 70.2481 74.6287 70.1061C74.7218 69.9812 74.8241 69.8634 74.9347 69.7537C75.0606 69.6261 75.1683 69.4775 75.2804 69.3466C75.4114 69.1903 75.5412 69.0329 75.6671 68.8727C75.8328 68.6634 75.9985 68.4562 76.1582 68.2441C76.309 68.0442 76.4509 67.8381 76.6045 67.6404C76.7934 67.3966 76.9775 67.149 77.1568 66.8974C77.2701 66.7389 77.3833 66.5815 77.4849 66.4141C77.5866 66.2468 77.712 66.091 77.8219 65.9264C77.9166 65.7736 78.0222 65.6277 78.1378 65.49C78.2914 65.7618 78.4328 66.0396 78.6051 66.3009C78.9056 66.7571 79.2818 67.1239 79.7762 67.3625C80.2366 67.5792 80.7476 67.6657 81.2537 67.6128C82.1077 67.5398 82.8766 67.2106 83.6201 66.8102C83.7648 66.7323 83.909 66.6533 84.0454 66.5622C84.7127 66.1169 85.3711 65.6618 85.9881 65.1453C86.1538 65.0045 86.3322 64.8692 86.4902 64.7206C87.1928 64.0505 88.0202 63.57 88.8786 63.1358C89.0476 63.0502 89.1316 63.0358 89.3039 62.9569L89.4564 62.8889Z" fill="#B6B5F9"/>
<path d="M67.7495 55.1637C67.8749 55.0355 67.9594 54.8776 68.0577 54.7306C68.3207 54.3384 68.5731 53.9396 68.8084 53.5292C69.1951 52.8537 69.5784 52.1776 69.9043 51.4683C70.1987 50.8276 70.4771 50.1813 70.7257 49.5201C70.9952 48.8021 71.2173 48.0713 71.4156 47.3317C71.4935 47.0428 71.5614 46.7511 71.6365 46.4606L71.6432 46.8887C71.6432 46.8887 71.7984 51.565 71.7255 53.1304C71.7012 53.6519 71.6702 54.1727 71.6525 54.6936C71.6255 55.4382 71.7012 56.1712 72.042 56.8528C71.2173 58.1686 70.1932 59.2976 68.915 60.1952C69.6542 60.1133 70.3742 59.9067 71.0444 59.5843C71.4365 59.385 71.8005 59.1348 72.127 58.8402C72.5275 58.4934 72.8718 58.0866 73.1478 57.6344C73.4149 57.6168 73.6686 57.5107 73.8686 57.3328C74.073 57.1456 74.2457 56.9267 74.3801 56.6843C74.6729 56.1618 74.8264 55.5901 74.9745 55.0156C75.0899 54.5688 75.2021 54.1208 75.2899 53.6673C75.4197 53.0045 75.5434 52.3383 75.6362 51.6677C75.7102 51.1308 75.7936 50.5951 75.8693 50.0582C75.9245 49.6577 75.9737 49.2561 76.0301 48.8556C76.1096 48.2939 76.1864 47.731 76.2836 47.1715C76.3907 46.5523 76.4979 45.9325 76.6454 45.3211C76.7194 45.0134 76.8006 44.7079 76.8785 44.4014C77.0322 43.8123 77.2265 43.2346 77.4601 42.6725C77.6425 42.2106 77.8907 41.7774 78.197 41.3865C78.2194 41.3571 78.2441 41.3296 78.271 41.3042L78.2898 41.2788C78.4124 41.1391 78.5532 41.0165 78.7085 40.9143C78.7085 40.9143 78.8742 40.8237 78.9173 40.8038C79.2365 40.6712 79.5354 40.6016 79.8491 40.7044C80.4015 40.885 80.8539 41.2015 81.0687 41.7743C81.188 42.0865 81.2545 42.4163 81.2654 42.7503C81.2705 42.8075 81.2797 42.8641 81.293 42.9199V43.8037C81.2615 44.1605 81.2378 44.5179 81.1963 44.8731C81.1444 45.3078 81.0765 45.7403 81.0102 46.1728C80.9428 46.6147 80.8588 47.0566 80.7799 47.4985C80.6893 48.0022 80.5882 48.5043 80.4888 49.0064C80.3893 49.5085 80.2916 49.9974 80.1883 50.4923C80.1004 50.916 80.0027 51.3374 79.9154 51.7628C79.758 52.5294 79.5641 53.2878 79.3735 54.0473C79.2564 54.5119 79.12 54.972 78.9902 55.4332C78.8212 56.0337 78.6184 56.623 78.4235 57.2157C78.2285 57.8084 77.9816 58.3669 77.7302 58.9319C77.4993 59.4528 77.2812 59.9814 77.1845 60.547C77.158 60.7001 77.1458 60.8564 77.1293 61.011C77.1087 61.2604 77.1111 61.5111 77.1364 61.76C77.1613 62.0655 77.2099 62.3676 77.2574 62.6731C77.3679 63.3796 77.5794 64.054 77.8153 64.7274C77.875 64.8969 77.9462 65.0626 78.0119 65.23C77.8159 65.3444 77.6706 65.5211 77.4916 65.657C77.3491 65.7675 77.2154 65.8868 77.0795 66.0028C76.8299 66.2149 76.5769 66.4231 76.3322 66.6413C76.1869 66.7706 76.0278 66.8832 75.8793 67.0081C75.6489 67.2003 75.4004 67.3704 75.1579 67.5477C74.9772 67.6803 74.7944 67.8107 74.6121 67.9405C74.4298 68.0703 74.2476 68.1802 74.0819 68.3194C73.9228 68.448 73.7559 68.5664 73.582 68.674C73.3947 68.795 73.2069 68.9137 73.0185 69.0325C72.7755 69.1855 72.5352 69.3424 72.2883 69.4893C72.0607 69.6257 71.826 69.7506 71.5945 69.8815C71.3427 70.0246 71.0947 70.1737 70.84 70.3107C70.6069 70.4355 70.3705 70.5565 70.1319 70.6697C69.9728 70.7454 69.8093 70.8183 69.648 70.8907C69.4464 70.9813 69.2426 71.0691 69.0404 71.1608C68.8703 71.2381 68.6863 71.2867 68.5151 71.3668C68.3593 71.4397 68.1903 71.4773 68.0312 71.5469C67.565 71.7452 67.074 71.8783 66.5951 72.0319C66.0523 72.1988 65.4986 72.328 64.938 72.4185C64.576 72.4807 64.2147 72.534 63.8542 72.5781C63.4621 72.6256 63.0688 72.666 62.6755 72.6759C62.0679 72.6914 61.4575 72.7002 60.8494 72.6422C60.6019 72.619 60.355 72.587 60.107 72.5688C60.0678 72.5688 60.0296 72.5516 59.9904 72.5489C59.9512 72.5461 59.917 72.5489 59.8899 72.513C60.3406 72.3346 60.7925 72.1677 61.2194 71.9357C61.6464 71.7037 62.0673 71.4939 62.4711 71.2326C63.0137 70.8947 63.5313 70.5183 64.0199 70.1063C64.4215 69.7594 64.8281 69.4186 65.2142 69.0568C65.5594 68.7309 65.8842 68.3851 66.1985 68.0294C66.3669 67.8383 66.5426 67.6532 66.7028 67.4561C66.979 67.1158 67.264 66.7838 67.5208 66.4275C67.9517 65.8293 68.398 65.2427 68.7858 64.6136C69.1735 63.9844 69.5768 63.3591 69.9154 62.6974C70.0954 62.345 70.2876 61.9987 70.4578 61.6407C70.4645 61.6258 70.4732 61.6119 70.4837 61.5993C70.4221 61.636 70.3647 61.6793 70.3125 61.7286C69.9038 62.208 69.469 62.6637 69.0376 63.1222C68.7151 63.4646 68.3599 63.7762 68.0213 64.1032C67.8042 64.312 67.5728 64.5042 67.3557 64.7141C67.1042 64.9492 66.8402 65.1705 66.5647 65.3769C66.0631 65.7669 65.5555 66.1503 65.0468 66.5303C64.7452 66.7562 64.4243 66.9539 64.1078 67.1616C63.4449 67.5991 62.7473 67.9753 62.0579 68.3658C61.6442 68.6 61.2106 68.8005 60.7781 68.9988C60.1042 69.3087 59.416 69.586 58.7183 69.839C58.6458 69.6572 58.5849 69.4711 58.536 69.2816C58.3228 68.5967 58.119 67.9084 57.9091 67.2224C57.6882 66.5043 57.4584 65.7862 57.2126 65.0715C57.2037 65.0455 57.18 65.0201 57.1977 64.9886C57.407 64.8682 57.6042 64.729 57.8053 64.5931C58.6819 63.996 59.5789 63.4293 60.3981 62.7515C60.7046 62.4986 61.0316 62.2704 61.3371 62.0191C61.7238 61.7026 62.1165 61.3927 62.4827 61.0514L63.2339 60.3521C63.3471 60.2661 63.4521 60.17 63.5477 60.0648C63.8791 59.713 64.2519 59.402 64.5762 59.0363C64.9728 58.5906 65.3953 58.1658 65.7914 57.7184C65.9019 57.5958 66.0123 57.477 66.1107 57.3455C66.23 57.1798 66.3576 57.0257 66.4923 56.8749C66.5967 57.0279 66.6917 57.1826 66.8597 57.2864C67.2071 57.5013 67.5103 57.3969 67.6705 57.055C67.738 56.9112 67.7741 56.7548 67.7766 56.596C67.7766 56.3971 67.7898 56.1961 67.7766 55.995L67.7446 55.1664" fill="#B6B5F9"/>
</g>
<defs>
<clipPath id="clip0_1659_93">
<rect width="100.796" height="46" fill="white" transform="translate(51.2051 38)"/>
</clipPath>
</defs>
</svg>
